<svg width="364" height="959" viewBox="0 0 364 959" fill="none" xmlns="http://www.w3.org/2000/svg">
<rect width="364" height="959" fill="black"/>
<rect x="16.5" y="16.5" width="331" height="39" rx="7.5" stroke="#1F1F1F"/>
<rect x="19" y="19" width="163" height="34" rx="6" fill="#343434"/>
<path d="M66.312 33.622H70.988C71.212 33.328 71.394 33.02 71.534 32.712C70.33 32.754 69.07 32.796 67.782 32.824L67.586 31.676C68.398 31.564 69.532 30.794 70.988 29.394L72.304 29.842C71.59 30.542 70.876 31.158 70.148 31.662C71.702 31.606 73.214 31.536 74.684 31.438C74.348 31.13 73.984 30.836 73.62 30.542L74.642 29.898C76.014 30.934 77.064 31.844 77.792 32.614L76.686 33.384C76.434 33.09 76.154 32.796 75.846 32.502C74.894 32.558 73.9 32.6 72.892 32.656C72.752 32.992 72.598 33.314 72.416 33.622H78.646V34.826H75.426C76.252 35.526 77.428 36.072 78.968 36.478L78.394 37.696C76.35 36.954 74.88 36.002 73.97 34.826H71.492C70.372 36.002 68.748 36.982 66.634 37.738L66.032 36.562C67.6 36.114 68.846 35.54 69.784 34.826H66.312V33.622ZM72.416 35.106L73.452 35.722C72.514 36.898 71.058 37.836 69.07 38.536L68.482 37.5C70.274 36.898 71.576 36.1 72.416 35.106ZM76.042 37.29L77.204 37.808C75.916 40.104 73.102 41.714 68.79 42.624L68.034 41.588C72.234 40.72 74.894 39.278 76.042 37.29ZM74.194 36.282L75.23 36.968C73.536 38.844 71.45 39.992 68.958 40.44L68.202 39.432C70.792 39.012 72.794 37.962 74.194 36.282ZM81.6 30.822H85.24V29.492H86.556V30.822H89.664V31.508C90.196 30.948 90.686 30.374 91.134 29.786L92.114 30.528C91.386 31.522 90.56 32.432 89.65 33.258H92.688V34.518H88.11C87.536 34.924 86.948 35.316 86.346 35.68H91.918V36.87H84.96L84.568 38.032H91.246C91.148 40.076 90.924 41.28 90.588 41.672C90.252 42.036 89.58 42.232 88.572 42.232C87.914 42.232 87.326 42.19 86.822 42.134L86.388 40.972C87.102 41.028 87.732 41.07 88.292 41.07C88.978 41.07 89.412 40.958 89.594 40.762C89.734 40.538 89.846 40.006 89.93 39.194H83L83.602 37.066C82.622 37.486 81.6 37.864 80.522 38.186L79.99 36.996C82.174 36.352 84.106 35.526 85.814 34.518H80.564V33.258H85.24V32.04H81.6V30.822ZM87.676 33.258C88.18 32.866 88.67 32.46 89.118 32.04H86.556V33.258H87.676ZM97 33.272C96.44 34.532 95.74 35.582 94.886 36.422L94.018 35.316C95.278 33.986 96.132 32.194 96.58 29.94L97.938 30.178C97.798 30.822 97.644 31.424 97.476 31.984H100.08V29.632H101.41V31.984H105.904V33.272H101.41V36.17H105.624V37.458H101.41V40.65H106.8V41.966H94.382V40.65H100.08V37.458H96.076V36.17H100.08V33.272H97ZM110.02 36.996C109.544 37.472 109.026 37.948 108.466 38.424L108.046 37.024C109.824 35.512 111.028 34.056 111.658 32.628H108.368V31.354H110.356C110.146 30.808 109.908 30.276 109.628 29.758L110.888 29.394C111.196 30.108 111.448 30.766 111.616 31.354H112.988V32.474C112.652 33.468 112.106 34.448 111.378 35.428C112.106 35.876 112.778 36.38 113.394 36.954L112.638 38.102C112.204 37.626 111.77 37.206 111.322 36.842V42.442H110.02V36.996ZM119.974 29.996V37.878H118.63V31.27H115.088V37.878H113.772V29.996H119.974ZM119.554 42.218H118.168C117.328 42.218 116.908 41.756 116.908 40.846V38.522C116.74 39.012 116.558 39.446 116.362 39.838C115.676 41.014 114.584 41.91 113.072 42.554L112.358 41.392C113.828 40.748 114.822 39.922 115.354 38.928C115.858 37.864 116.138 36.492 116.194 34.798V32.152H117.482V34.798C117.44 35.946 117.314 36.968 117.104 37.836H118.196V40.566C118.196 40.846 118.308 41 118.56 41H119.316C119.456 41 119.568 40.93 119.652 40.79C119.736 40.622 119.792 40.146 119.834 39.348L121.066 39.754C120.968 40.944 120.8 41.658 120.576 41.896C120.352 42.106 120.002 42.218 119.554 42.218ZM124.846 29.548H126.148V31.074H127.87V32.32H126.148V33.608H128.052V34.91H122.074V33.608H122.774V30.696H124.048V33.608H124.846V29.548ZM127.156 35.918L128.318 36.184C127.702 39.334 125.896 41.406 122.9 42.4L122.144 41.182C123.656 40.734 124.832 40.006 125.7 39.012H124.79V35.316H126.064V38.536C126.582 37.78 126.946 36.898 127.156 35.918ZM123.124 35.96L124.286 36.422C123.964 37.738 123.544 38.76 123.026 39.474L122.032 38.606C122.522 37.934 122.886 37.052 123.124 35.96ZM128.206 29.996H134.87V31.242H132.168C132.14 31.676 132.098 32.096 132.042 32.488H134.478V39.278H133.19V33.706H129.872V39.278H128.598V32.488H130.656C130.712 32.082 130.754 31.662 130.796 31.242H128.206V29.996ZM132.686 39.222C133.61 39.992 134.394 40.762 135.038 41.518L134.058 42.498C133.526 41.742 132.77 40.944 131.79 40.076L132.686 39.222ZM130.852 34.406H132.14V36.87C132.084 38.396 131.762 39.614 131.174 40.524C130.586 41.364 129.648 42.022 128.332 42.484L127.604 41.322C128.836 40.874 129.676 40.328 130.124 39.67C130.558 38.942 130.796 38.018 130.852 36.87V34.406Z" fill="#F6F6F6"/>
<rect x="182" y="19" width="163" height="34" rx="6" fill="#020800"/>
<path d="M233.274 33.678V42.456H231.958V41.952H225.042V42.456H223.726V33.678H227.52C227.604 33.314 227.66 32.936 227.716 32.544H222.256V31.256H225.63C225.434 30.78 225.21 30.346 224.958 29.926L226.26 29.436C226.54 29.94 226.792 30.556 227.03 31.256H229.9C230.194 30.668 230.46 30.052 230.684 29.408L232 29.87C231.804 30.374 231.594 30.836 231.37 31.256H234.744V32.544H229.13C229.06 32.936 228.976 33.314 228.892 33.678H233.274ZM225.042 40.748H231.958V39.544H225.042V40.748ZM225.042 38.382H231.958V37.206H225.042V38.382ZM225.042 36.058H231.958V34.882H225.042V36.058ZM246.504 31.228H238.804V32.53H246.504V31.228ZM238.804 33.734V34.756C238.79 37.724 238.23 40.272 237.124 42.4L236.088 41.476C236.998 39.74 237.46 37.5 237.474 34.756V29.982H247.848V33.734H238.804ZM246.924 42.246H243.592C242.78 42.246 242.374 41.784 242.374 40.874V39.936L238.888 40.258V39.124L242.374 38.802V37.864L239.532 38.116V36.996L242.374 36.744V35.848C241.492 35.932 240.596 36.002 239.7 36.03L239.322 34.966C242.374 34.798 244.852 34.504 246.756 34.07L247.358 35.078C246.182 35.344 244.964 35.554 243.69 35.708V36.632L247.582 36.282V37.388L243.69 37.738V38.676L248.478 38.242V39.39L243.69 39.824V40.594C243.69 40.888 243.774 41.042 243.97 41.042H246.7C246.952 41.042 247.148 40.986 247.26 40.888C247.4 40.776 247.498 40.426 247.54 39.838L248.702 40.216C248.604 41.196 248.408 41.784 248.128 41.98C247.862 42.148 247.456 42.246 246.924 42.246ZM254.26 39.992H253.574V42.386H252.398V32.824H251.684V40.188H250.508V31.662H252.398V29.604H253.574V31.662H255.464V38.564C255.464 39.516 255.058 39.992 254.26 39.992ZM253.574 32.824V38.9L253.896 38.914C254.148 38.914 254.288 38.704 254.288 38.312V32.824H253.574ZM262.254 32.782V39.292H260.98V33.986H257.382V39.32H256.108V32.782H258.152V29.464H259.482V30.458H262.66V31.676H259.482V32.782H262.254ZM259.958 39.488C261.078 40.02 262.114 40.678 263.066 41.462L262.338 42.554C261.358 41.672 260.336 40.972 259.286 40.468L259.958 39.488ZM258.516 34.7H259.776V36.716C259.72 38.284 259.412 39.544 258.824 40.496C258.236 41.364 257.312 42.05 256.024 42.526L255.324 41.42C256.542 40.958 257.368 40.37 257.802 39.656C258.236 38.9 258.474 37.92 258.516 36.716V34.7ZM267 33.272C266.44 34.532 265.74 35.582 264.886 36.422L264.018 35.316C265.278 33.986 266.132 32.194 266.58 29.94L267.938 30.178C267.798 30.822 267.644 31.424 267.476 31.984H270.08V29.632H271.41V31.984H275.904V33.272H271.41V36.17H275.624V37.458H271.41V40.65H276.8V41.966H264.382V40.65H270.08V37.458H266.076V36.17H270.08V33.272H267ZM280.02 36.996C279.544 37.472 279.026 37.948 278.466 38.424L278.046 37.024C279.824 35.512 281.028 34.056 281.658 32.628H278.368V31.354H280.356C280.146 30.808 279.908 30.276 279.628 29.758L280.888 29.394C281.196 30.108 281.448 30.766 281.616 31.354H282.988V32.474C282.652 33.468 282.106 34.448 281.378 35.428C282.106 35.876 282.778 36.38 283.394 36.954L282.638 38.102C282.204 37.626 281.77 37.206 281.322 36.842V42.442H280.02V36.996ZM289.974 29.996V37.878H288.63V31.27H285.088V37.878H283.772V29.996H289.974ZM289.554 42.218H288.168C287.328 42.218 286.908 41.756 286.908 40.846V38.522C286.74 39.012 286.558 39.446 286.362 39.838C285.676 41.014 284.584 41.91 283.072 42.554L282.358 41.392C283.828 40.748 284.822 39.922 285.354 38.928C285.858 37.864 286.138 36.492 286.194 34.798V32.152H287.482V34.798C287.44 35.946 287.314 36.968 287.104 37.836H288.196V40.566C288.196 40.846 288.308 41 288.56 41H289.316C289.456 41 289.568 40.93 289.652 40.79C289.736 40.622 289.792 40.146 289.834 39.348L291.066 39.754C290.968 40.944 290.8 41.658 290.576 41.896C290.352 42.106 290.002 42.218 289.554 42.218ZM294.846 29.548H296.148V31.074H297.87V32.32H296.148V33.608H298.052V34.91H292.074V33.608H292.774V30.696H294.048V33.608H294.846V29.548ZM297.156 35.918L298.318 36.184C297.702 39.334 295.896 41.406 292.9 42.4L292.144 41.182C293.656 40.734 294.832 40.006 295.7 39.012H294.79V35.316H296.064V38.536C296.582 37.78 296.946 36.898 297.156 35.918ZM293.124 35.96L294.286 36.422C293.964 37.738 293.544 38.76 293.026 39.474L292.032 38.606C292.522 37.934 292.886 37.052 293.124 35.96ZM298.206 29.996H304.87V31.242H302.168C302.14 31.676 302.098 32.096 302.042 32.488H304.478V39.278H303.19V33.706H299.872V39.278H298.598V32.488H300.656C300.712 32.082 300.754 31.662 300.796 31.242H298.206V29.996ZM302.686 39.222C303.61 39.992 304.394 40.762 305.038 41.518L304.058 42.498C303.526 41.742 302.77 40.944 301.79 40.076L302.686 39.222ZM300.852 34.406H302.14V36.87C302.084 38.396 301.762 39.614 301.174 40.524C300.586 41.364 299.648 42.022 298.332 42.484L297.604 41.322C298.836 40.874 299.676 40.328 300.124 39.67C300.558 38.942 300.796 38.018 300.852 36.87V34.406Z" fill="#959595"/>
<path d="M16.696 74.676H20.704C20.896 74.424 21.052 74.16 21.172 73.896C20.14 73.932 19.06 73.968 17.956 73.992L17.788 73.008C18.484 72.912 19.456 72.252 20.704 71.052L21.832 71.436C21.22 72.036 20.608 72.564 19.984 72.996C21.316 72.948 22.612 72.888 23.872 72.804C23.584 72.54 23.272 72.288 22.96 72.036L23.836 71.484C25.012 72.372 25.912 73.152 26.536 73.812L25.588 74.472C25.372 74.22 25.132 73.968 24.868 73.716C24.052 73.764 23.2 73.8 22.336 73.848C22.216 74.136 22.084 74.412 21.928 74.676H27.268V75.708H24.508C25.216 76.308 26.224 76.776 27.544 77.124L27.052 78.168C25.3 77.532 24.04 76.716 23.26 75.708H21.136C20.176 76.716 18.784 77.556 16.972 78.204L16.456 77.196C17.8 76.812 18.868 76.32 19.672 75.708H16.696V74.676ZM21.928 75.948L22.816 76.476C22.012 77.484 20.764 78.288 19.06 78.888L18.556 78C20.092 77.484 21.208 76.8 21.928 75.948ZM25.036 77.82L26.032 78.264C24.928 80.232 22.516 81.612 18.82 82.392L18.172 81.504C21.772 80.76 24.052 79.524 25.036 77.82ZM23.452 76.956L24.34 77.544C22.888 79.152 21.1 80.136 18.964 80.52L18.316 79.656C20.536 79.296 22.252 78.396 23.452 76.956ZM29.8 72.276H32.92V71.136H34.048V72.276H36.712V72.864C37.168 72.384 37.588 71.892 37.972 71.388L38.812 72.024C38.188 72.876 37.48 73.656 36.7 74.364H39.304V75.444H35.38C34.888 75.792 34.384 76.128 33.868 76.44H38.644V77.46H32.68L32.344 78.456H38.068C37.984 80.208 37.792 81.24 37.504 81.576C37.216 81.888 36.64 82.056 35.776 82.056C35.212 82.056 34.708 82.02 34.276 81.972L33.904 80.976C34.516 81.024 35.056 81.06 35.536 81.06C36.124 81.06 36.496 80.964 36.652 80.796C36.772 80.604 36.868 80.148 36.94 79.452H31L31.516 77.628C30.676 77.988 29.8 78.312 28.876 78.588L28.42 77.568C30.292 77.016 31.948 76.308 33.412 75.444H28.912V74.364H32.92V73.32H29.8V72.276ZM35.008 74.364C35.44 74.028 35.86 73.68 36.244 73.32H34.048V74.364H35.008ZM44.716 72.768L45.724 72.9C45.652 73.092 45.568 73.272 45.484 73.44H48.568V74.208C48.268 74.796 47.8 75.312 47.176 75.768C47.92 76.104 48.76 76.368 49.708 76.584L49.12 77.436C48.004 77.136 47.044 76.776 46.228 76.344C45.316 76.8 44.2 77.172 42.88 77.472L42.388 76.56C43.54 76.368 44.524 76.116 45.316 75.78C44.932 75.516 44.596 75.24 44.308 74.952C43.984 75.24 43.612 75.516 43.204 75.78L42.58 74.952C43.636 74.352 44.344 73.62 44.716 72.768ZM46.252 75.312C46.744 75 47.14 74.652 47.428 74.268H44.944C44.92 74.292 44.896 74.304 44.896 74.328C45.28 74.688 45.736 75.024 46.252 75.312ZM43.924 78.54C45.508 78.828 47.02 79.224 48.484 79.752L48.112 80.664C46.624 80.124 45.088 79.704 43.492 79.392L43.924 78.54ZM45.148 76.92C46.108 77.208 46.996 77.544 47.788 77.94L47.26 78.756C46.408 78.288 45.532 77.928 44.632 77.664L45.148 76.92ZM51.016 71.604V82.236H49.9V81.816H42.1V82.236H40.984V71.604H51.016ZM42.1 80.808H49.9V72.612H42.1V80.808Z" fill="#B1B1B1"/>
<rect x="16.5" y="94.5" width="76" height="76" rx="7.5" fill="#131313"/>
<rect x="16.5" y="94.5" width="76" height="76" rx="7.5" stroke="#686868" stroke-dasharray="3 3"/>
<g clip-path="url(#clip0_2565_69895)">
<g clip-path="url(#clip1_2565_69895)">
<path d="M54.4951 114V126" stroke="#E9E9E7" stroke-width="1.5" stroke-linecap="round"/>
<path d="M60.5 119.996L48.5 119.996" stroke="#E9E9E7" stroke-width="1.5" stroke-linecap="round"/>
</g>
</g>
<path d="M46.156 138.382L47.052 138.494C46.94 138.76 46.828 139.012 46.688 139.264H50.384V139.964C49.992 140.706 49.404 141.364 48.606 141.924C49.544 142.372 50.608 142.75 51.812 143.03L51.28 143.786C49.922 143.422 48.76 142.974 47.78 142.428C46.702 143.002 45.372 143.464 43.776 143.814L43.328 143.002C44.77 142.75 45.988 142.386 46.968 141.924C46.422 141.56 45.946 141.168 45.554 140.748C45.134 141.14 44.658 141.504 44.126 141.84L43.566 141.112C44.84 140.356 45.708 139.446 46.156 138.382ZM47.78 141.49C48.466 141.07 48.998 140.58 49.376 140.02H46.198C46.142 140.076 46.1 140.132 46.072 140.188C46.562 140.664 47.136 141.098 47.78 141.49ZM45.008 145.256C46.87 145.606 48.662 146.11 50.37 146.754L50.034 147.566C48.298 146.894 46.492 146.376 44.616 146.012L45.008 145.256ZM46.464 143.296C47.556 143.66 48.564 144.108 49.474 144.612L48.998 145.34C48.032 144.752 47.038 144.304 46.002 143.968L46.464 143.296ZM53.212 137.178V149.4H52.232V148.826H42.768V149.4H41.788V137.178H53.212ZM42.768 147.93H52.232V138.074H42.768V147.93ZM58.84 141.252V142.092C58.826 142.61 58.798 143.1 58.77 143.562H65.28V149.428H64.272V144.542H58.644C58.308 146.642 57.538 148.266 56.348 149.386L55.578 148.714C57.048 147.328 57.79 145.116 57.818 142.092V136.954H58.84V140.286H62.942V136.562H63.936V140.286H67.086V141.252H58.84Z" fill="#E9E9E7"/>
<path d="M17.98 197.092H16.9L16.72 196.252C17.056 196.276 17.368 196.3 17.68 196.3C17.968 196.3 18.124 196.144 18.124 195.844V192.916C17.668 193.096 17.2 193.264 16.732 193.408L16.528 192.544C17.068 192.412 17.596 192.244 18.124 192.04V189.328H16.672V188.5H18.124V186.232H19.012V188.5H20.224V189.328H19.012V191.668C19.36 191.5 19.708 191.332 20.044 191.14V192.016C19.708 192.196 19.36 192.364 19.012 192.532V196.072C19.012 196.744 18.664 197.092 17.98 197.092ZM21.16 186.616H26.392V190.78H21.16V186.616ZM25.552 190.072V189.04H22V190.072H25.552ZM22 188.368H25.552V187.324H22V188.368ZM20.32 191.62H27.184V192.388H24.184V193.744H26.692V194.524H24.184V196.072C24.664 196.144 25.228 196.18 25.888 196.18C26.512 196.18 27.052 196.156 27.496 196.12L27.256 196.96C26.776 196.96 26.332 196.948 25.948 196.948C24.364 196.936 23.284 196.78 22.708 196.492C22.252 196.252 21.832 195.796 21.472 195.124C21.184 195.868 20.788 196.552 20.272 197.176L19.636 196.624C20.548 195.52 21.052 194.272 21.148 192.904L21.916 192.988C21.892 193.42 21.832 193.828 21.736 194.236C22.12 195.04 22.564 195.556 23.068 195.784C23.152 195.82 23.248 195.856 23.356 195.892V192.388H20.32V191.62ZM33.364 197.056H31.816L31.636 196.216C32.14 196.24 32.608 196.264 33.064 196.264C33.424 196.264 33.604 196.084 33.604 195.748V190.756H28.888V189.904H39.112V190.756H34.48V195.964C34.48 196.684 34.108 197.056 33.364 197.056ZM30.736 192.076L31.588 192.256C31.084 193.912 30.388 195.34 29.476 196.54L28.72 196.072C29.644 194.872 30.316 193.54 30.736 192.076ZM37.072 191.956C37.888 193.252 38.608 194.62 39.208 196.084L38.416 196.444C37.768 194.848 37.06 193.444 36.292 192.22L37.072 191.956ZM29.992 186.856H38.044V187.696H29.992V186.856ZM49.744 197.152H48.364L48.148 196.324L49.564 196.348C49.96 196.348 50.164 196.132 50.164 195.7V187.516H44.428V186.7H51.016V195.952C51.016 196.744 50.584 197.152 49.744 197.152ZM44.704 188.932H49.336V189.76H44.704V188.932ZM45.136 191.068H48.856V194.788H45.136V191.068ZM48.04 194.032V191.824H45.976V194.032H48.04ZM41.944 186.316C42.76 186.928 43.444 187.54 43.996 188.164L43.408 188.764C42.904 188.176 42.208 187.552 41.344 186.904L41.944 186.316ZM40.528 189.868H43.096V195.124C43.444 194.8 43.816 194.428 44.224 194.008L44.452 194.932C43.792 195.616 43.084 196.228 42.34 196.756L42.004 195.988C42.172 195.832 42.268 195.664 42.268 195.472V190.696H40.528V189.868Z" fill="#B1B1B1"/>
<path d="M58.616 187.432H59.456L59.372 189.772L61.508 188.956L61.772 189.748L59.564 190.408L61.052 192.172L60.404 192.688L59.036 190.792L57.668 192.688L57.02 192.172L58.508 190.408L56.3 189.748L56.564 188.956L58.712 189.772L58.616 187.432Z" fill="#E94140"/>
<path d="M16 217C16 212.582 19.5817 209 24 209H340C344.418 209 348 212.582 348 217V329H16V217Z" fill="#131313"/>
<path d="M36.596 222.562H37.562V223.472H41.034V224.298H37.562V225.236H40.53V226.048H37.562V227H41.384V227.84H32.816V227H36.596V226.048H33.768V225.236H36.596V224.298H33.208V223.472H36.596V222.562ZM34.846 231.368V232.39H39.368V231.368H34.846ZM39.368 230.584V229.548H34.846V230.584H39.368ZM34.846 233.174V235.4H33.88V228.722H40.334V234.182C40.334 234.938 39.928 235.316 39.144 235.316H37.968L37.73 234.42L38.85 234.462C39.186 234.462 39.368 234.294 39.368 233.972V233.174H34.846ZM30.282 222.716C31.22 223.416 32.004 224.13 32.648 224.844L31.962 225.544C31.374 224.872 30.576 224.158 29.568 223.402L30.282 222.716ZM28.588 226.846H31.556V232.992C31.976 232.6 32.41 232.166 32.886 231.676L33.152 232.74C32.368 233.552 31.528 234.28 30.66 234.91L30.268 234.014C30.478 233.818 30.59 233.608 30.59 233.37V227.812H28.588V226.846ZM45.206 226.454H46.144V228.54H47.432V229.45H46.144V231.34C46.62 231.228 47.054 231.116 47.474 231.004V231.956L46.144 232.292V235.4H45.206V232.502C44.408 232.656 43.582 232.796 42.728 232.922L42.602 231.942C43.526 231.83 44.394 231.69 45.206 231.536V229.45H43.022L42.812 228.61C43.204 227.77 43.554 226.72 43.876 225.474H42.714V224.522H44.1C44.24 223.878 44.366 223.22 44.492 222.52L45.416 222.73C45.29 223.36 45.164 223.962 45.038 224.522H47.502V225.474H44.8C44.492 226.622 44.17 227.644 43.82 228.54H45.206V226.454ZM49.336 225.74C48.804 226.23 48.272 226.692 47.726 227.112L47.18 226.272C48.608 225.222 49.896 223.99 51.03 222.59H51.758C52.976 224.102 54.222 225.292 55.496 226.188L54.964 226.986C53.648 226.034 52.458 224.872 51.394 223.5C50.722 224.312 50.05 225.054 49.35 225.726H53.354V226.566H49.336V225.74ZM50.316 235.302H49.644L49.42 234.476L50.036 234.504C50.344 234.504 50.498 234.35 50.498 234.042V232.782H48.93V235.4H48.048V227.686H51.352V234.224C51.352 234.938 51.002 235.302 50.316 235.302ZM48.93 231.998H50.498V230.668H48.93V231.998ZM48.93 229.884H50.498V228.498H48.93V229.884ZM52.192 228.078H52.976V233.104H52.192V228.078ZM53.718 235.33H52.528L52.318 234.448C52.696 234.476 53.06 234.504 53.41 234.504C53.704 234.504 53.858 234.294 53.858 233.902V227.448H54.74V234.126C54.74 234.924 54.39 235.33 53.718 235.33ZM62.384 225.81C61.74 224.634 60.97 223.738 60.074 223.094L60.914 222.562C62.16 223.43 63.21 225.012 64.078 227.28C65.394 230.626 67.144 232.992 69.356 234.378L68.726 235.19C66.458 233.818 64.61 231.27 63.168 227.574C63.084 227.35 63.014 227.154 62.944 226.986C62.02 230.556 60.088 233.3 57.148 235.204L56.546 234.35C59.542 232.39 61.488 229.534 62.384 225.81ZM82.824 227.322V235.372H81.844V234.784H76.818V235.372H75.838V227.322H82.824ZM76.818 233.846H78.876V231.536H76.818V233.846ZM79.8 233.846H81.844V231.536H79.8V233.846ZM76.818 230.626H78.876V228.26H76.818V230.626ZM79.8 228.26V230.626H81.844V228.26H79.8ZM72.324 235.218H71.036L70.826 234.252C71.218 234.294 71.61 234.322 71.974 234.322C72.324 234.322 72.506 234.126 72.506 233.762V230.318C71.918 230.542 71.316 230.752 70.728 230.948L70.476 229.94C71.162 229.758 71.834 229.548 72.506 229.296V226.09H70.742V225.11H72.506V222.548H73.514V225.11H74.872V226.09H73.514V228.89C74.046 228.652 74.564 228.386 75.068 228.106V229.114C74.55 229.394 74.032 229.646 73.514 229.884V234.014C73.514 234.812 73.108 235.218 72.324 235.218ZM77.14 222.59H78.092V224.186H80.528V222.59H81.48V224.186H83.328V225.124H81.48V226.692H80.528V225.124H78.092V226.678H77.14V225.124H75.292V224.186H77.14V222.59ZM94.234 227.014C95.536 228.75 96.53 230.248 97.216 231.536L96.39 232.124C95.676 230.724 94.71 229.184 93.492 227.49L94.234 227.014ZM85.708 222.786C86.66 223.514 87.472 224.228 88.13 224.956L87.416 225.67C86.828 224.984 86.03 224.242 85.008 223.444L85.708 222.786ZM93.954 235.148C93.198 235.148 92.372 235.134 91.49 235.12C90.594 235.106 89.866 235.022 89.306 234.868C88.746 234.7 88.256 234.35 87.836 233.846C87.64 233.608 87.458 233.496 87.29 233.496C86.954 233.496 86.408 234.14 85.638 235.428L84.882 234.742C85.624 233.566 86.282 232.852 86.856 232.6V228.344H84.854V227.42H87.794V232.656C87.906 232.74 88.018 232.852 88.13 232.978C88.466 233.384 88.816 233.678 89.208 233.86C89.642 234.056 90.272 234.168 91.084 234.196C91.812 234.21 92.722 234.224 93.814 234.224C94.458 234.224 95.13 234.21 95.816 234.196C96.488 234.182 97.006 234.168 97.37 234.14L97.132 235.148H93.954ZM91.77 226.16H88.606V225.222H92.386V222.646H93.366V225.222H97.132V226.16H93.366V233.524H92.386V226.944C91.49 229.03 90.398 230.78 89.082 232.208L88.41 231.424C89.768 230.052 90.888 228.302 91.77 226.16ZM95.34 222.576C95.788 223.178 96.18 223.822 96.516 224.508L95.718 224.872C95.354 224.102 94.948 223.43 94.514 222.842L95.34 222.576ZM109.368 235.344H107.758L107.506 234.378L109.158 234.406C109.62 234.406 109.858 234.154 109.858 233.65V224.102H103.166V223.15H110.852V233.944C110.852 234.868 110.348 235.344 109.368 235.344ZM103.488 225.754H108.892V226.72H103.488V225.754ZM103.992 228.246H108.332V232.586H103.992V228.246ZM107.38 231.704V229.128H104.972V231.704H107.38ZM100.268 222.702C101.22 223.416 102.018 224.13 102.662 224.858L101.976 225.558C101.388 224.872 100.576 224.144 99.568 223.388L100.268 222.702ZM98.616 226.846H101.612V232.978C102.018 232.6 102.452 232.166 102.928 231.676L103.194 232.754C102.424 233.552 101.598 234.266 100.73 234.882L100.338 233.986C100.534 233.804 100.646 233.608 100.646 233.384V227.812H98.616V226.846Z" fill="#959595"/>
<path d="M16 329H348V357C348 361.418 344.418 365 340 365H24C19.5817 365 16 361.418 16 357V329Z" fill="#131313"/>
<g clip-path="url(#clip2_2565_69895)">
<g clip-path="url(#clip3_2565_69895)">
<path d="M227.875 340.75H229.125C231 340.75 232.25 342 232.25 343.875V345.125" stroke="#E9E9E7" stroke-width="1.5" stroke-linecap="round" stroke-linejoin="round"/>
<path d="M225.933 346.999C225.043 346.971 224.333 346.232 224.333 345.333C224.333 344.414 225.081 343.666 226 343.666C226.918 343.666 227.666 344.414 227.666 345.333C227.657 346.242 226.947 346.971 226.056 346.999C226.019 346.999 225.971 346.999 225.933 346.999Z" stroke="#E9E9E7" stroke-width="1.5" stroke-linecap="round" stroke-linejoin="round"/>
<path d="M228.5 350.203C227.25 348.328 224.75 348.328 223.5 350.203" stroke="#E9E9E7" stroke-width="1.5" stroke-linecap="round" stroke-linejoin="round"/>
<path d="M219.75 345.125V343.875C219.75 342 221 340.75 222.875 340.75H224.125" stroke="#E9E9E7" stroke-width="1.5" stroke-linecap="round" stroke-linejoin="round"/>
<path d="M227.875 353.25H229.125C231 353.25 232.25 352 232.25 350.125V348.875" stroke="#E9E9E7" stroke-width="1.5" stroke-linecap="round" stroke-linejoin="round"/>
<path d="M219.75 348.875V350.125C219.75 352 221 353.25 222.875 353.25H224.125" stroke="#E9E9E7" stroke-width="1.5" stroke-linecap="round" stroke-linejoin="round"/>
</g>
</g>
<g clip-path="url(#clip4_2565_69895)">
<path d="M254.395 342.5H257.446C257.888 342.5 258.108 342.726 258.108 343.18V343.32C258.108 343.773 257.888 344 257.446 344H254.395C253.954 344 253.734 343.773 253.734 343.32V343.18C253.734 342.727 253.953 342.5 254.395 342.5ZM247.416 342H251.304C251.951 342 252.276 342.333 252.276 343C252.276 343.666 251.951 344 251.304 344H247.416C246.768 344 246.444 343.666 246.444 343C246.444 342.333 246.768 342 247.416 342ZM245.195 345.5H246.891C247.354 345.5 247.586 345.739 247.586 346.215V346.285C247.586 346.762 247.354 347 246.891 347H245.195C244.732 347 244.5 346.762 244.5 346.285V346.214C244.5 345.738 244.732 345.5 245.195 345.5ZM255.192 351.5H257.136C257.459 351.5 257.622 351.667 257.622 352C257.622 352.334 257.459 352.5 257.136 352.5H255.192C254.867 352.5 254.706 352.333 254.706 352C254.706 351.667 254.869 351.5 255.192 351.5ZM252.251 340.5H255.702C256.01 340.5 256.163 340.659 256.163 340.975V341.025C256.163 341.342 256.01 341.5 255.702 341.5H252.251C251.944 341.5 251.79 341.342 251.79 341.025V340.975C251.79 340.659 251.944 340.5 252.251 340.5ZM247.902 351.5H252.276C252.924 351.5 253.248 351.833 253.248 352.5C253.248 353.166 252.923 353.5 252.276 353.5H247.902C247.254 353.5 246.93 353.166 246.93 352.5C246.93 351.833 247.254 351.5 247.902 351.5ZM252.761 348.5H258.108C258.755 348.5 259.079 348.834 259.079 349.5C259.079 350.166 258.755 350.5 258.108 350.5H252.761C252.114 350.5 251.79 350.166 251.79 349.5C251.79 348.833 252.114 348.5 252.761 348.5ZM249.909 347.565C249.785 347.568 249.662 347.544 249.547 347.496C249.433 347.448 249.329 347.376 249.243 347.285C248.996 347.03 249.005 346.715 249.005 346.285C249.005 345.855 249.005 345.53 249.243 345.285C249.417 345.099 249.658 344.995 249.91 345.001C250.13 344.989 250.347 345.064 250.515 345.21C250.684 345.357 250.792 345.564 250.818 345.79H250.332C250.317 345.688 250.267 345.596 250.191 345.53C250.115 345.464 250.018 345.429 249.919 345.43C249.86 345.427 249.802 345.438 249.748 345.461C249.694 345.485 249.646 345.52 249.607 345.565C249.516 345.67 249.485 345.79 249.485 346.28C249.485 346.77 249.516 346.885 249.607 346.99C249.646 347.035 249.694 347.07 249.748 347.094C249.802 347.117 249.86 347.128 249.919 347.125C250.124 347.128 250.3 346.974 250.332 346.765H250.818C250.795 346.993 250.688 347.203 250.518 347.352C250.349 347.5 250.131 347.577 249.909 347.565ZM251.144 347.545V345H251.63V347.1H252.761V347.545H251.144ZM254.443 347.285C254.263 347.459 254.025 347.557 253.778 347.557C253.53 347.557 253.292 347.459 253.112 347.285C252.864 347.03 252.869 346.715 252.869 346.285C252.869 345.855 252.869 345.53 253.112 345.285C253.293 345.111 253.531 345.014 253.778 345.014C254.025 345.014 254.263 345.111 254.443 345.285C254.691 345.54 254.686 345.855 254.686 346.285C254.686 346.715 254.706 347.029 254.443 347.285ZM254.088 345.565C254.048 345.522 254 345.488 253.946 345.464C253.893 345.441 253.836 345.429 253.778 345.429C253.72 345.429 253.662 345.441 253.609 345.464C253.555 345.488 253.507 345.522 253.467 345.565C253.374 345.675 253.35 345.79 253.35 346.28C253.35 346.77 253.374 346.88 253.467 346.99C253.507 347.033 253.555 347.067 253.609 347.09C253.662 347.114 253.72 347.126 253.778 347.126C253.836 347.126 253.893 347.114 253.946 347.09C254 347.067 254.048 347.033 254.088 346.99C254.181 346.88 254.21 346.764 254.21 346.279C254.21 345.795 254.181 345.675 254.088 345.565ZM255.959 347.565C255.842 347.573 255.725 347.555 255.614 347.513C255.504 347.472 255.403 347.407 255.318 347.324C255.233 347.24 255.166 347.139 255.121 347.027C255.076 346.916 255.054 346.796 255.056 346.675V345H255.542V346.65C255.536 346.711 255.543 346.772 255.561 346.831C255.58 346.889 255.611 346.943 255.651 346.988C255.691 347.033 255.74 347.07 255.794 347.095C255.849 347.119 255.908 347.132 255.967 347.132C256.027 347.132 256.086 347.119 256.14 347.095C256.195 347.07 256.244 347.033 256.284 346.988C256.324 346.943 256.354 346.889 256.373 346.831C256.392 346.772 256.398 346.711 256.393 346.65V345H256.878V346.666C256.882 346.789 256.861 346.911 256.815 347.025C256.77 347.139 256.702 347.242 256.615 347.327C256.528 347.412 256.425 347.477 256.312 347.518C256.2 347.56 256.08 347.576 255.96 347.566L255.959 347.565ZM258.852 347.3C258.766 347.384 258.664 347.448 258.553 347.49C258.442 347.532 258.324 347.551 258.205 347.545H257.316V345H258.205C258.444 344.988 258.676 345.077 258.851 345.245C259.071 345.526 259.162 345.89 259.104 346.245C259.17 346.618 259.078 347.002 258.852 347.3ZM258.516 345.61C258.473 345.556 258.419 345.514 258.357 345.487C258.295 345.461 258.228 345.449 258.161 345.455H257.797V347.1H258.161C258.228 347.106 258.295 347.095 258.357 347.068C258.419 347.041 258.473 346.998 258.516 346.945C258.608 346.83 258.623 346.65 258.623 346.265C258.623 345.881 258.594 345.725 258.516 345.61ZM246.327 350.32C246.263 350.383 246.186 350.432 246.103 350.463C246.019 350.493 245.93 350.506 245.841 350.5H245.199V348.635H245.85C245.939 348.629 246.028 348.641 246.112 348.672C246.195 348.703 246.272 348.752 246.336 348.815C246.499 349.025 246.566 349.296 246.521 349.56C246.542 349.693 246.535 349.83 246.502 349.961C246.468 350.092 246.41 350.214 246.327 350.32ZM246.084 349.075C246.051 349.036 246.01 349.005 245.963 348.985C245.917 348.965 245.867 348.957 245.817 348.96H245.55V350.175H245.817C245.867 350.178 245.917 350.17 245.964 350.15C246.01 350.13 246.051 350.099 246.084 350.06C246.148 349.975 246.157 349.845 246.157 349.56C246.157 349.275 246.147 349.16 246.084 349.075ZM247.902 350.5L247.795 350.17H247.124L247.017 350.5H246.648L247.309 348.635H247.586L248.247 350.5H247.902ZM247.479 349.185L247.25 349.865H247.703L247.479 349.185ZM249.005 348.959V350.5H248.656V348.96H248.169V348.634H249.472V348.96L249.005 348.959ZM250.643 350.5L250.536 350.17H249.894L249.788 350.5H249.418L250.075 348.635H250.332L251.012 350.5H250.643ZM250.221 349.185L249.992 349.865H250.443L250.221 349.185Z" fill="#E9E9E7"/>
</g>
<g clip-path="url(#clip5_2565_69895)">
<g clip-path="url(#clip6_2565_69895)">
<path d="M282.508 344.743L280.258 342.493L281.375 341.375C281.69 341.06 282.095 340.91 282.5 340.91C282.905 340.91 283.31 341.06 283.625 341.375C284.248 341.998 284.248 343.003 283.625 343.625L282.508 344.743Z" fill="#E9E9E7"/>
<path d="M273.875 353.375C273.253 353.998 272.248 353.998 271.625 353.375C271.003 352.753 271.003 351.748 271.625 351.125L279.733 343.025L281.983 345.275L273.875 353.375Z" fill="#E9E9E7"/>
<path d="M276.77 339.583C276.8 339.485 276.77 339.38 276.703 339.305C276.635 339.23 276.515 339.2 276.418 339.23L275.375 339.538L274.333 339.23C274.235 339.2 274.13 339.23 274.055 339.298C273.98 339.373 273.958 339.478 273.988 339.575L274.288 340.625L273.98 341.668C273.95 341.765 273.98 341.87 274.048 341.945C274.123 342.02 274.228 342.043 274.325 342.013L275.375 341.713L276.418 342.02C276.448 342.028 276.47 342.035 276.5 342.035C276.575 342.035 276.643 342.005 276.703 341.953C276.778 341.878 276.8 341.773 276.77 341.675L276.463 340.625L276.77 339.583Z" fill="#E9E9E7"/>
<path d="M273.77 344.083C273.8 343.985 273.77 343.88 273.703 343.805C273.628 343.73 273.523 343.708 273.425 343.738L272.375 344.038L271.333 343.73C271.235 343.7 271.13 343.73 271.055 343.798C270.98 343.873 270.958 343.978 270.988 344.075L271.288 345.125L270.98 346.168C270.95 346.265 270.98 346.37 271.048 346.445C271.123 346.52 271.228 346.543 271.325 346.513L272.368 346.205L273.41 346.513C273.433 346.52 273.463 346.52 273.493 346.52C273.568 346.52 273.635 346.49 273.695 346.438C273.77 346.363 273.793 346.258 273.763 346.16L273.463 345.125L273.77 344.083Z" fill="#E9E9E7"/>
<path d="M285.02 347.832C285.05 347.735 285.02 347.63 284.953 347.555C284.878 347.48 284.773 347.457 284.675 347.487L283.633 347.795L282.59 347.487C282.493 347.457 282.388 347.487 282.313 347.555C282.238 347.63 282.215 347.735 282.245 347.832L282.553 348.875L282.245 349.917C282.215 350.015 282.245 350.12 282.313 350.195C282.388 350.27 282.493 350.292 282.59 350.262L283.633 349.955L284.675 350.262C284.698 350.27 284.728 350.27 284.758 350.27C284.833 350.27 284.9 350.24 284.96 350.187C285.035 350.112 285.058 350.007 285.028 349.91L284.713 348.875L285.02 347.832Z" fill="#E9E9E7"/>
</g>
</g>
<g clip-path="url(#clip7_2565_69895)">
<g clip-path="url(#clip8_2565_69895)">
<path d="M310 346.766L310 349.233C310 352.399 308.733 353.666 305.566 353.666L301.766 353.666C298.6 353.666 297.333 352.399 297.333 349.233L297.333 345.433C297.333 342.266 298.6 340.999 301.766 340.999L304.233 340.999" stroke="#E9E9E7" stroke-width="1.5" stroke-linecap="round" stroke-linejoin="round"/>
<path d="M300.223 346.06C302.323 345.014 304.789 345.014 306.889 346.06" stroke="#E9E9E7" stroke-width="1.5" stroke-linecap="round" stroke-linejoin="round"/>
<path d="M303.556 351V345.42" stroke="#E9E9E7" stroke-width="1.5" stroke-linecap="round" stroke-linejoin="round"/>
<path d="M307.539 341.136L308.445 338.889L309.219 341.184L311.466 342.09L309.171 342.865L308.265 345.111L307.49 342.816L305.244 341.91L307.539 341.136Z" fill="#E9E9E7"/>
</g>
</g>
<g clip-path="url(#clip9_2565_69895)">
<g clip-path="url(#clip10_2565_69895)">
<path d="M332 353.667C335.333 353.667 336.666 352.334 336.666 349.001V345.001C336.666 341.667 335.333 340.334 332 340.334H328C324.666 340.334 323.333 341.667 323.333 345.001V349.001C323.333 352.334 324.666 353.667 328 353.667H332Z" stroke="#E9E9E7" stroke-width="1.5" stroke-linecap="round" stroke-linejoin="round"/>
<path d="M334 343L326 351" stroke="#E9E9E7" stroke-width="1.5" stroke-linecap="round" stroke-linejoin="round"/>
<path d="M334 345.667V343H331.333" stroke="#E9E9E7" stroke-width="1.5" stroke-linecap="round" stroke-linejoin="round"/>
<path d="M326 348.334V351.001H328.667" stroke="#E9E9E7" stroke-width="1.5" stroke-linecap="round" stroke-linejoin="round"/>
</g>
</g>
<rect x="16" y="377" width="332" height="40" rx="8" fill="#131313"/>
<path d="M32.886 391.724H34.93V390.604H35.868V391.724H38.122V390.604H39.074V391.724H41.244V392.62H39.074V393.67H38.122V392.62H35.868V393.67H34.93V392.62H32.886V391.724ZM36.82 400.516C36.652 400.866 36.442 401.188 36.218 401.468C35.574 402.28 34.454 402.91 32.844 403.372L32.48 402.532C33.88 402.154 34.874 401.608 35.49 400.894C35.63 400.712 35.77 400.53 35.882 400.334H32.62V399.41H36.302C36.414 399.074 36.498 398.71 36.568 398.346H33.628V394.104H40.334V398.346H37.464C37.408 398.738 37.324 399.088 37.24 399.41H41.272V400.334H37.73C38.542 401.286 39.774 402.056 41.426 402.644L40.754 403.442C38.934 402.658 37.632 401.692 36.82 400.516ZM31.528 396.232V403.358H30.576V396.386C30.142 397.702 29.596 398.906 28.924 399.984L28.49 398.892C29.456 397.548 30.156 396.036 30.576 394.328V394.244H28.952V393.334H30.576V390.618H31.528V393.334H32.998V394.244H31.528V395.168C32.13 395.896 32.746 396.736 33.39 397.674L32.858 398.472C32.34 397.548 31.892 396.806 31.528 396.232ZM39.424 397.562V396.61H34.538V397.562H39.424ZM34.538 395.854H39.424V394.916H34.538V395.854ZM43.302 391.192H49.882V392.088H48.468V394.188H50.19V395.112H48.468V398.192H47.488V395.112H45.654C45.5 396.554 44.968 397.632 44.044 398.36L43.288 397.702C44.072 397.114 44.534 396.26 44.674 395.112H42.938V394.188H44.73V392.088H43.302V391.192ZM45.696 392.088V394.188H47.488V392.088H45.696ZM51.016 391.514H51.982V396.33H51.016V391.514ZM43.638 399.564H48.552V398.346H49.56V399.564H54.376V400.488H49.56V402.126H55.146V403.05H42.854V402.126H48.552V400.488H43.638V399.564ZM53.396 398.318H51.52L51.31 397.366C51.926 397.408 52.5 397.436 53.06 397.436C53.382 397.436 53.55 397.212 53.55 396.792V390.744H54.516V397.03C54.516 397.884 54.138 398.318 53.396 398.318Z" fill="#B1B1B1"/>
<rect x="64" y="390" width="1" height="14" fill="#2B2B2B"/>
<path d="M90.1437 394.289C90.1637 394.692 90.0783 395.079 89.9763 395.464C89.9647 395.508 89.9786 395.576 90.0078 395.61C90.5324 396.226 90.8607 396.93 90.9659 397.727C91.2206 399.657 90.0293 401.573 88.0428 402.13C87.8257 402.19 87.7209 402.283 87.6355 402.484C87.103 403.74 86.1605 404.542 84.8224 404.881C84.2955 405.014 83.7635 405.033 83.2213 404.951C82.4853 404.839 81.8364 404.551 81.2613 404.094C81.1239 403.984 81.006 403.851 80.8711 403.738C80.8278 403.702 80.7537 403.67 80.702 403.68C80.0073 403.806 79.321 403.771 78.6563 403.541C77.3271 403.082 76.4551 402.175 76.0214 400.856C75.8629 400.375 75.8231 399.877 75.8637 399.378C75.8869 399.094 75.9741 398.815 76.0268 398.533C76.035 398.49 76.0273 398.428 76.0003 398.396C75.5265 397.842 75.2093 397.213 75.0719 396.5C74.7622 394.894 75.4705 393.267 76.8503 392.36C77.2419 392.103 77.6712 391.921 78.1337 391.822C78.2208 391.803 78.2671 391.756 78.2991 391.671C78.7271 390.53 79.5134 389.725 80.6589 389.276C81.2501 389.045 81.8663 388.96 82.508 389.017C83.3466 389.091 84.0858 389.386 84.7369 389.903C84.8746 390.012 84.9917 390.147 85.1264 390.26C85.1699 390.296 85.2442 390.327 85.297 390.318C86.3699 390.135 87.3691 390.319 88.2837 390.906C89.1247 391.445 89.683 392.199 89.9778 393.142C90.0944 393.515 90.1628 393.897 90.1439 394.289H90.1437ZM78.0532 392.95C78.0126 392.958 77.9834 392.959 77.9581 392.969C77.4407 393.181 77.0067 393.503 76.6742 393.948C76.2175 394.56 76.0055 395.247 76.082 396.008C76.1828 397.011 76.6698 397.785 77.5397 398.314C77.9495 398.563 78.3726 398.791 78.7892 399.029C79.4446 399.404 80.0999 399.778 80.7542 400.154C80.8325 400.199 80.8981 400.202 80.9803 400.154C81.2729 399.981 81.5705 399.815 81.8656 399.646C81.9906 399.575 82.1142 399.501 82.2488 399.422C82.2134 399.399 82.1971 399.387 82.1793 399.377C80.9253 398.662 79.6736 397.943 78.4154 397.235C78.1607 397.091 78.0478 396.906 78.05 396.616C78.0584 395.469 78.0535 394.322 78.0535 393.175V392.95H78.0532ZM87.9455 401.058C88.0044 401.037 88.0477 401.026 88.0878 401.007C89.2007 400.499 89.832 399.646 89.9201 398.438C89.9912 397.466 89.6409 396.637 88.8912 396.002C88.5884 395.746 88.2277 395.552 87.8809 395.351C87.001 394.841 86.1139 394.342 85.2309 393.838C85.1633 393.799 85.1088 393.795 85.0377 393.837C84.759 394.002 84.4762 394.161 84.1948 394.321C84.0509 394.403 83.9068 394.485 83.7521 394.573C83.785 394.596 83.8006 394.609 83.8182 394.619C84.2564 394.869 84.6946 395.119 85.1331 395.369C85.9671 395.844 86.8 396.321 87.636 396.793C87.8564 396.917 87.9507 397.093 87.9482 397.342C87.9415 397.997 87.9457 398.652 87.9457 399.307C87.9457 399.884 87.9457 400.462 87.9457 401.058H87.9455ZM89.0365 394.796C89.1249 394.4 89.1017 394.021 89.0148 393.648C88.7102 392.344 87.6578 391.45 86.3353 391.31C85.7295 391.246 85.1442 391.358 84.6109 391.658C83.5167 392.272 82.4286 392.898 81.3365 393.516C81.2578 393.561 81.2321 393.616 81.2328 393.703C81.2363 394.142 81.2345 394.581 81.235 395.021C81.235 395.059 81.2397 395.097 81.2429 395.147C81.2749 395.132 81.2934 395.125 81.3103 395.116C81.8129 394.83 82.3154 394.544 82.8178 394.258C83.5949 393.816 84.3725 393.374 85.1482 392.93C85.3467 392.816 85.5344 392.804 85.7391 392.922C86.6745 393.459 87.6132 393.991 88.5508 394.524C88.7097 394.614 88.8699 394.703 89.0365 394.796V394.796ZM84.7654 398.842C84.524 398.978 84.3067 399.099 84.0903 399.222C83.0034 399.841 81.9168 400.461 80.8305 401.081C80.6436 401.188 80.4601 401.19 80.272 401.082C79.2992 400.527 78.3258 399.973 77.3523 399.419C77.2256 399.347 77.0976 399.277 76.9622 399.202C76.8782 399.62 76.9074 400.016 77.0028 400.41C77.4241 402.154 79.3272 403.152 81.0177 402.5C81.3709 402.364 81.7007 402.164 82.0322 401.978C82.9151 401.482 83.7937 400.977 84.6721 400.473C84.7122 400.45 84.7607 400.398 84.7612 400.359C84.7671 399.863 84.7652 399.368 84.7652 398.842L84.7654 398.842ZM85.4955 396.421C85.4955 396.496 85.4955 396.539 85.4955 396.582C85.4955 398.01 85.4935 399.437 85.4967 400.865C85.4972 401.099 85.4059 401.269 85.2002 401.386C84.2158 401.945 83.2322 402.505 82.2488 403.065C82.1397 403.127 82.032 403.192 81.9206 403.258C82.2629 403.589 83.023 403.904 83.5033 403.936C83.9432 403.966 84.372 403.935 84.7954 403.804C85.9553 403.446 86.8539 402.32 86.8757 401.124C86.899 399.847 86.8832 398.57 86.8802 397.293C86.8802 397.252 86.843 397.196 86.8062 397.172C86.6861 397.094 86.5583 397.027 86.4336 396.956C86.1313 396.784 85.829 396.611 85.4953 396.421L85.4955 396.421ZM84.0918 390.739C83.6221 390.355 83.1047 390.136 82.5288 390.07C81.8339 389.99 81.1714 390.109 80.5755 390.484C79.6837 391.044 79.1564 391.843 79.1287 392.893C79.095 394.162 79.1175 395.432 79.1212 396.701C79.1212 396.747 79.1683 396.811 79.2116 396.836C79.5973 397.063 79.9868 397.282 80.3757 397.503C80.4118 397.524 80.4505 397.541 80.5067 397.568C80.5067 397.499 80.5067 397.454 80.5067 397.411C80.5067 395.987 80.5089 394.563 80.5047 393.139C80.5039 392.893 80.6037 392.724 80.8186 392.603C81.6401 392.14 82.4583 391.671 83.2775 391.204C83.5436 391.052 83.8098 390.9 84.092 390.739L84.0918 390.739ZM84.7659 397.005C84.7659 396.704 84.7637 396.403 84.7676 396.103C84.7686 396.033 84.7466 395.992 84.6852 395.957C84.1529 395.657 83.6214 395.355 83.0918 395.051C83.027 395.014 82.9802 395.01 82.9131 395.049C82.38 395.356 81.8438 395.657 81.3113 395.964C81.2744 395.985 81.2385 396.044 81.2382 396.086C81.2335 396.696 81.2338 397.306 81.2377 397.916C81.2377 397.954 81.2684 398.008 81.3014 398.027C81.8411 398.339 82.3825 398.648 82.9267 398.952C82.9661 398.974 83.0401 398.972 83.0797 398.95C83.6167 398.65 84.1495 398.343 84.6854 398.041C84.7483 398.005 84.7686 397.965 84.7679 397.896C84.7647 397.599 84.7667 397.302 84.7662 397.006L84.7659 397.005Z" fill="white"/>
<path d="M105.508 391.808C106.684 391.808 107.608 392.046 108.266 392.536C108.966 393.054 109.372 393.866 109.47 394.958H107.846C107.706 394.342 107.44 393.894 107.076 393.628C106.712 393.348 106.152 393.222 105.424 393.222C104.794 393.222 104.318 393.306 103.982 393.488C103.562 393.698 103.366 394.048 103.366 394.524C103.366 394.944 103.59 395.294 104.066 395.546C104.276 395.658 104.85 395.868 105.774 396.162C107.132 396.582 108 396.918 108.392 397.142C109.26 397.66 109.694 398.374 109.694 399.298C109.694 400.194 109.344 400.908 108.644 401.426C107.944 401.93 106.95 402.196 105.676 402.196C104.444 402.196 103.478 401.958 102.792 401.482C101.952 400.894 101.49 399.97 101.42 398.696H103.044C103.156 399.452 103.422 399.998 103.856 400.32C104.248 400.6 104.85 400.754 105.676 400.754C106.404 400.754 106.992 400.628 107.412 400.39C107.832 400.138 108.056 399.816 108.056 399.396C108.056 398.864 107.734 398.444 107.118 398.136C106.922 398.038 106.278 397.814 105.172 397.478C103.94 397.086 103.17 396.806 102.876 396.638C102.106 396.176 101.728 395.504 101.728 394.622C101.728 393.74 102.092 393.04 102.848 392.536C103.548 392.046 104.43 391.808 105.508 391.808ZM114.319 394.566C115.411 394.566 116.293 394.916 116.965 395.644C117.623 396.358 117.959 397.268 117.959 398.388C117.959 399.494 117.623 400.404 116.979 401.104C116.307 401.832 115.411 402.196 114.319 402.196C113.213 402.196 112.331 401.832 111.659 401.104C111.001 400.404 110.679 399.494 110.679 398.388C110.679 397.268 111.001 396.358 111.673 395.644C112.331 394.916 113.213 394.566 114.319 394.566ZM114.319 395.868C113.647 395.868 113.143 396.12 112.779 396.652C112.471 397.1 112.317 397.688 112.317 398.388C112.317 399.088 112.471 399.662 112.779 400.11C113.143 400.628 113.647 400.894 114.319 400.894C114.977 400.894 115.495 400.628 115.859 400.11C116.167 399.648 116.335 399.074 116.335 398.388C116.335 397.688 116.167 397.1 115.859 396.652C115.495 396.12 114.977 395.868 114.319 395.868ZM122.77 394.566C123.12 394.566 123.428 394.622 123.68 394.748V396.344C123.316 396.232 122.98 396.19 122.644 396.19C122.224 396.19 121.846 396.344 121.51 396.68C121.118 397.058 120.936 397.548 120.936 398.164V402H119.354V394.762H120.936V395.798C121.132 395.434 121.356 395.154 121.622 394.958C121.944 394.692 122.322 394.566 122.77 394.566ZM127.88 394.566C128.944 394.566 129.742 394.832 130.246 395.364C130.694 395.826 130.918 396.498 130.918 397.38V402H129.434V401.048C129.154 401.412 128.804 401.678 128.398 401.874C127.936 402.084 127.39 402.196 126.76 402.196C126.004 402.196 125.416 402 124.982 401.622C124.534 401.23 124.31 400.74 124.31 400.138C124.31 399.326 124.618 398.696 125.262 398.262C125.85 397.842 126.676 397.618 127.74 397.59L129.322 397.548V397.268C129.322 396.316 128.804 395.854 127.768 395.854C127.32 395.854 126.97 395.924 126.704 396.092C126.396 396.274 126.186 396.554 126.102 396.932L124.52 396.806C124.674 396.008 125.066 395.42 125.696 395.056C126.228 394.72 126.956 394.566 127.88 394.566ZM129.322 398.696L127.852 398.738C126.578 398.766 125.948 399.214 125.948 400.082C125.948 400.334 126.046 400.544 126.27 400.712C126.494 400.88 126.774 400.978 127.124 400.978C127.74 400.978 128.258 400.796 128.678 400.446C129.098 400.082 129.322 399.62 129.322 399.06V398.696ZM136.116 391.808C137.082 391.808 137.88 392.088 138.51 392.648C139.126 393.208 139.434 393.922 139.434 394.818C139.434 395.686 139.098 396.47 138.454 397.184C138.062 397.604 137.362 398.136 136.382 398.794C135.36 399.466 134.744 400.054 134.52 400.558H139.448V402H132.476C132.476 400.978 132.798 400.096 133.47 399.34C133.834 398.92 134.604 398.304 135.766 397.506C136.41 397.058 136.858 396.68 137.138 396.386C137.572 395.896 137.796 395.364 137.796 394.804C137.796 394.258 137.642 393.852 137.362 393.586C137.068 393.32 136.634 393.194 136.06 393.194C135.444 393.194 134.982 393.404 134.674 393.824C134.366 394.216 134.198 394.818 134.17 395.602H132.532C132.546 394.482 132.868 393.586 133.512 392.9C134.17 392.172 135.038 391.808 136.116 391.808Z" fill="#F6F6F6"/>
<g clip-path="url(#clip11_2565_69895)">
<path d="M323.5 395L327.205 398.675C327.642 399.108 328.358 399.108 328.795 398.675L332.5 395" stroke="#E9E9E7" stroke-linecap="round" stroke-linejoin="round"/>
</g>
<rect x="16" y="429" width="162" height="40" rx="8" fill="#131313"/>
<path d="M36.414 448.12V453.426C36.414 453.832 36.61 454.042 37.03 454.042H39.13C39.396 454.042 39.62 453.958 39.788 453.79C40.012 453.552 40.166 452.726 40.222 451.298L41.188 451.606C41.062 453.23 40.852 454.224 40.558 454.56C40.278 454.84 39.886 454.994 39.382 455.008H36.736C35.84 455.008 35.392 454.532 35.392 453.608V442.73H36.414V447.168C37.786 446.776 39.116 446.23 40.418 445.516L41.02 446.342C39.41 447.14 37.87 447.728 36.414 448.12ZM29.708 455.19L29.4 454.252C29.624 454.112 29.736 453.916 29.736 453.65V442.8H30.744V446.706H34.342V447.686H30.744V453.958C31.976 453.678 33.194 453.328 34.412 452.922L34.678 453.874C33.138 454.364 31.472 454.798 29.708 455.19ZM46.41 443.374H51.016V444.34H48.468C48.398 445.04 48.3 445.698 48.174 446.328H50.75V447.196C50.246 451.074 48.832 453.79 46.536 455.358L46.032 454.462C47.152 453.692 48.034 452.614 48.678 451.242C48.09 450.668 47.502 450.206 46.928 449.842C46.648 450.332 46.354 450.78 46.032 451.186L45.528 450.206C46.62 448.778 47.278 446.818 47.502 444.34H46.41V443.374ZM47.334 449.016C47.95 449.38 48.524 449.814 49.07 450.29C49.406 449.366 49.644 448.344 49.812 447.252H47.95C47.782 447.882 47.572 448.47 47.334 449.016ZM53.564 455.302H52.024L51.8 454.336C52.304 454.378 52.766 454.406 53.214 454.406C53.62 454.406 53.83 454.196 53.83 453.776V442.604H54.838V454.028C54.838 454.868 54.404 455.302 53.564 455.302ZM43.918 447.812C43.568 448.344 43.204 448.848 42.812 449.324L42.476 448.26C43.708 446.58 44.604 444.662 45.164 442.492L46.116 442.926C45.808 444.032 45.402 445.068 44.926 446.048V455.428H43.918V447.812ZM51.618 443.892H52.542V452.572H51.618V443.892Z" fill="#B1B1B1"/>
<rect x="64" y="442" width="1" height="14" fill="#2B2B2B"/>
<g clip-path="url(#clip12_2565_69895)">
<g clip-path="url(#clip13_2565_69895)">
<rect x="75.083" y="445.75" width="11.8333" height="6.5" rx="2.25" stroke="#E9E9E7" stroke-width="1.5"/>
</g>
</g>
<path d="M98.22 444.004H99.116V454H97.968V445.404C97.338 446.048 96.554 446.496 95.616 446.776V445.628C96.064 445.502 96.54 445.306 97.016 445.026C97.492 444.718 97.884 444.382 98.22 444.004ZM104.959 443.808C106.807 443.808 107.871 444.69 108.151 446.482H107.017C106.793 445.334 106.107 444.774 104.945 444.774C104.161 444.774 103.545 445.152 103.097 445.936C102.649 446.664 102.439 447.602 102.439 448.736C102.439 448.792 102.439 448.918 102.453 449.1H102.509C102.761 448.582 103.111 448.176 103.587 447.896C104.035 447.602 104.553 447.462 105.141 447.462C106.093 447.462 106.863 447.77 107.451 448.386C108.025 449.002 108.319 449.786 108.319 450.766C108.319 451.746 107.997 452.572 107.367 453.216C106.723 453.86 105.925 454.196 104.945 454.196C103.727 454.196 102.817 453.734 102.201 452.838C101.613 451.984 101.333 450.794 101.333 449.268C101.333 447.672 101.641 446.37 102.271 445.376C102.929 444.326 103.825 443.808 104.959 443.808ZM104.917 448.414C104.259 448.414 103.713 448.638 103.279 449.086C102.845 449.534 102.635 450.094 102.635 450.794C102.635 451.494 102.831 452.068 103.251 452.516C103.671 452.992 104.217 453.23 104.917 453.23C105.589 453.23 106.135 452.992 106.555 452.544C106.975 452.068 107.185 451.48 107.185 450.766C107.185 450.052 106.975 449.492 106.569 449.072C106.149 448.624 105.603 448.414 104.917 448.414ZM110.862 447.182C111.086 447.182 111.296 447.266 111.464 447.434C111.632 447.602 111.716 447.798 111.716 448.036C111.716 448.274 111.632 448.484 111.464 448.652C111.296 448.806 111.086 448.89 110.862 448.89C110.61 448.89 110.414 448.806 110.26 448.652C110.092 448.484 110.008 448.274 110.008 448.036C110.008 447.798 110.092 447.602 110.26 447.434C110.414 447.266 110.61 447.182 110.862 447.182ZM110.862 452.306C111.086 452.306 111.296 452.39 111.464 452.558C111.632 452.726 111.716 452.922 111.716 453.16C111.716 453.398 111.632 453.608 111.464 453.776C111.296 453.93 111.086 454.014 110.862 454.014C110.61 454.014 110.414 453.93 110.26 453.776C110.092 453.608 110.008 453.398 110.008 453.16C110.008 452.922 110.092 452.726 110.26 452.558C110.414 452.39 110.61 452.306 110.862 452.306ZM116.793 443.808C117.997 443.808 118.907 444.256 119.523 445.152C120.111 445.992 120.405 447.196 120.405 448.736C120.405 450.332 120.083 451.62 119.467 452.628C118.795 453.664 117.899 454.196 116.779 454.196C114.917 454.196 113.853 453.3 113.587 451.522H114.721C114.931 452.656 115.617 453.23 116.793 453.23C117.563 453.23 118.179 452.838 118.641 452.068C119.075 451.326 119.299 450.388 119.299 449.268C119.299 449.198 119.285 449.072 119.285 448.904H119.229C118.977 449.408 118.613 449.814 118.151 450.108C117.703 450.388 117.185 450.542 116.597 450.542C115.631 450.542 114.861 450.22 114.273 449.59C113.699 448.988 113.419 448.204 113.419 447.238C113.419 446.244 113.727 445.432 114.371 444.788C115.001 444.13 115.813 443.808 116.793 443.808ZM116.821 444.774C116.135 444.774 115.589 444.998 115.169 445.46C114.749 445.922 114.553 446.51 114.553 447.238C114.553 447.938 114.749 448.512 115.169 448.932C115.575 449.366 116.121 449.59 116.821 449.59C117.465 449.59 118.011 449.366 118.459 448.918C118.879 448.47 119.103 447.896 119.103 447.21C119.103 446.51 118.893 445.936 118.487 445.488C118.067 445.012 117.507 444.774 116.821 444.774Z" fill="#E9E9E7"/>
<g clip-path="url(#clip14_2565_69895)">
<path d="M153.5 447L157.205 450.675C157.642 451.108 158.358 451.108 158.795 450.675L162.5 447" stroke="#E9E9E7" stroke-linecap="round" stroke-linejoin="round"/>
</g>
<rect x="186" y="429" width="162" height="40" rx="8" fill="#131313"/>
<path d="M203.054 442.856L203.936 443.388C203.278 444.55 202.62 445.502 201.962 446.244C201.262 447.056 200.324 447.854 199.162 448.638L198.616 447.756C199.568 447.21 200.436 446.496 201.206 445.614C201.878 444.83 202.494 443.92 203.054 442.856ZM203.516 449.1H200.688V448.134H209.046C209.004 449.884 208.92 451.298 208.78 452.376C208.64 453.44 208.416 454.196 208.094 454.616C207.786 455.022 207.282 455.246 206.582 455.288H204.034L203.754 454.294C204.566 454.322 205.336 454.336 206.064 454.336C206.82 454.336 207.31 454.014 207.548 453.37C207.8 452.698 207.954 451.284 208.024 449.1H204.538C204.202 450.626 203.74 451.844 203.138 452.74C202.424 453.748 201.346 454.644 199.918 455.442L199.274 454.602C200.562 453.902 201.542 453.132 202.2 452.292C202.788 451.48 203.222 450.416 203.516 449.1ZM207.002 442.674C207.814 444.83 209.256 446.538 211.342 447.784L210.67 448.582C208.5 447.182 206.988 445.376 206.134 443.164L207.002 442.674ZM214.814 442.506C214.982 443.01 215.136 443.584 215.304 444.214H216.984V445.11H212.826V444.214H214.38C214.212 443.64 214.03 443.122 213.834 442.66L214.814 442.506ZM214.338 448.932H212.7V448.008H215.108C215.388 447.21 215.612 446.37 215.752 445.502L216.592 445.628C216.438 446.482 216.228 447.28 215.948 448.008H217.012V448.932H215.262C215.248 449.534 215.22 450.094 215.178 450.598H216.718V451.48H215.094C215.052 451.704 215.01 451.928 214.982 452.152C214.744 453.496 214.184 454.602 213.302 455.47L212.686 454.714C213.386 453.972 213.848 453.048 214.086 451.942C214.114 451.788 214.128 451.634 214.156 451.48H212.896V450.598H214.254C214.296 450.066 214.324 449.52 214.338 448.932ZM213.736 445.628C214.044 446.216 214.324 446.846 214.548 447.518L213.806 447.84C213.554 447.112 213.274 446.482 212.966 445.936L213.736 445.628ZM222.444 448.904H220.61V447.98H223.158C223.466 447.196 223.69 446.37 223.83 445.516L224.684 445.628C224.516 446.468 224.292 447.252 223.984 447.98H225.244V448.904H223.368V450.682H224.936V451.578H223.368V455.344H222.444V451.578H220.946V450.682H222.444V448.904ZM222.878 442.562C223.046 443.038 223.2 443.598 223.368 444.214H225.188V445.11H220.638V444.214H222.444C222.29 443.668 222.108 443.164 221.912 442.716L222.878 442.562ZM221.772 445.558C222.08 446.146 222.332 446.762 222.556 447.434L221.828 447.742C221.576 447.014 221.31 446.384 221.03 445.852L221.772 445.558ZM219.168 442.562H220.036V448.806C219.994 451.788 219.154 453.972 217.53 455.358L216.816 454.728C218.356 453.496 219.14 451.522 219.168 448.806V442.562ZM217.572 444.942H218.356V447.112C218.342 448.82 218.132 450.08 217.74 450.878L217.096 450.318C217.404 449.646 217.572 448.582 217.572 447.112V444.942ZM226.98 443.738H232.496C232.3 443.318 232.09 442.926 231.852 442.576L232.874 442.408C233.098 442.8 233.308 443.234 233.504 443.738H239.02V444.69H233.168C232.762 445.488 232.3 446.146 231.796 446.65L233.63 446.482C233.952 446.076 234.274 445.656 234.61 445.208L235.506 445.572C234.162 447.28 232.972 448.554 231.964 449.394C232.86 449.282 233.728 449.156 234.568 449.016C234.4 448.652 234.246 448.316 234.092 448.008L234.946 447.728C235.408 448.54 235.814 449.408 236.15 450.332L235.24 450.738C235.128 450.402 235.002 450.08 234.89 449.786C234.442 449.87 233.98 449.94 233.518 449.996V451.634H239.258V452.6H233.518V455.456H232.482V452.6H226.77V451.634H232.482V450.122C231.838 450.192 231.194 450.248 230.522 450.304L230.326 449.422L230.69 449.338C231.306 448.988 232.048 448.316 232.916 447.336C232.16 447.392 231.376 447.462 230.564 447.518L230.368 446.706C231.096 446.272 231.684 445.6 232.132 444.69H226.98V443.738ZM229.318 447.952L230.074 448.512C229.346 449.408 228.576 450.136 227.778 450.724L227.106 449.968C227.918 449.394 228.66 448.722 229.318 447.952ZM227.932 445.166C228.716 445.726 229.388 446.3 229.92 446.86L229.22 447.56C228.744 447.014 228.072 446.44 227.232 445.838L227.932 445.166ZM236.71 447.952C237.578 448.638 238.306 449.324 238.894 449.996L238.166 450.724C237.662 450.052 236.962 449.324 236.066 448.568L236.71 447.952ZM237.802 445.124L238.586 445.698C237.956 446.44 237.298 447.056 236.612 447.56L235.982 446.832C236.654 446.342 237.256 445.768 237.802 445.124Z" fill="#B1B1B1"/>
<rect x="248" y="442" width="1" height="14" fill="#343434"/>
<path d="M257.476 444.004H264.042V444.942L260.36 454H259.142L262.866 445.054H257.476V444.004ZM268.996 443.808C269.92 443.808 270.676 444.074 271.278 444.606C271.866 445.138 272.174 445.852 272.174 446.72C272.174 447.588 271.838 448.372 271.194 449.072C270.844 449.436 270.158 449.982 269.122 450.682C267.848 451.536 267.12 452.306 266.938 452.978H272.188V454H265.524C265.524 453.09 265.846 452.264 266.518 451.522C266.91 451.074 267.624 450.472 268.688 449.744C269.472 449.184 269.99 448.778 270.256 448.498C270.76 447.952 271.026 447.35 271.026 446.706C271.026 446.09 270.844 445.628 270.48 445.292C270.116 444.956 269.598 444.788 268.954 444.788C268.268 444.788 267.736 445.012 267.372 445.488C266.98 445.936 266.77 446.608 266.756 447.49H265.608C265.608 446.37 265.93 445.474 266.546 444.816C267.162 444.144 267.988 443.808 268.996 443.808ZM277.251 443.808C278.441 443.808 279.337 444.326 279.953 445.39C280.485 446.286 280.751 447.49 280.751 449.002C280.751 450.514 280.485 451.718 279.953 452.614C279.337 453.664 278.441 454.196 277.251 454.196C276.047 454.196 275.151 453.664 274.549 452.614C274.017 451.718 273.751 450.514 273.751 449.002C273.751 447.49 274.017 446.286 274.549 445.39C275.151 444.326 276.047 443.808 277.251 443.808ZM277.251 444.788C276.355 444.788 275.711 445.264 275.319 446.23C275.039 446.902 274.899 447.826 274.899 449.002C274.899 450.164 275.039 451.088 275.319 451.774C275.711 452.726 276.355 453.216 277.251 453.216C278.147 453.216 278.791 452.726 279.183 451.774C279.463 451.088 279.617 450.164 279.617 449.002C279.617 447.826 279.463 446.902 279.183 446.23C278.791 445.264 278.147 444.788 277.251 444.788ZM282.453 444.004H286.541C288.837 444.004 289.985 444.984 289.985 446.944C289.985 448.918 288.823 449.912 286.527 449.912H283.601V454H282.453V444.004ZM283.601 444.998V448.918H286.471C287.283 448.918 287.871 448.75 288.263 448.428C288.641 448.106 288.837 447.616 288.837 446.944C288.837 446.272 288.641 445.782 288.249 445.488C287.857 445.152 287.269 444.998 286.471 444.998H283.601Z" fill="#E9E9E7"/>
<g clip-path="url(#clip15_2565_69895)">
<path d="M323.5 447L327.205 450.675C327.642 451.108 328.358 451.108 328.795 450.675L332.5 447" stroke="#E9E9E7" stroke-linecap="round" stroke-linejoin="round"/>
</g>
<rect x="16" y="481" width="162" height="40" rx="8" fill="#131313"/>
<path d="M33.18 495.612V505.93H32.2V504.992H30.128V506.266H29.148V495.612H33.18ZM30.128 504.054H32.2V500.68H30.128V504.054ZM30.128 499.742H32.2V496.536H30.128V499.742ZM35.196 499.784C36.064 501.1 36.736 502.248 37.198 503.228L36.358 503.816C35.868 502.766 35.21 501.59 34.37 500.302L35.196 499.784ZM38.388 507.26H35.938L35.728 506.28C36.54 506.308 37.31 506.336 38.052 506.336C38.458 506.336 38.668 506.112 38.668 505.678V498.104H33.824V497.138H38.668V494.674H39.69V497.138H41.412V498.104H39.69V505.93C39.69 506.812 39.256 507.26 38.388 507.26ZM46.284 498.356H51.604V504.88H46.284V498.356ZM50.666 503.984V502.066H47.236V503.984H50.666ZM47.236 501.17H50.666V499.252H47.236V501.17ZM53.172 507.288H51.996L51.744 506.35L52.962 506.378C53.382 506.378 53.606 506.084 53.606 505.524V496.2H48.174V495.262H54.586V505.804C54.586 506.784 54.11 507.288 53.172 507.288ZM43.386 496.886H44.366V507.414H43.386V496.886ZM45.416 494.436C46.06 495.206 46.634 496.046 47.124 496.97L46.228 497.446C45.696 496.466 45.122 495.598 44.492 494.842L45.416 494.436Z" fill="#B1B1B1"/>
<rect x="64" y="494" width="1" height="14" fill="#343434"/>
<path d="M74.47 496.004H80.28V497.026H75.408L75.072 500.372H75.128C75.408 500.036 75.772 499.784 76.206 499.616C76.598 499.448 77.018 499.378 77.48 499.378C78.432 499.378 79.202 499.672 79.79 500.274C80.378 500.89 80.686 501.73 80.686 502.808C80.686 503.816 80.322 504.642 79.608 505.286C78.936 505.888 78.096 506.196 77.116 506.196C76.234 506.196 75.478 505.958 74.862 505.482C74.162 504.95 73.784 504.222 73.714 503.312H74.848C74.904 503.942 75.156 504.432 75.604 504.768C75.996 505.062 76.514 505.216 77.13 505.216C77.83 505.216 78.404 504.992 78.866 504.544C79.314 504.096 79.552 503.522 79.552 502.822C79.552 502.024 79.328 501.408 78.908 500.974C78.502 500.526 77.928 500.316 77.2 500.316C76.724 500.316 76.304 500.414 75.926 500.624C75.534 500.82 75.226 501.128 75.03 501.52H73.938L74.47 496.004ZM84.8245 498.566C86.6165 498.566 87.5965 499.308 87.7925 500.82H86.7005C86.6025 500.372 86.4205 500.036 86.1405 499.84C85.8325 499.616 85.3845 499.504 84.8105 499.504C84.3065 499.504 83.9145 499.588 83.6345 499.784C83.3265 499.966 83.1725 500.218 83.1725 500.54C83.1725 500.848 83.3685 501.114 83.7885 501.324C84.0545 501.45 84.5585 501.604 85.2865 501.8C86.1545 502.01 86.7705 502.234 87.1485 502.472C87.7225 502.836 88.0165 503.326 88.0165 503.956C88.0165 505.44 86.9945 506.196 84.9505 506.196C83.0465 506.196 82.0105 505.356 81.8425 503.69H82.9345C83.0185 504.264 83.2285 504.67 83.5365 504.922C83.8445 505.146 84.3065 505.258 84.9225 505.258C86.2105 505.258 86.8685 504.838 86.8685 504.026C86.8685 503.62 86.6305 503.312 86.1825 503.088C85.9445 502.976 85.4265 502.822 84.6425 502.626C83.7885 502.416 83.1865 502.206 82.8505 501.982C82.2905 501.646 82.0245 501.184 82.0245 500.568C82.0245 499.952 82.2905 499.476 82.8365 499.112C83.3405 498.748 84.0125 498.566 84.8245 498.566Z" fill="#E9E9E7"/>
<g clip-path="url(#clip16_2565_69895)">
<path d="M153.5 499L157.205 502.675C157.642 503.108 158.358 503.108 158.795 502.675L162.5 499" stroke="#E9E9E7" stroke-linecap="round" stroke-linejoin="round"/>
</g>
<rect x="186" y="481" width="162" height="40" rx="8" fill="#131313"/>
<path d="M207.212 497.67L207.03 498.398C207.38 500.036 207.828 501.45 208.388 502.626C208.934 501.212 209.228 499.56 209.284 497.67H207.212ZM207.926 503.634C207.38 502.556 206.918 501.324 206.54 499.924C206.288 500.568 206.008 501.142 205.714 501.646L205.084 500.876C205.91 499.308 206.47 497.194 206.75 494.534L207.73 494.702C207.646 495.416 207.534 496.088 207.422 496.704H211.118V497.67H210.208C210.138 500.008 209.704 502.01 208.92 503.662C209.648 504.922 210.502 505.888 211.51 506.574L210.964 507.4C209.984 506.7 209.144 505.748 208.444 504.572C207.772 505.692 206.904 506.63 205.854 507.386L205.336 506.546C206.428 505.79 207.282 504.824 207.926 503.634ZM201.29 501.072L202.228 501.184C202.13 501.45 202.032 501.702 201.948 501.954H204.874V502.78C204.566 503.704 204.048 504.502 203.32 505.174C203.992 505.482 204.636 505.79 205.252 506.126L204.706 506.91C204.09 506.546 203.376 506.168 202.55 505.804C201.626 506.448 200.464 506.966 199.064 507.358L198.588 506.518C199.736 506.21 200.73 505.832 201.542 505.37C200.926 505.104 200.282 504.838 199.596 504.586C199.96 503.97 200.282 503.396 200.562 502.836H198.91V501.954H200.954C201.08 501.646 201.192 501.352 201.29 501.072ZM202.396 504.782C203.096 504.222 203.628 503.564 203.964 502.836H201.556C201.332 503.312 201.08 503.76 200.8 504.18C201.36 504.376 201.892 504.572 202.396 504.782ZM200.016 494.828C200.352 495.374 200.632 495.962 200.884 496.578L200.156 496.914C199.862 496.228 199.554 495.626 199.218 495.094L200.016 494.828ZM204.272 494.786L205 495.122C204.72 495.738 204.37 496.34 203.922 496.928L203.208 496.564C203.656 495.962 204.02 495.374 204.272 494.786ZM198.938 497.25H201.668V494.576H202.606V497.25H205.154V498.132H202.606V498.286C203.362 498.664 204.146 499.098 204.93 499.574L204.412 500.358C203.712 499.798 203.11 499.35 202.606 499.014V500.834H201.668V498.174C201.206 499.28 200.366 500.232 199.162 501.044L198.672 500.232C199.75 499.602 200.506 498.902 200.926 498.132H198.938V497.25ZM214.142 500.428H223.886V503.998H219.49V504.782H224.236V505.454H219.49V506.28H225.258V507.064H212.742V506.28H218.482V505.454H213.792V504.782H218.482V503.998H214.142V500.428ZM222.92 503.368V502.514H219.49V503.368H222.92ZM218.482 503.368V502.514H215.108V503.368H218.482ZM215.108 501.926H218.482V501.058H215.108V501.926ZM219.49 501.058V501.926H222.92V501.058H219.49ZM214.45 494.786H223.592V498.244H214.45V494.786ZM222.612 497.642V496.816H215.43V497.642H222.612ZM215.43 496.214H222.612V495.402H215.43V496.214ZM212.728 498.972H225.272V499.728H212.728V498.972Z" fill="#B1B1B1"/>
<rect x="234" y="494" width="1" height="14" fill="#343434"/>
<path d="M246.22 496.004H247.116V506H245.968V497.404C245.338 498.048 244.554 498.496 243.616 498.776V497.628C244.064 497.502 244.54 497.306 245.016 497.026C245.492 496.718 245.884 496.382 246.22 496.004Z" fill="#E9E9E7"/>
<g clip-path="url(#clip17_2565_69895)">
<path d="M323.5 499L327.205 502.675C327.642 503.108 328.358 503.108 328.795 502.675L332.5 499" stroke="#E9E9E7" stroke-linecap="round" stroke-linejoin="round"/>
</g>
<rect x="16" y="533" width="332" height="40" rx="8" fill="#131313"/>
<path d="M31.766 546.478L32.704 546.912C32.34 548.004 31.892 549.026 31.346 549.992V559.428H30.338V551.532C29.876 552.148 29.372 552.75 28.826 553.324L28.504 552.246C29.988 550.566 31.08 548.648 31.766 546.478ZM32.634 548.816H36.4C36.204 548.074 35.966 547.388 35.714 546.772L36.778 546.59C37.002 547.234 37.212 547.976 37.408 548.816H41.062V549.782H32.634V548.816ZM32.396 557.748H37.212C37.926 555.872 38.542 553.52 39.074 550.692L40.04 550.944C39.55 553.506 38.948 555.774 38.248 557.748H41.426V558.742H32.396V557.748ZM34.356 550.846C34.902 552.652 35.392 554.724 35.826 557.048L34.888 557.3C34.51 555.172 34.02 553.114 33.432 551.126L34.356 550.846ZM42.994 550.524H48.44L48.524 549.712H43.932V547.094H54.068V549.712H49.532L49.448 550.524H55.02V551.294H49.336C49.28 551.574 49.238 551.84 49.182 552.092H53.242V558.266H55.272V559.078H42.742V558.266H44.772V552.092H48.174C48.23 551.826 48.272 551.56 48.328 551.294H42.994V550.524ZM45.752 558.266H52.248V557.342H45.752V558.266ZM45.752 556.712H52.248V555.83H45.752V556.712ZM45.752 555.186H52.248V554.304H45.752V555.186ZM45.752 553.674H52.248V552.792H45.752V553.674ZM53.116 548.998V547.836H51.03V548.998H53.116ZM50.106 548.998V547.836H47.894V548.998H50.106ZM46.984 548.998V547.836H44.898V548.998H46.984Z" fill="#B1B1B1"/>
<rect x="64" y="546" width="1" height="14" fill="#343434"/>
<path d="M75.436 548.914H73.77V547.934H78.096V548.914H76.472V555.242C77.074 555.032 77.648 554.822 78.194 554.598V555.606C76.962 556.124 75.534 556.6 73.91 557.034L73.616 556.04C74.246 555.886 74.848 555.732 75.436 555.564V548.914ZM78.628 547.164H86.384V548.144H83.038C82.954 548.676 82.856 549.166 82.744 549.642H85.712V556.222H84.732V550.566H80.238V556.222H79.272V549.642H81.736C81.876 549.166 81.974 548.662 82.044 548.144H78.628V547.164ZM83.626 556.25C84.774 557.09 85.754 557.93 86.538 558.77L85.81 559.498C85.11 558.686 84.158 557.818 82.954 556.894L83.626 556.25ZM81.918 551.462H82.926V553.87C82.87 555.382 82.478 556.586 81.722 557.496C80.98 558.322 79.776 558.98 78.096 559.456L77.55 558.588C79.174 558.154 80.322 557.566 80.966 556.838C81.554 556.082 81.876 555.088 81.918 553.87V551.462ZM98.704 547.248V559.386H97.696V558.476H90.332V559.414H89.31V547.248H98.704ZM90.332 557.496H97.696V554.864H90.332V557.496ZM90.332 553.94H97.696V551.476H90.332V553.94ZM90.332 550.552H97.696V548.228H90.332V550.552ZM105.97 558.532V559.358H104.962V554.416C104.094 554.696 103.184 554.948 102.204 555.186L101.672 554.22C104.094 553.716 106.11 553.072 107.72 552.26C107.104 551.742 106.264 551.182 105.2 550.58L106.068 550.034C107.132 550.692 107.972 551.28 108.574 551.798C110.002 550.944 111.038 549.95 111.696 548.802H106.516C105.564 549.684 104.36 550.468 102.876 551.168L102.204 550.3C104.598 549.278 106.208 548.018 107.048 546.534L108.154 546.66C107.93 547.08 107.678 547.472 107.398 547.85H112.858V548.746C111.85 550.664 110.044 552.232 107.412 553.45H113.25V559.358H112.228V558.532H105.97ZM112.228 557.552V554.388H105.97V557.552H112.228ZM115.812 550.398H117.856V548.396C117.268 548.48 116.68 548.564 116.064 548.62L115.868 547.668C117.604 547.514 119.13 547.234 120.474 546.814L120.824 547.766C120.208 547.934 119.536 548.102 118.822 548.242V550.398H120.544V551.364H118.822V552.134C119.522 552.75 120.208 553.422 120.908 554.178L120.348 555.018C119.76 554.178 119.242 553.52 118.822 553.03V559.358H117.856V553.002C117.38 554.374 116.722 555.62 115.91 556.74L115.476 555.62C116.54 554.374 117.296 552.96 117.744 551.364H115.812V550.398ZM123.764 559.33H122.42L122.21 558.364C122.63 558.406 123.036 558.434 123.414 558.434C123.75 558.434 123.932 558.224 123.932 557.818V550.664H124.968V558.07C124.968 558.91 124.562 559.33 123.764 559.33ZM122 552.68L122.938 552.862C122.532 554.724 121.958 556.334 121.216 557.692L120.348 557.146C121.104 555.802 121.65 554.304 122 552.68ZM126.788 552.582C127.418 554.094 127.964 555.704 128.426 557.426L127.502 557.832C127.012 555.97 126.466 554.318 125.878 552.876L126.788 552.582ZM122.952 549.474C122.56 550.356 122.07 551.154 121.496 551.854L120.88 551.056C121.832 549.824 122.49 548.312 122.826 546.52L123.82 546.646C123.694 547.29 123.526 547.906 123.33 548.494H127.964V549.152C127.796 550.104 127.586 551.042 127.306 551.966L126.326 551.672C126.578 551.014 126.788 550.286 126.956 549.474H122.952ZM133.97 558.532V559.358H132.962V554.416C132.094 554.696 131.184 554.948 130.204 555.186L129.672 554.22C132.094 553.716 134.11 553.072 135.72 552.26C135.104 551.742 134.264 551.182 133.2 550.58L134.068 550.034C135.132 550.692 135.972 551.28 136.574 551.798C138.002 550.944 139.038 549.95 139.696 548.802H134.516C133.564 549.684 132.36 550.468 130.876 551.168L130.204 550.3C132.598 549.278 134.208 548.018 135.048 546.534L136.154 546.66C135.93 547.08 135.678 547.472 135.398 547.85H140.858V548.746C139.85 550.664 138.044 552.232 135.412 553.45H141.25V559.358H140.228V558.532H133.97ZM140.228 557.552V554.388H133.97V557.552H140.228Z" fill="#E9E9E7"/>
<g clip-path="url(#clip18_2565_69895)">
<path d="M326 557.5L329.675 553.795C330.108 553.358 330.108 552.642 329.675 552.205L326 548.5" stroke="#E9E9E7" stroke-linecap="round" stroke-linejoin="round"/>
</g>
<rect x="16" y="585" width="332" height="40" rx="8" fill="#131313"/>
<path d="M32.97 610.532V611.358H31.962V606.416C31.094 606.696 30.184 606.948 29.204 607.186L28.672 606.22C31.094 605.716 33.11 605.072 34.72 604.26C34.104 603.742 33.264 603.182 32.2 602.58L33.068 602.034C34.132 602.692 34.972 603.28 35.574 603.798C37.002 602.944 38.038 601.95 38.696 600.802H33.516C32.564 601.684 31.36 602.468 29.876 603.168L29.204 602.3C31.598 601.278 33.208 600.018 34.048 598.534L35.154 598.66C34.93 599.08 34.678 599.472 34.398 599.85H39.858V600.746C38.85 602.664 37.044 604.232 34.412 605.45H40.25V611.358H39.228V610.532H32.97ZM39.228 609.552V606.388H32.97V609.552H39.228ZM42.812 602.398H44.856V600.396C44.268 600.48 43.68 600.564 43.064 600.62L42.868 599.668C44.604 599.514 46.13 599.234 47.474 598.814L47.824 599.766C47.208 599.934 46.536 600.102 45.822 600.242V602.398H47.544V603.364H45.822V604.134C46.522 604.75 47.208 605.422 47.908 606.178L47.348 607.018C46.76 606.178 46.242 605.52 45.822 605.03V611.358H44.856V605.002C44.38 606.374 43.722 607.62 42.91 608.74L42.476 607.62C43.54 606.374 44.296 604.96 44.744 603.364H42.812V602.398ZM50.764 611.33H49.42L49.21 610.364C49.63 610.406 50.036 610.434 50.414 610.434C50.75 610.434 50.932 610.224 50.932 609.818V602.664H51.968V610.07C51.968 610.91 51.562 611.33 50.764 611.33ZM49 604.68L49.938 604.862C49.532 606.724 48.958 608.334 48.216 609.692L47.348 609.146C48.104 607.802 48.65 606.304 49 604.68ZM53.788 604.582C54.418 606.094 54.964 607.704 55.426 609.426L54.502 609.832C54.012 607.97 53.466 606.318 52.878 604.876L53.788 604.582ZM49.952 601.474C49.56 602.356 49.07 603.154 48.496 603.854L47.88 603.056C48.832 601.824 49.49 600.312 49.826 598.52L50.82 598.646C50.694 599.29 50.526 599.906 50.33 600.494H54.964V601.152C54.796 602.104 54.586 603.042 54.306 603.966L53.326 603.672C53.578 603.014 53.788 602.286 53.956 601.474H49.952Z" fill="#B1B1B1"/>
<rect x="64" y="598" width="1" height="14" fill="#2B2B2B"/>
<path d="M81.596 598.562H82.562V599.472H86.034V600.298H82.562V601.236H85.53V602.048H82.562V603H86.384V603.84H77.816V603H81.596V602.048H78.768V601.236H81.596V600.298H78.208V599.472H81.596V598.562ZM79.846 607.368V608.39H84.368V607.368H79.846ZM84.368 606.584V605.548H79.846V606.584H84.368ZM79.846 609.174V611.4H78.88V604.722H85.334V610.182C85.334 610.938 84.928 611.316 84.144 611.316H82.968L82.73 610.42L83.85 610.462C84.186 610.462 84.368 610.294 84.368 609.972V609.174H79.846ZM75.282 598.716C76.22 599.416 77.004 600.13 77.648 600.844L76.962 601.544C76.374 600.872 75.576 600.158 74.568 599.402L75.282 598.716ZM73.588 602.846H76.556V608.992C76.976 608.6 77.41 608.166 77.886 607.676L78.152 608.74C77.368 609.552 76.528 610.28 75.66 610.91L75.268 610.014C75.478 609.818 75.59 609.608 75.59 609.37V603.812H73.588V602.846ZM90.206 602.454H91.144V604.54H92.432V605.45H91.144V607.34C91.62 607.228 92.054 607.116 92.474 607.004V607.956L91.144 608.292V611.4H90.206V608.502C89.408 608.656 88.582 608.796 87.728 608.922L87.602 607.942C88.526 607.83 89.394 607.69 90.206 607.536V605.45H88.022L87.812 604.61C88.204 603.77 88.554 602.72 88.876 601.474H87.714V600.522H89.1C89.24 599.878 89.366 599.22 89.492 598.52L90.416 598.73C90.29 599.36 90.164 599.962 90.038 600.522H92.502V601.474H89.8C89.492 602.622 89.17 603.644 88.82 604.54H90.206V602.454ZM94.336 601.74C93.804 602.23 93.272 602.692 92.726 603.112L92.18 602.272C93.608 601.222 94.896 599.99 96.03 598.59H96.758C97.976 600.102 99.222 601.292 100.496 602.188L99.964 602.986C98.648 602.034 97.458 600.872 96.394 599.5C95.722 600.312 95.05 601.054 94.35 601.726H98.354V602.566H94.336V601.74ZM95.316 611.302H94.644L94.42 610.476L95.036 610.504C95.344 610.504 95.498 610.35 95.498 610.042V608.782H93.93V611.4H93.048V603.686H96.352V610.224C96.352 610.938 96.002 611.302 95.316 611.302ZM93.93 607.998H95.498V606.668H93.93V607.998ZM93.93 605.884H95.498V604.498H93.93V605.884ZM97.192 604.078H97.976V609.104H97.192V604.078ZM98.718 611.33H97.528L97.318 610.448C97.696 610.476 98.06 610.504 98.41 610.504C98.704 610.504 98.858 610.294 98.858 609.902V603.448H99.74V610.126C99.74 610.924 99.39 611.33 98.718 611.33ZM107.384 601.81C106.74 600.634 105.97 599.738 105.074 599.094L105.914 598.562C107.16 599.43 108.21 601.012 109.078 603.28C110.394 606.626 112.144 608.992 114.356 610.378L113.726 611.19C111.458 609.818 109.61 607.27 108.168 603.574C108.084 603.35 108.014 603.154 107.944 602.986C107.02 606.556 105.088 609.3 102.148 611.204L101.546 610.35C104.542 608.39 106.488 605.534 107.384 601.81ZM126.9 598.422H127.88C127.32 599.346 126.872 600.312 126.55 601.32C126.13 602.552 125.934 603.756 125.934 604.96C125.934 606.15 126.13 607.368 126.55 608.6C126.872 609.594 127.32 610.56 127.88 611.498H126.9C126.284 610.588 125.808 609.622 125.458 608.614C125.038 607.41 124.842 606.192 124.842 604.974C124.842 603.728 125.038 602.51 125.458 601.306C125.808 600.284 126.284 599.318 126.9 598.422ZM133.844 598.576H134.88V611.4H133.844V608.096H129.574V607.13H133.844V604.904H130.218V603.924H133.844V601.754H129.896V600.788H133.844V598.576ZM137.12 598.576H138.156V600.788H142.09V601.754H138.156V603.924H141.782V604.904H138.156V607.13H142.314V608.096H138.156V611.4H137.12V598.576ZM148.39 598.618C149.496 599.486 150.42 600.368 151.176 601.236L150.476 601.936C149.804 601.11 148.88 600.214 147.704 599.262L148.39 598.618ZM152.912 599.024L153.836 599.43C152.576 603.7 150.728 606.92 148.292 609.104V609.286C148.292 609.706 148.53 609.916 149.006 609.916H151.428C151.834 609.916 152.114 609.776 152.282 609.51C152.506 609.188 152.646 608.222 152.73 606.626L153.682 606.948C153.57 608.81 153.346 609.944 153.01 610.364C152.716 610.7 152.254 610.882 151.61 610.882H148.684C147.9 610.882 147.438 610.546 147.326 609.902C146.542 610.476 145.73 610.952 144.876 611.344L144.288 610.504C145.38 610 146.388 609.37 147.284 608.614V601.488H148.292V607.69C150.364 605.576 151.904 602.692 152.912 599.024ZM145.24 602.79L146.206 602.986C145.786 605.212 145.198 607.13 144.442 608.74L143.574 608.208C144.33 606.57 144.89 604.764 145.24 602.79ZM154.214 602.986C155.082 604.638 155.852 606.416 156.496 608.306L155.586 608.712C154.886 606.668 154.102 604.862 153.262 603.294L154.214 602.986ZM162.11 599.598H165.666C165.694 599.234 165.736 598.87 165.764 598.506L166.744 598.646C166.716 598.982 166.674 599.29 166.646 599.598H169.992V600.48H166.534C166.478 600.788 166.436 601.096 166.394 601.39H169.194V607.858H170.482V608.754H161.62V607.858H162.922V601.39H165.428C165.484 601.082 165.526 600.774 165.568 600.48H162.11V599.598ZM163.874 607.858H168.242V606.948H163.874V607.858ZM163.874 606.22H168.242V605.366H163.874V606.22ZM163.874 604.638H168.242V603.784H163.874V604.638ZM163.874 603.07H168.242V602.188H163.874V603.07ZM167.612 608.95C168.578 609.454 169.474 610.056 170.314 610.756L169.698 611.456C168.858 610.714 167.948 610.07 166.982 609.524L167.612 608.95ZM164.518 608.936L165.19 609.538C164.378 610.266 163.37 610.91 162.166 611.456L161.564 610.7C162.74 610.196 163.72 609.608 164.518 608.936ZM157.7 601.992H159.268V598.618H160.234V601.992H161.676V602.944H160.234V607.312C160.71 607.144 161.186 606.962 161.648 606.766V607.76C160.472 608.236 159.198 608.628 157.84 608.95L157.588 607.984C158.148 607.872 158.708 607.746 159.268 607.606V602.944H157.7V601.992ZM173.604 608.334C173.912 608.334 174.178 608.46 174.374 608.726C174.556 608.978 174.654 609.3 174.654 609.706C174.654 610.322 174.472 610.868 174.108 611.344C173.744 611.792 173.254 612.1 172.666 612.254V611.568C173.03 611.442 173.324 611.232 173.548 610.952C173.758 610.658 173.856 610.35 173.856 610.014C173.8 610.042 173.688 610.07 173.548 610.07C173.31 610.07 173.114 609.986 172.946 609.818C172.778 609.65 172.694 609.44 172.694 609.202C172.694 608.936 172.778 608.726 172.946 608.572C173.114 608.404 173.324 608.334 173.604 608.334ZM186.05 599.29H197.95V600.284H193.386C193.134 600.858 192.84 601.418 192.518 601.95V611.428H191.482V603.434C190.166 605.072 188.444 606.528 186.316 607.802L185.658 606.92C188.822 605.1 191.034 602.888 192.266 600.284H186.05V599.29ZM194.282 603.056C195.892 604.33 197.236 605.604 198.328 606.878L197.558 607.662C196.578 606.43 195.248 605.128 193.554 603.742L194.282 603.056ZM204.11 599.598H207.666C207.694 599.234 207.736 598.87 207.764 598.506L208.744 598.646C208.716 598.982 208.674 599.29 208.646 599.598H211.992V600.48H208.534C208.478 600.788 208.436 601.096 208.394 601.39H211.194V607.858H212.482V608.754H203.62V607.858H204.922V601.39H207.428C207.484 601.082 207.526 600.774 207.568 600.48H204.11V599.598ZM205.874 607.858H210.242V606.948H205.874V607.858ZM205.874 606.22H210.242V605.366H205.874V606.22ZM205.874 604.638H210.242V603.784H205.874V604.638ZM205.874 603.07H210.242V602.188H205.874V603.07ZM209.612 608.95C210.578 609.454 211.474 610.056 212.314 610.756L211.698 611.456C210.858 610.714 209.948 610.07 208.982 609.524L209.612 608.95ZM206.518 608.936L207.19 609.538C206.378 610.266 205.37 610.91 204.166 611.456L203.564 610.7C204.74 610.196 205.72 609.608 206.518 608.936ZM199.7 601.992H201.268V598.618H202.234V601.992H203.676V602.944H202.234V607.312C202.71 607.144 203.186 606.962 203.648 606.766V607.76C202.472 608.236 201.198 608.628 199.84 608.95L199.588 607.984C200.148 607.872 200.708 607.746 201.268 607.606V602.944H199.7V601.992ZM219.482 611.358H217.914L217.69 610.364C218.194 610.406 218.67 610.434 219.132 610.434C219.468 610.434 219.65 610.252 219.65 609.916V606.486C218.306 606.57 216.85 606.654 215.268 606.724L214.988 605.828C215.31 605.8 215.604 605.73 215.87 605.646C217.018 605.142 218.306 604.358 219.734 603.294C218.516 603.392 217.2 603.476 215.8 603.56L215.59 602.664C215.842 602.636 216.066 602.566 216.276 602.482C216.976 602.132 217.802 601.446 218.754 600.41C217.564 600.466 216.304 600.494 214.96 600.494L214.666 599.612C218.684 599.612 222.03 599.318 224.69 598.73L225.18 599.584C223.724 599.92 222.016 600.172 220.028 600.326C219.16 601.334 218.278 602.118 217.382 602.706C218.502 602.65 219.636 602.566 220.784 602.468C221.414 601.964 222.058 601.404 222.73 600.802L223.654 601.264C221.288 603.35 219.23 604.848 217.466 605.772C219.748 605.646 221.708 605.492 223.332 605.296C222.982 604.848 222.618 604.386 222.24 603.938L222.996 603.476C224.144 604.82 225.026 605.982 225.642 606.976L224.83 607.55C224.564 607.074 224.256 606.598 223.92 606.108C222.954 606.22 221.876 606.318 220.672 606.416V610.168C220.672 610.952 220.266 611.358 219.482 611.358ZM222.59 607.27C224.004 608.292 225.18 609.314 226.132 610.35L225.418 611.064C224.564 610.084 223.402 609.034 221.918 607.914L222.59 607.27ZM217.256 607.368L217.97 607.998C217.018 609.146 215.842 610.14 214.442 610.994L213.812 610.182C215.184 609.37 216.332 608.432 217.256 607.368ZM232.348 608.208V609.174C231.06 609.818 229.604 610.35 227.98 610.742L227.854 609.734C229.562 609.356 231.06 608.852 232.348 608.208ZM230.108 598.534L231.074 598.926C230.374 600.718 229.66 602.146 228.932 603.21C229.548 603.126 230.164 603.014 230.78 602.902C231.032 602.426 231.284 601.936 231.55 601.404L232.46 601.754C231.228 604.078 230.206 605.744 229.394 606.752C230.374 606.5 231.354 606.164 232.348 605.73V606.668C230.878 607.284 229.464 607.69 228.12 607.914L227.84 606.99C228.022 606.906 228.176 606.794 228.302 606.682C228.834 606.122 229.492 605.184 230.262 603.84C229.506 603.98 228.736 604.12 227.966 604.232L227.7 603.308C227.868 603.238 228.008 603.112 228.148 602.916C228.904 601.642 229.548 600.186 230.108 598.534ZM232.824 604.68L232.6 603.784C232.684 603.756 232.74 603.728 232.796 603.714C233.272 603.364 233.874 602.468 234.63 601.012H232.236V600.046H235.806C235.61 599.514 235.4 599.038 235.176 598.604L236.198 598.436C236.408 598.912 236.618 599.458 236.814 600.046H239.964V601.012H235.68C235.064 602.23 234.518 603.112 234.042 603.672C235.344 603.56 236.646 603.406 237.934 603.196C237.626 602.748 237.29 602.286 236.94 601.838L237.71 601.362C238.662 602.58 239.404 603.644 239.922 604.568L239.138 605.114C238.942 604.75 238.732 604.4 238.494 604.036C236.758 604.316 234.868 604.526 232.824 604.68ZM233.958 605.254H234.938C234.868 607.018 234.644 608.32 234.28 609.146C233.874 610.014 233.202 610.756 232.25 611.372L231.606 610.574C232.432 610.042 233.02 609.426 233.37 608.712C233.706 607.984 233.902 606.836 233.958 605.254ZM238.942 611.148H237.962C237.122 611.148 236.702 610.742 236.702 609.93V605.128H237.668V609.762C237.668 610.056 237.766 610.21 237.99 610.238H238.9C239.208 610.21 239.39 610.042 239.446 609.734C239.502 609.342 239.544 608.74 239.544 607.914L240.412 608.222C240.412 609.538 240.314 610.364 240.132 610.672C239.95 610.952 239.558 611.12 238.942 611.148ZM248.238 606.976V607.774C246.824 607.914 244.71 608.04 241.91 608.138L241.798 607.284C242.792 607.27 243.716 607.242 244.556 607.214V606.01H242.036V605.198H244.556V604.05H241.966V599.08H248.112V604.05H245.452V605.198H248V606.01H245.452V607.172C246.516 607.116 247.44 607.06 248.238 606.976ZM242.232 608.656L243.072 608.754C242.988 609.776 242.806 610.686 242.498 611.47L241.658 611.204C241.966 610.462 242.148 609.608 242.232 608.656ZM244.514 608.754C244.654 609.342 244.752 610.168 244.808 611.204L243.954 611.302C243.926 610.238 243.842 609.426 243.73 608.838L244.514 608.754ZM247.622 608.474C247.944 609.23 248.196 609.93 248.378 610.574C249.624 608.474 250.338 606.052 250.534 603.322H248.77V602.356H250.576C250.604 600.718 250.618 599.472 250.618 598.604H251.584C251.584 599.64 251.57 600.9 251.556 602.356H254.02V603.322H251.612C252.046 606.5 252.998 608.95 254.468 610.672L253.782 611.428C252.536 609.846 251.682 607.858 251.234 605.464C250.786 607.816 250.016 609.818 248.924 611.442L248.28 610.728C248.294 610.7 248.308 610.672 248.322 610.658L247.65 610.91C247.454 610.14 247.202 609.398 246.908 608.67L247.622 608.474ZM246.068 608.6C246.32 609.272 246.53 610.028 246.726 610.896L245.914 611.106C245.76 610.322 245.564 609.566 245.34 608.838L246.068 608.6ZM252.76 599.066C253.376 599.85 253.838 600.55 254.16 601.138L253.46 601.642C253.124 600.998 252.662 600.27 252.074 599.486L252.76 599.066ZM247.3 603.266V599.864H245.382V603.266H247.3ZM244.654 603.266V599.864H242.778V603.266H244.654ZM246.264 600.592L246.796 600.718C246.712 601.39 246.558 602.048 246.334 602.692L245.802 602.51C246.026 601.908 246.18 601.264 246.264 600.592ZM243.702 600.648C243.912 601.208 244.094 601.838 244.262 602.552L243.744 602.692C243.59 602.048 243.394 601.418 243.17 600.816L243.702 600.648ZM263.778 598.632H264.814C264.814 599.808 264.772 600.914 264.688 601.922C265.43 605.506 266.718 608.362 268.552 610.462L267.824 611.302C266.326 609.398 265.192 607.046 264.408 604.274C264.338 604.666 264.268 605.03 264.198 605.394C263.666 607.802 262.476 609.79 260.614 611.33L259.928 610.504C261.552 609.132 262.644 607.41 263.176 605.324C263.568 603.574 263.778 601.348 263.778 598.632ZM257.268 598.702C258.22 599.416 259.018 600.13 259.662 600.858L258.976 601.558C258.388 600.872 257.576 600.144 256.568 599.388L257.268 598.702ZM255.63 602.846H258.654V608.964C259.158 608.544 259.704 608.068 260.278 607.522L260.53 608.558C259.662 609.384 258.738 610.126 257.758 610.77L257.366 609.874C257.576 609.706 257.688 609.496 257.688 609.272V603.812H255.63V602.846ZM272.374 602.146C271.814 603.42 271.1 604.484 270.232 605.352L269.588 604.526C270.904 603.154 271.8 601.292 272.262 598.954L273.284 599.136C273.13 599.864 272.948 600.536 272.738 601.166H275.734V598.674H276.756V601.166H281.362V602.146H276.756V605.38H281.082V606.36H276.756V609.916H282.258V610.924H269.924V609.916H275.734V606.36H271.618V605.38H275.734V602.146H272.374ZM293.416 598.52C294.088 599.024 294.662 599.542 295.138 600.06L294.494 600.704H296.202V601.67H291.89C291.988 603.406 292.17 604.778 292.422 605.786C292.506 606.136 292.604 606.458 292.702 606.766C293.402 605.646 293.962 604.33 294.396 602.832L295.306 603.224C294.746 605.072 294.018 606.64 293.122 607.9C293.318 608.348 293.528 608.74 293.752 609.062C294.214 609.734 294.592 610.07 294.872 610.07C295.124 610.056 295.362 609.328 295.572 607.886L296.482 608.39C296.146 610.252 295.67 611.19 295.04 611.19C294.452 611.19 293.822 610.77 293.15 609.93C292.898 609.594 292.66 609.202 292.45 608.768C291.47 609.916 290.322 610.77 289.006 611.358L288.446 610.518C289.846 609.888 291.036 608.964 292.002 607.746C291.806 607.228 291.624 606.668 291.47 606.066C291.162 604.89 290.966 603.42 290.854 601.67H286.052V603.994H289.482C289.454 606.36 289.342 607.886 289.16 608.572C288.978 609.174 288.544 609.482 287.844 609.51C287.508 609.51 287.102 609.482 286.654 609.454L286.346 608.544C286.892 608.572 287.354 608.586 287.732 608.586C288.04 608.572 288.236 608.362 288.32 607.97C288.404 607.494 288.446 606.486 288.474 604.946H286.052V605.366C285.996 607.872 285.436 609.888 284.4 611.4L283.63 610.714C284.526 609.426 284.988 607.648 285.03 605.366V600.704H290.812C290.784 600.004 290.77 599.29 290.77 598.534H291.806C291.806 599.318 291.82 600.032 291.848 600.704H294.466C294.046 600.2 293.486 599.682 292.772 599.136L293.416 598.52ZM298.12 598.422H299.1C299.702 599.318 300.178 600.284 300.542 601.306C300.948 602.51 301.158 603.728 301.158 604.974C301.158 606.192 300.948 607.41 300.542 608.614C300.178 609.622 299.702 610.588 299.1 611.498H298.12C298.68 610.56 299.114 609.594 299.45 608.6C299.856 607.368 300.066 606.15 300.066 604.96C300.066 603.756 299.856 602.552 299.45 601.32C299.114 600.312 298.68 599.346 298.12 598.422Z" fill="#959595"/>
<rect width="332" height="302" transform="translate(16 641)" fill="#090909"/>
<rect x="16" y="891" width="332" height="44" rx="8" fill="#E94140"/>
<path d="M33.81 912.134H31.206V917.468C31.206 917.804 31.388 917.986 31.766 917.986H34.202C34.622 917.986 34.888 917.874 34.986 917.664C35.098 917.44 35.182 916.964 35.238 916.25L36.484 916.67C36.372 917.888 36.204 918.63 35.952 918.882C35.728 919.106 35.266 919.218 34.594 919.218H31.192C30.31 919.218 29.876 918.798 29.876 917.958V911.308L29.204 911.98L28.42 910.902C29.75 909.684 30.968 908.242 32.074 906.59H33.054C34.286 907.878 35.462 909.222 36.554 910.622L35.686 911.532C34.482 909.936 33.488 908.704 32.676 907.85C31.948 908.928 31.136 909.964 30.212 910.958H35.112V914.822C35.098 915.592 34.678 915.998 33.838 916.054C33.292 916.054 32.774 916.04 32.284 916.012L31.962 914.766C32.48 914.822 32.928 914.85 33.32 914.85C33.642 914.85 33.81 914.682 33.81 914.374V912.134ZM37.184 907.752H38.486V916.39H37.184V907.752ZM39.606 919.316H37.492L37.184 918.042C37.87 918.098 38.528 918.126 39.144 918.126C39.48 918.126 39.648 917.916 39.648 917.51V906.562H40.978V917.846C40.978 918.826 40.516 919.316 39.606 919.316ZM43.904 906.576C44.828 907.346 45.626 908.116 46.27 908.872L45.332 909.796C44.772 909.068 44.002 908.284 42.994 907.444L43.904 906.576ZM51.912 919.204C51.156 919.204 50.316 919.19 49.42 919.176C48.51 919.162 47.768 919.078 47.194 918.938C46.634 918.77 46.144 918.434 45.724 917.958C45.528 917.72 45.346 917.608 45.192 917.608C44.884 917.608 44.38 918.238 43.666 919.512L42.686 918.602C43.386 917.454 44.03 916.74 44.59 916.46V912.498H42.714V911.266H45.836V916.572C45.892 916.628 45.962 916.684 46.032 916.768C46.368 917.146 46.704 917.426 47.04 917.608C47.46 917.804 48.076 917.93 48.916 917.958C49.7 917.972 50.638 917.986 51.73 917.986C52.416 917.986 53.116 917.972 53.83 917.958C54.53 917.944 55.076 917.916 55.468 917.888L55.146 919.204H51.912ZM48.608 909.334C48.384 909.81 48.132 910.244 47.866 910.65L46.774 909.964C47.446 909.012 47.922 907.976 48.202 906.856L49.42 907.108C49.322 907.458 49.224 907.794 49.112 908.102H50.512V906.534H51.786V908.102H54.544V909.334H51.786V910.832H55.272V912.05H46.62V910.832H50.512V909.334H48.608ZM47.754 912.932H54.25V917.062H47.754V912.932ZM52.976 915.844V914.15H49.028V915.844H52.976Z" fill="#E9E9E7"/>
<path d="M325.24 919.277C325.093 919.199 324.916 919.199 324.768 919.277L321.696 920.92C321.33 921.115 320.899 920.805 320.968 920.395L321.558 916.893C321.586 916.733 321.533 916.569 321.417 916.455L318.91 913.969C318.617 913.679 318.781 913.179 319.189 913.119L322.64 912.609C322.803 912.585 322.944 912.481 323.017 912.332L324.554 909.165C324.736 908.789 325.271 908.789 325.453 909.165L326.991 912.332C327.063 912.481 327.204 912.584 327.367 912.609L330.819 913.119C331.226 913.179 331.39 913.678 331.098 913.968L328.59 916.455C328.474 916.569 328.422 916.733 328.449 916.893L329.04 920.395C329.109 920.805 328.677 921.115 328.311 920.919L325.24 919.277ZM331.201 909.273C331.054 909.194 330.877 909.194 330.73 909.273L330.111 909.603C329.745 909.799 329.314 909.489 329.383 909.079L329.505 908.355C329.532 908.195 329.479 908.031 329.364 907.917L328.84 907.398C328.548 907.108 328.712 906.608 329.119 906.548L329.828 906.444C329.991 906.419 330.132 906.316 330.205 906.167L330.515 905.527C330.698 905.151 331.233 905.151 331.415 905.527L331.726 906.167C331.798 906.316 331.939 906.419 332.103 906.444L332.811 906.548C333.219 906.608 333.383 907.108 333.09 907.398L332.567 907.916C332.452 908.031 332.399 908.194 332.426 908.354L332.548 909.079C332.617 909.489 332.186 909.799 331.82 909.603L331.201 909.273ZM320.831 908.541C320.831 908.541 320.831 908.541 320.831 908.541L320.414 908.764C320.155 908.902 319.85 908.683 319.899 908.393L319.94 908.154C319.965 908.002 319.915 907.848 319.806 907.74L319.797 907.731C319.522 907.458 319.679 906.988 320.062 906.931C320.214 906.909 320.346 906.812 320.413 906.674C320.582 906.325 321.08 906.325 321.249 906.674C321.316 906.812 321.448 906.909 321.6 906.931C321.983 906.988 322.139 907.458 321.864 907.731L321.855 907.739C321.746 907.847 321.696 908.002 321.721 908.153L321.834 908.824C321.853 908.937 321.734 909.023 321.633 908.969L320.831 908.54C320.831 908.54 320.831 908.541 320.831 908.541Z" fill="#F6F6F6"/>
<defs>
<clipPath id="clip0_2565_69895">
<rect width="16" height="16" fill="white" transform="translate(46.5 128) rotate(-90)"/>
</clipPath>
<clipPath id="clip1_2565_69895">
<rect width="16" height="16" fill="white" transform="translate(46.5 112)"/>
</clipPath>
<clipPath id="clip2_2565_69895">
<rect width="16" height="16" fill="white" transform="translate(218 355) rotate(-90)"/>
</clipPath>
<clipPath id="clip3_2565_69895">
<rect width="15" height="15" fill="white" transform="translate(218.5 339.5)"/>
</clipPath>
<clipPath id="clip4_2565_69895">
<rect width="16" height="16" fill="white" transform="translate(244 355) rotate(-90)"/>
</clipPath>
<clipPath id="clip5_2565_69895">
<rect width="16" height="16" fill="white" transform="translate(270 355) rotate(-90)"/>
</clipPath>
<clipPath id="clip6_2565_69895">
<rect width="16" height="16" fill="white" transform="translate(270 339)"/>
</clipPath>
<clipPath id="clip7_2565_69895">
<rect width="16" height="16" fill="white" transform="translate(296 355) rotate(-90)"/>
</clipPath>
<clipPath id="clip8_2565_69895">
<rect width="16" height="16" fill="white" transform="translate(296 339)"/>
</clipPath>
<clipPath id="clip9_2565_69895">
<rect width="16" height="16" fill="white" transform="translate(322 355) rotate(-90)"/>
</clipPath>
<clipPath id="clip10_2565_69895">
<rect width="16" height="16" fill="white" transform="translate(322 339)"/>
</clipPath>
<clipPath id="clip11_2565_69895">
<rect width="16" height="16" fill="white" transform="translate(320 405) rotate(-90)"/>
</clipPath>
<clipPath id="clip12_2565_69895">
<rect width="16" height="16" fill="white" transform="translate(73 457) rotate(-90)"/>
</clipPath>
<clipPath id="clip13_2565_69895">
<rect width="16" height="16" fill="white" transform="translate(73 441)"/>
</clipPath>
<clipPath id="clip14_2565_69895">
<rect width="16" height="16" fill="white" transform="translate(150 457) rotate(-90)"/>
</clipPath>
<clipPath id="clip15_2565_69895">
<rect width="16" height="16" fill="white" transform="translate(320 457) rotate(-90)"/>
</clipPath>
<clipPath id="clip16_2565_69895">
<rect width="16" height="16" fill="white" transform="translate(150 509) rotate(-90)"/>
</clipPath>
<clipPath id="clip17_2565_69895">
<rect width="16" height="16" fill="white" transform="translate(320 509) rotate(-90)"/>
</clipPath>
<clipPath id="clip18_2565_69895">
<rect width="16" height="16" fill="white" transform="translate(320 561) rotate(-90)"/>
</clipPath>
</defs>
</svg>
