<svg width="364" height="959" viewBox="0 0 364 959" fill="none" xmlns="http://www.w3.org/2000/svg">
<rect width="364" height="959" fill="black"/>
<rect x="16.5" y="16.5" width="331" height="39" rx="7.5" stroke="#1F1F1F"/>
<rect x="19" y="19" width="163" height="34" rx="6" fill="#343434"/>
<path d="M73.382 30.556H78.828V29.534H80.172V30.556H85.604V31.76H80.172V32.754H84.876V33.944H74.152V32.754H78.828V31.76H73.382V30.556ZM78.968 35.918H75.748V36.772C75.748 36.94 75.734 37.122 75.734 37.29H78.968V35.918ZM80.312 37.29H83.336V35.918H80.312V37.29ZM75.622 38.466C75.412 40.006 74.922 41.364 74.138 42.554L73.032 41.574C73.956 40.342 74.418 38.732 74.432 36.772V34.756H84.624V38.466H75.622ZM98.022 36.058V42.442H96.692V41.882H90.364V42.442H89.034V36.058H98.022ZM90.364 40.734H96.692V39.558H90.364V40.734ZM90.364 38.424H96.692V37.22H90.364V38.424ZM87.942 30.78H92.856C92.66 30.36 92.464 29.968 92.24 29.604L93.668 29.38C93.864 29.8 94.046 30.262 94.228 30.78H99.072V32.012H96.916C96.734 32.684 96.482 33.328 96.174 33.944H99.716V35.176H87.284V33.944H90.756C90.546 33.244 90.322 32.6 90.098 32.012H87.942V30.78ZM91.484 32.012C91.68 32.6 91.876 33.244 92.058 33.944H94.872C95.18 33.328 95.432 32.684 95.6 32.012H91.484ZM106.828 29.492H108.172V30.878H113.534V32.166H108.172V33.384H111.98V37.682H109.642V40.384C109.642 40.72 109.824 40.902 110.202 40.902H111.784C111.966 40.902 112.134 40.846 112.302 40.734C112.47 40.622 112.596 40.146 112.652 39.334L113.912 39.754C113.758 40.944 113.562 41.644 113.31 41.854C113.016 42.064 112.624 42.176 112.12 42.19H109.824C108.83 42.19 108.34 41.658 108.34 40.608V37.682H106.338C106.17 38.942 105.834 39.866 105.316 40.482C104.644 41.238 103.524 41.91 101.984 42.484L101.13 41.392C102.502 40.972 103.482 40.454 104.07 39.852C104.532 39.376 104.826 38.662 104.966 37.682H103.006V33.384H106.828V32.166H101.466V30.878H106.828V29.492ZM110.664 36.436V34.644H104.322V36.436H110.664ZM120.814 35.064H126.442V36.114H124.398V37.01H127.086V38.102H124.398V38.998H126.722V40.09H124.398V41H127.758V42.134H119.4V41H123.152V40.09H120.66V38.998H123.152V38.102H121.15C120.828 38.676 120.478 39.18 120.086 39.614L119.428 38.816C119.372 39.152 119.274 39.404 119.134 39.586C118.77 39.922 118.154 40.104 117.286 40.118L116.866 38.858C117.146 38.886 117.37 38.914 117.552 38.914C117.804 38.886 117.986 38.83 118.084 38.732C118.168 38.634 118.224 38.466 118.224 38.214C118.224 37.262 117.86 36.212 117.16 35.036C117.692 33.608 118.112 32.32 118.406 31.172H116.768V42.414H115.508V29.996H119.694V30.976C119.33 32.208 118.91 33.496 118.42 34.84C119.064 36.128 119.428 37.248 119.484 38.214C119.484 38.312 119.47 38.396 119.47 38.48C119.988 37.92 120.436 37.178 120.828 36.268L121.864 36.492C121.794 36.674 121.724 36.842 121.668 37.01H123.152V36.114H120.814V35.064ZM122.186 29.45L123.418 29.73C123.264 29.996 123.11 30.248 122.942 30.486H126.792V31.494C126.4 32.18 125.812 32.796 125.014 33.328C125.882 33.636 126.876 33.874 128.024 34.056L127.59 35.162C126.05 34.896 124.776 34.518 123.74 34.028C122.676 34.504 121.374 34.91 119.848 35.232L119.246 34.154C120.52 33.958 121.612 33.692 122.536 33.356C122.074 33.034 121.682 32.698 121.374 32.334C121.038 32.642 120.688 32.936 120.338 33.188L119.54 32.236C120.576 31.564 121.458 30.626 122.186 29.45ZM123.768 32.796C124.426 32.432 124.944 32.026 125.336 31.55H122.13L122.116 31.564C122.536 32.04 123.082 32.446 123.768 32.796Z" fill="#F6F6F6"/>
<path d="M236.326 31.774H241.968C241.604 31.102 241.156 30.472 240.624 29.87L241.954 29.38C242.458 30.052 242.934 30.85 243.368 31.774H248.674V33.09H246.532C245.86 35.218 244.866 36.996 243.55 38.438C245.006 39.628 246.826 40.622 248.982 41.406L248.24 42.526C245.986 41.686 244.11 40.636 242.626 39.376C241.044 40.776 239.098 41.812 236.788 42.484L236.074 41.308C238.342 40.72 240.204 39.796 241.688 38.522C240.148 36.982 239.07 35.162 238.468 33.09H236.326V31.774ZM239.742 33.09C240.33 34.812 241.282 36.324 242.612 37.612C243.746 36.366 244.6 34.854 245.16 33.09H239.742ZM252.734 33.412H254.008V35.386H255.464V36.576H254.008V38.172C254.638 38.046 255.24 37.906 255.8 37.766V39.026C255.226 39.166 254.624 39.306 254.008 39.446V42.428H252.734V39.698C251.922 39.838 251.068 39.978 250.186 40.09L250.018 38.788C250.97 38.676 251.88 38.55 252.734 38.41V36.576H250.494L250.214 35.4C250.578 34.644 250.928 33.692 251.25 32.53H250.018V31.242H251.586C251.712 30.696 251.838 30.122 251.95 29.52L253.21 29.702C253.098 30.234 252.986 30.752 252.874 31.242H255.394V32.53H252.538C252.23 33.594 251.908 34.546 251.558 35.386H252.734V33.412ZM255.954 31.242H258.068C258.18 30.668 258.278 30.094 258.376 29.506L259.678 29.632C259.58 30.192 259.482 30.724 259.398 31.242H262.646V32.53H259.132C259.034 32.978 258.936 33.412 258.838 33.832H262.996V35.106H258.516C258.362 35.638 258.208 36.142 258.068 36.604H262.436V37.696C261.988 38.592 261.316 39.474 260.392 40.37C260.896 40.678 261.372 41.014 261.834 41.35L261.092 42.498C259.65 41.378 258.18 40.496 256.668 39.852L257.382 38.802C258.054 39.082 258.698 39.404 259.314 39.754C260.042 39.11 260.63 38.452 261.064 37.78H256.416C256.696 36.926 256.948 36.03 257.2 35.106H255.548V33.832H257.522C257.62 33.384 257.718 32.95 257.816 32.53H255.954V31.242ZM268.82 30.01H276.562V31.242H272.726L272.46 32.474H275.764V35.176H277.01V36.408H268.484V35.176H270.57L270.892 33.678H269.156V32.474H271.144L271.41 31.242H268.82V30.01ZM271.886 35.176H274.434V33.678H272.208L271.886 35.176ZM276.128 37.472V42.47H274.826V41.882H270.766V42.47H269.464V37.472H276.128ZM270.766 40.636H274.826V38.69H270.766V40.636ZM265.95 29.646C266.832 30.318 267.588 31.004 268.204 31.676L267.294 32.6C266.748 31.956 265.992 31.284 265.012 30.556L265.95 29.646ZM264.032 33.692H267.266V39.586C267.644 39.236 268.05 38.844 268.484 38.41L268.848 39.81C268.008 40.636 267.098 41.378 266.146 42.022L265.642 40.832C265.866 40.636 265.992 40.398 265.992 40.118V34.966H264.032V33.692ZM289.022 36.058V42.442H287.692V41.882H281.364V42.442H280.034V36.058H289.022ZM281.364 40.734H287.692V39.558H281.364V40.734ZM281.364 38.424H287.692V37.22H281.364V38.424ZM278.942 30.78H283.856C283.66 30.36 283.464 29.968 283.24 29.604L284.668 29.38C284.864 29.8 285.046 30.262 285.228 30.78H290.072V32.012H287.916C287.734 32.684 287.482 33.328 287.174 33.944H290.716V35.176H278.284V33.944H281.756C281.546 33.244 281.322 32.6 281.098 32.012H278.942V30.78ZM282.484 32.012C282.68 32.6 282.876 33.244 283.058 33.944H285.872C286.18 33.328 286.432 32.684 286.6 32.012H282.484Z" fill="#F6F6F6"/>
<path d="M25.876 76.764V82.236H24.736V81.756H19.312V82.236H18.172V76.764H25.876ZM19.312 80.772H24.736V79.764H19.312V80.772ZM19.312 78.792H24.736V77.76H19.312V78.792ZM17.236 72.24H21.448C21.28 71.88 21.112 71.544 20.92 71.232L22.144 71.04C22.312 71.4 22.468 71.796 22.624 72.24H26.776V73.296H24.928C24.772 73.872 24.556 74.424 24.292 74.952H27.328V76.008H16.672V74.952H19.648C19.468 74.352 19.276 73.8 19.084 73.296H17.236V72.24ZM20.272 73.296C20.44 73.8 20.608 74.352 20.764 74.952H23.176C23.44 74.424 23.656 73.872 23.8 73.296H20.272ZM33.652 75.576H31.096V77.46H33.652V75.576ZM34.792 77.46H37.324V75.576H34.792V77.46ZM31.912 73.224C31.48 73.692 31.012 74.124 30.532 74.508H34.36C34.744 74.148 35.128 73.716 35.536 73.224H31.912ZM29.944 74.964C29.692 75.132 29.452 75.3 29.212 75.456L28.444 74.532C29.908 73.704 31.156 72.552 32.2 71.088L33.364 71.34C33.172 71.64 32.968 71.928 32.764 72.192H37.012V73.056C36.628 73.62 36.244 74.1 35.872 74.508H38.476V78.54H31.096V80.412C31.096 80.76 31.288 80.94 31.648 80.94H37.216C37.588 80.916 37.84 80.808 37.96 80.592C38.056 80.424 38.164 79.944 38.26 79.152L39.376 79.512C39.28 80.292 39.16 80.844 39.04 81.18C38.824 81.732 38.344 82.02 37.6 82.044H31.168C30.352 82.044 29.944 81.648 29.944 80.856V74.964ZM40.804 76.668H46.036C46.168 76.092 46.252 75.468 46.288 74.796V71.184H47.428V74.796C47.404 75.468 47.332 76.092 47.212 76.668H51.256V77.784H46.9C46.828 77.976 46.744 78.168 46.66 78.36C48.46 79.38 49.972 80.4 51.22 81.42L50.404 82.224C49.384 81.288 47.98 80.292 46.192 79.224C46.096 79.368 46 79.5 45.904 79.632C44.98 80.76 43.48 81.624 41.416 82.236L40.804 81.276C42.892 80.64 44.32 79.836 45.064 78.852C45.292 78.516 45.496 78.168 45.664 77.784H40.804V76.668ZM41.86 73.68C42.844 74.112 43.756 74.628 44.584 75.228L43.96 76.176C43.084 75.504 42.184 74.964 41.26 74.568L41.86 73.68ZM43.18 71.76C44.02 72.132 44.8 72.576 45.508 73.092L44.896 74.004C44.152 73.428 43.372 72.972 42.58 72.648L43.18 71.76ZM56.08 74.256C55.984 74.304 55.912 74.352 55.84 74.4L55.144 73.56C56.248 72.96 57.196 72.12 57.988 71.052L59.14 71.316L58.708 71.892H61.588V72.612C61.336 72.948 61.084 73.236 60.844 73.5H62.908V76.32H59.464C59.872 76.764 60.208 77.244 60.448 77.76C61.192 77.424 61.828 77.016 62.344 76.536L63.088 77.388C62.74 77.664 62.368 77.916 61.984 78.132C62.296 79.128 62.848 80.016 63.628 80.796L62.872 81.732C62.08 80.772 61.492 79.716 61.132 78.564L60.796 78.708C60.892 79.092 60.952 79.512 60.976 79.944C60.976 80.796 60.832 81.384 60.544 81.72C60.304 81.996 59.848 82.176 59.2 82.248C58.984 82.272 58.756 82.284 58.504 82.284L58.156 81.264C58.516 81.264 58.828 81.252 59.068 81.24C59.296 81.216 59.488 81.132 59.632 80.964C59.764 80.784 59.836 80.448 59.836 79.944C59.836 79.884 59.824 79.824 59.824 79.776C58.84 80.64 57.568 81.36 56.008 81.936L55.432 80.964C57.244 80.388 58.66 79.644 59.668 78.744C59.62 78.552 59.548 78.372 59.476 78.204C58.612 78.96 57.46 79.584 56.032 80.076L55.48 79.14C57.016 78.696 58.204 78.132 59.056 77.436C58.936 77.268 58.828 77.112 58.708 76.98C57.988 77.604 57.064 78.036 55.912 78.288L55.492 77.352C56.5 77.148 57.292 76.8 57.88 76.32H56.08V74.256ZM59.428 73.5C59.704 73.272 59.98 73.02 60.244 72.756H57.952C57.676 73.02 57.4 73.272 57.136 73.5H59.428ZM61.804 75.396V74.424H60.148C60.064 74.772 59.968 75.096 59.848 75.396H61.804ZM58.672 75.396C58.84 75.096 58.972 74.772 59.056 74.424H57.184V75.396H58.672ZM53.728 75.864C53.428 76.296 53.104 76.716 52.756 77.124L52.384 75.9C53.44 74.52 54.208 72.912 54.712 71.064L55.768 71.568C55.528 72.384 55.228 73.164 54.868 73.908V82.224H53.728V75.864Z" fill="#B1B1B1"/>
<rect x="16.5" y="94.5" width="76" height="76" rx="7.5" fill="#131313"/>
<rect x="16.5" y="94.5" width="76" height="76" rx="7.5" stroke="#686868" stroke-dasharray="3 3"/>
<g clip-path="url(#clip0_188_17178)">
<g clip-path="url(#clip1_188_17178)">
<path d="M54.4951 114V126" stroke="#E9E9E7" stroke-width="1.5" stroke-linecap="round"/>
<path d="M60.5 119.996L48.5 119.996" stroke="#E9E9E7" stroke-width="1.5" stroke-linecap="round"/>
</g>
</g>
<path d="M37.868 143.156V149.4H36.846V148.756H30.21V149.4H29.188V143.156H37.868ZM30.21 147.86H36.846V146.404H30.21V147.86ZM30.21 145.536H36.846V144.052H30.21V145.536ZM27.984 137.934H33.066C32.856 137.458 32.632 137.01 32.394 136.618L33.458 136.45C33.682 136.884 33.892 137.374 34.088 137.934H39.03V138.858H36.804C36.594 139.642 36.314 140.384 35.95 141.098H39.674V142.036H27.326V141.098H30.938C30.714 140.286 30.448 139.544 30.168 138.858H27.984V137.934ZM31.232 138.858C31.484 139.53 31.722 140.286 31.946 141.098H34.97C35.348 140.384 35.628 139.642 35.796 138.858H31.232ZM47.248 141.49H43.902V144.024H47.248V141.49ZM48.27 144.024H51.56V141.49H48.27V144.024ZM44.994 138.788C44.406 139.432 43.762 140.02 43.076 140.552H47.906C48.466 140.048 49.012 139.46 49.558 138.788H44.994ZM42.88 140.692C42.516 140.972 42.152 141.224 41.788 141.462L41.116 140.65C42.908 139.586 44.392 138.2 45.554 136.478L46.562 136.702C46.31 137.108 46.044 137.5 45.764 137.864H50.86V138.634C50.328 139.39 49.796 140.02 49.264 140.552H52.582V144.976H43.902V147.552C43.902 147.972 44.14 148.196 44.588 148.196H51.35C51.826 148.182 52.148 148.028 52.33 147.734C52.47 147.496 52.582 146.894 52.68 145.942L53.674 146.25C53.576 147.174 53.45 147.832 53.282 148.224C53.002 148.84 52.47 149.148 51.658 149.176H44.196C43.314 149.176 42.88 148.756 42.88 147.916V140.692ZM55.466 143.128H61.696C61.864 142.414 61.962 141.644 61.99 140.832V136.59H63.012V140.832C62.984 141.672 62.886 142.428 62.732 143.128H67.618V144.108H62.466C62.368 144.402 62.256 144.682 62.13 144.948C64.272 146.194 66.078 147.44 67.548 148.672L66.82 149.386C65.56 148.238 63.866 147.006 61.71 145.718C61.57 145.942 61.416 146.166 61.262 146.376C60.184 147.664 58.434 148.658 55.998 149.386L55.452 148.532C57.888 147.804 59.596 146.852 60.548 145.662C60.884 145.186 61.164 144.668 61.388 144.108H55.466V143.128ZM56.6 139.586C57.748 140.09 58.812 140.692 59.764 141.42L59.218 142.246C58.196 141.462 57.146 140.832 56.068 140.37L56.6 139.586ZM58.14 137.332C59.12 137.78 60.03 138.312 60.842 138.928L60.31 139.74C59.428 139.04 58.532 138.508 57.608 138.116L58.14 137.332ZM73.386 139.894C73.19 140.006 73.022 140.118 72.854 140.23L72.238 139.474C73.61 138.718 74.744 137.71 75.612 136.464L76.648 136.702C76.452 136.982 76.27 137.234 76.074 137.472H79.588V138.13C79.224 138.606 78.86 139.012 78.496 139.362H81.1V142.414H76.914L76.9 142.428C77.502 143.044 77.964 143.688 78.272 144.388C79.224 143.968 80.036 143.45 80.68 142.834L81.338 143.59C80.904 143.968 80.428 144.304 79.896 144.598C80.288 145.858 80.988 146.978 81.996 147.958L81.338 148.784C80.316 147.636 79.588 146.376 79.14 144.99C78.944 145.074 78.762 145.158 78.58 145.242C78.72 145.746 78.804 146.25 78.832 146.782C78.832 147.734 78.678 148.406 78.37 148.784C78.104 149.092 77.614 149.302 76.914 149.386C76.662 149.414 76.382 149.428 76.074 149.428L75.78 148.518C76.186 148.518 76.522 148.504 76.802 148.49C77.11 148.462 77.362 148.35 77.558 148.126C77.726 147.902 77.824 147.454 77.824 146.782C77.824 146.6 77.81 146.432 77.796 146.264C76.592 147.356 75.01 148.266 73.05 148.966L72.546 148.098C74.73 147.398 76.41 146.474 77.614 145.354C77.516 145.046 77.404 144.752 77.278 144.486C76.242 145.41 74.842 146.18 73.078 146.768L72.588 145.942C74.436 145.382 75.864 144.668 76.872 143.8C76.704 143.548 76.508 143.31 76.312 143.086C75.472 143.856 74.352 144.402 72.98 144.71L72.602 143.87C73.932 143.59 74.954 143.1 75.682 142.414H73.386V139.894ZM77.222 139.362C77.628 139.026 78.02 138.648 78.412 138.256H75.374C74.968 138.662 74.548 139.026 74.128 139.362H77.222ZM80.12 141.588V140.188H77.894C77.782 140.692 77.614 141.168 77.418 141.588H80.12ZM76.354 141.588C76.606 141.154 76.802 140.692 76.914 140.188H74.366V141.588H76.354ZM70.67 141.504C70.264 142.12 69.816 142.722 69.34 143.296L69.018 142.232C70.306 140.566 71.23 138.648 71.818 136.492L72.756 136.94C72.476 137.906 72.112 138.83 71.692 139.698V149.386H70.67V141.504Z" fill="#E9E9E7"/>
<path d="M25.876 191.764V197.236H24.736V196.756H19.312V197.236H18.172V191.764H25.876ZM19.312 195.772H24.736V194.764H19.312V195.772ZM19.312 193.792H24.736V192.76H19.312V193.792ZM17.236 187.24H21.448C21.28 186.88 21.112 186.544 20.92 186.232L22.144 186.04C22.312 186.4 22.468 186.796 22.624 187.24H26.776V188.296H24.928C24.772 188.872 24.556 189.424 24.292 189.952H27.328V191.008H16.672V189.952H19.648C19.468 189.352 19.276 188.8 19.084 188.296H17.236V187.24ZM20.272 188.296C20.44 188.8 20.608 189.352 20.764 189.952H23.176C23.44 189.424 23.656 188.872 23.8 188.296H20.272ZM33.652 190.576H31.096V192.46H33.652V190.576ZM34.792 192.46H37.324V190.576H34.792V192.46ZM31.912 188.224C31.48 188.692 31.012 189.124 30.532 189.508H34.36C34.744 189.148 35.128 188.716 35.536 188.224H31.912ZM29.944 189.964C29.692 190.132 29.452 190.3 29.212 190.456L28.444 189.532C29.908 188.704 31.156 187.552 32.2 186.088L33.364 186.34C33.172 186.64 32.968 186.928 32.764 187.192H37.012V188.056C36.628 188.62 36.244 189.1 35.872 189.508H38.476V193.54H31.096V195.412C31.096 195.76 31.288 195.94 31.648 195.94H37.216C37.588 195.916 37.84 195.808 37.96 195.592C38.056 195.424 38.164 194.944 38.26 194.152L39.376 194.512C39.28 195.292 39.16 195.844 39.04 196.18C38.824 196.732 38.344 197.02 37.6 197.044H31.168C30.352 197.044 29.944 196.648 29.944 195.856V189.964ZM49.876 191.764V197.236H48.736V196.756H43.312V197.236H42.172V191.764H49.876ZM43.312 195.772H48.736V194.764H43.312V195.772ZM43.312 193.792H48.736V192.76H43.312V193.792ZM41.236 187.24H45.448C45.28 186.88 45.112 186.544 44.92 186.232L46.144 186.04C46.312 186.4 46.468 186.796 46.624 187.24H50.776V188.296H48.928C48.772 188.872 48.556 189.424 48.292 189.952H51.328V191.008H40.672V189.952H43.648C43.468 189.352 43.276 188.8 43.084 188.296H41.236V187.24ZM44.272 188.296C44.44 188.8 44.608 189.352 44.764 189.952H47.176C47.44 189.424 47.656 188.872 47.8 188.296H44.272ZM54.868 186.184H55.984V187.492H57.46V188.56H55.984V189.664H57.616V190.78H52.492V189.664H53.092V187.168H54.184V189.664H54.868V186.184ZM56.848 191.644L57.844 191.872C57.316 194.572 55.768 196.348 53.2 197.2L52.552 196.156C53.848 195.772 54.856 195.148 55.6 194.296H54.82V191.128H55.912V193.888C56.356 193.24 56.668 192.484 56.848 191.644ZM53.392 191.68L54.388 192.076C54.112 193.204 53.752 194.08 53.308 194.692L52.456 193.948C52.876 193.372 53.188 192.616 53.392 191.68ZM57.748 186.568H63.46V187.636H61.144C61.12 188.008 61.084 188.368 61.036 188.704H63.124V194.524H62.02V189.748H59.176V194.524H58.084V188.704H59.848C59.896 188.356 59.932 187.996 59.968 187.636H57.748V186.568ZM61.588 194.476C62.38 195.136 63.052 195.796 63.604 196.444L62.764 197.284C62.308 196.636 61.66 195.952 60.82 195.208L61.588 194.476ZM60.016 190.348H61.12V192.46C61.072 193.768 60.796 194.812 60.292 195.592C59.788 196.312 58.984 196.876 57.856 197.272L57.232 196.276C58.288 195.892 59.008 195.424 59.392 194.86C59.764 194.236 59.968 193.444 60.016 192.46V190.348Z" fill="#B1B1B1"/>
<path d="M70.616 187.432H71.456L71.372 189.772L73.508 188.956L73.772 189.748L71.564 190.408L73.052 192.172L72.404 192.688L71.036 190.792L69.668 192.688L69.02 192.172L70.508 190.408L68.3 189.748L68.564 188.956L70.712 189.772L70.616 187.432Z" fill="#E94140"/>
<rect x="16" y="209" width="332" height="112" rx="8" fill="#131313"/>
<g clip-path="url(#clip2_188_17178)">
<path d="M144.5 241.199L149.5 235.999L154.5 241.199" stroke="#E9E9E7" stroke-width="1.5" stroke-linecap="round" stroke-linejoin="round"/>
<path d="M149.5 249L149.5 236.498" stroke="#E9E9E7" stroke-width="1.5" stroke-linecap="round" stroke-linejoin="round"/>
</g>
<path d="M167.324 236.562H168.36V240.888H173.554V241.868H168.36V247.86H174.744V248.84H162.284V247.86H167.324V236.562ZM177.838 241.588C177.376 242.204 176.872 242.806 176.326 243.366L176.004 242.288C177.488 240.622 178.58 238.704 179.266 236.548L180.218 236.996C179.854 238.074 179.406 239.096 178.846 240.062V249.428H177.838V241.588ZM180.4 238.354H183.13L183.55 236.548L184.53 236.646C184.39 237.234 184.264 237.808 184.138 238.354H188.366V239.334H183.886C183.732 239.894 183.578 240.44 183.41 240.958H188.94V241.924H183.088C182.864 242.568 182.626 243.156 182.402 243.702H188.156V244.57C187.568 245.55 186.63 246.53 185.342 247.51C186 247.86 186.63 248.238 187.246 248.644L186.672 249.512C184.964 248.336 183.2 247.412 181.408 246.74L181.94 245.956C182.808 246.292 183.648 246.656 184.46 247.048C185.566 246.278 186.434 245.48 187.078 244.64H181.086C181.45 243.772 181.8 242.862 182.122 241.924H179.784V240.958H182.43C182.598 240.412 182.752 239.866 182.892 239.334H180.4V238.354ZM200.868 243.156V249.4H199.846V248.756H193.21V249.4H192.188V243.156H200.868ZM193.21 247.86H199.846V246.404H193.21V247.86ZM193.21 245.536H199.846V244.052H193.21V245.536ZM190.984 237.934H196.066C195.856 237.458 195.632 237.01 195.394 236.618L196.458 236.45C196.682 236.884 196.892 237.374 197.088 237.934H202.03V238.858H199.804C199.594 239.642 199.314 240.384 198.95 241.098H202.674V242.036H190.326V241.098H193.938C193.714 240.286 193.448 239.544 193.168 238.858H190.984V237.934ZM194.232 238.858C194.484 239.53 194.722 240.286 194.946 241.098H197.97C198.348 240.384 198.628 239.642 198.796 238.858H194.232ZM206.972 236.562H207.952V238.214H209.856V239.166H207.952V240.79H210.024V241.77H204.116V240.79H204.928V237.696H205.894V240.79H206.972V236.562ZM209.282 242.946L210.164 243.142C209.548 246.264 207.756 248.322 204.788 249.302L204.214 248.392C207.028 247.524 208.722 245.704 209.282 242.946ZM205.278 243.002L206.16 243.352C205.824 244.668 205.404 245.676 204.872 246.376L204.13 245.732C204.634 245.046 205.026 244.136 205.278 243.002ZM206.944 242.316H207.91V245.97H206.944V242.316ZM210.248 237.122H216.828V238.074H214.028C213.986 238.606 213.93 239.11 213.86 239.614H216.324V246.264H215.344V240.552H211.718V246.264H210.752V239.614H212.81C212.894 239.11 212.95 238.606 212.992 238.074H210.248V237.122ZM214.56 246.334C215.512 247.132 216.324 247.916 216.982 248.7L216.24 249.442C215.666 248.672 214.882 247.846 213.888 246.978L214.56 246.334ZM213.006 241.392H213.986V243.87C213.958 245.368 213.636 246.558 213.048 247.454C212.474 248.28 211.536 248.924 210.22 249.386L209.66 248.518C210.906 248.07 211.774 247.496 212.264 246.796C212.726 246.04 212.978 245.074 213.006 243.87V241.392Z" fill="#E9E9E7"/>
<path d="M70.4695 264.196H71.3575V265.768H76.0735V266.608H71.3575V268.444H74.5855V269.212C73.9135 270.556 72.9415 271.708 71.6695 272.668C72.2695 273.004 72.9295 273.328 73.6495 273.616C74.5015 273.94 75.4135 274.216 76.3855 274.456L75.8815 275.212C74.8495 274.936 73.8655 274.6 72.9415 274.216C72.2095 273.904 71.5375 273.556 70.9375 273.172C69.5695 274.036 67.9375 274.72 66.0295 275.236L65.5375 274.468C67.3615 274.036 68.9215 273.436 70.2175 272.668C69.5935 272.2 69.0415 271.66 68.5735 271.06C68.1415 270.508 67.8295 269.896 67.6375 269.248H66.7135V268.444H70.4695V266.608H65.8015V265.768H70.4695V264.196ZM70.9255 272.2C72.0895 271.384 72.9895 270.4 73.6135 269.248H68.4895C68.7055 269.884 69.0415 270.448 69.4975 270.94C69.9175 271.42 70.3975 271.84 70.9255 272.2ZM84.4855 264.232H85.3375V265.48H87.7975V266.26H85.3375V267.664H88.2535V268.48H81.7015V267.664H84.4855V266.26H82.1335V265.48H84.4855V264.232ZM81.5095 270.016H85.9255V269.092H86.7895V270.016H88.2655V270.82H86.7895V274.048C86.7895 274.756 86.4295 275.116 85.7335 275.116H84.1375L83.9455 274.276C84.4615 274.3 84.9535 274.324 85.4215 274.324C85.7575 274.324 85.9255 274.156 85.9255 273.832V270.82H81.5095V270.016ZM78.9415 275.092H77.8855L77.7055 274.264C78.0295 274.3 78.3415 274.324 78.6415 274.324C78.9535 274.324 79.1215 274.144 79.1215 273.796V270.952C78.6535 271.12 78.1855 271.276 77.7295 271.42L77.5135 270.556C78.0655 270.424 78.5935 270.268 79.1215 270.076V267.328H77.6455V266.5H79.1215V264.352H79.9735V266.5H81.2215V267.328H79.9735V269.74C80.4055 269.548 80.8255 269.344 81.2335 269.128V270.016C80.8255 270.232 80.4055 270.424 79.9735 270.604V274.012C79.9735 274.732 79.6255 275.092 78.9415 275.092ZM82.7575 271.384C83.3815 272.116 83.8615 272.764 84.1975 273.316L83.5135 273.796C83.1535 273.196 82.6735 272.536 82.0615 271.804L82.7575 271.384ZM92.3935 267.628C93.3415 267.628 93.9895 268.012 94.3375 268.804C94.5775 268.396 94.8655 268.096 95.2015 267.916C95.5015 267.724 95.8615 267.628 96.2935 267.628C96.9415 267.628 97.4575 267.832 97.8655 268.24C98.2495 268.66 98.4535 269.224 98.4535 269.932V274H97.4935V270.088C97.4935 269.536 97.3735 269.128 97.1455 268.864C96.9055 268.576 96.5215 268.444 95.9935 268.444C95.5855 268.444 95.2375 268.588 94.9735 268.9C94.6855 269.212 94.5535 269.608 94.5535 270.112V274H93.5935V270.088C93.5935 268.984 93.1135 268.444 92.1655 268.444C91.7215 268.444 91.3615 268.612 91.0735 268.972C90.7855 269.308 90.6415 269.728 90.6415 270.22V274H89.6815V267.796H90.6415V268.624C91.1095 267.952 91.6975 267.628 92.3935 267.628ZM102.911 267.628C103.799 267.628 104.507 267.952 105.023 268.624C105.491 269.224 105.731 269.98 105.731 270.916C105.731 271.828 105.491 272.584 105.035 273.184C104.531 273.832 103.847 274.168 102.959 274.168C102.071 274.168 101.387 273.736 100.907 272.872V276.376H99.9471V267.796H100.847V268.816C101.291 268.024 101.975 267.628 102.911 267.628ZM102.791 268.42C102.167 268.42 101.675 268.66 101.339 269.152C101.027 269.584 100.871 270.16 100.871 270.856V270.976C100.871 271.696 101.039 272.272 101.399 272.716C101.735 273.148 102.179 273.376 102.755 273.376C103.427 273.376 103.931 273.136 104.279 272.68C104.591 272.248 104.747 271.66 104.747 270.916C104.747 270.184 104.591 269.596 104.303 269.164C103.955 268.66 103.451 268.42 102.791 268.42ZM109.918 265.264C110.734 265.264 111.406 265.468 111.91 265.888C112.402 266.308 112.654 266.872 112.654 267.592C112.654 268.552 112.186 269.2 111.25 269.512C111.754 269.668 112.138 269.908 112.402 270.244C112.69 270.58 112.834 271 112.834 271.504C112.834 272.284 112.558 272.92 112.018 273.412C111.466 273.916 110.746 274.168 109.858 274.168C109.042 274.168 108.382 273.952 107.866 273.544C107.254 273.04 106.918 272.308 106.846 271.348H107.842C107.866 272.02 108.094 272.536 108.514 272.884C108.874 273.172 109.318 273.328 109.858 273.328C110.47 273.328 110.962 273.148 111.334 272.8C111.67 272.464 111.85 272.044 111.85 271.54C111.85 271.024 111.682 270.628 111.346 270.34C111.01 270.052 110.554 269.92 109.954 269.92H109.258V269.152H109.918C110.494 269.152 110.926 269.02 111.226 268.768C111.526 268.504 111.682 268.132 111.682 267.652C111.682 267.172 111.526 266.8 111.238 266.536C110.926 266.248 110.482 266.116 109.93 266.116C109.354 266.116 108.91 266.26 108.586 266.572C108.25 266.884 108.058 267.328 107.998 267.904H107.026C107.098 267.076 107.41 266.428 107.938 265.96C108.442 265.492 109.102 265.264 109.918 265.264ZM115.506 272.32C115.962 272.644 116.43 273.04 116.886 273.52C117.282 273.928 117.63 274.348 117.918 274.756L117.318 275.26C117.03 274.852 116.682 274.444 116.298 274.036C115.854 273.556 115.41 273.16 114.966 272.824L115.506 272.32ZM128.886 267.628C129.834 267.628 130.482 268.012 130.83 268.804C131.07 268.396 131.358 268.096 131.694 267.916C131.994 267.724 132.354 267.628 132.786 267.628C133.434 267.628 133.95 267.832 134.358 268.24C134.742 268.66 134.946 269.224 134.946 269.932V274H133.986V270.088C133.986 269.536 133.866 269.128 133.638 268.864C133.398 268.576 133.014 268.444 132.486 268.444C132.078 268.444 131.73 268.588 131.466 268.9C131.178 269.212 131.046 269.608 131.046 270.112V274H130.086V270.088C130.086 268.984 129.606 268.444 128.658 268.444C128.214 268.444 127.854 268.612 127.566 268.972C127.278 269.308 127.134 269.728 127.134 270.22V274H126.174V267.796H127.134V268.624C127.602 267.952 128.19 267.628 128.886 267.628ZM140.303 265.432H141.227V271.252H142.619V272.056H141.227V274H140.291V272.056H135.983V271.12L140.303 265.432ZM140.255 266.716L136.811 271.252H140.291V266.716H140.255ZM146.335 267.628C147.223 267.628 147.871 267.856 148.303 268.324C148.663 268.732 148.855 269.296 148.855 270.016V274H147.955V272.956C147.715 273.292 147.391 273.568 147.007 273.784C146.551 274.036 146.035 274.168 145.459 274.168C144.835 274.168 144.343 274.012 143.971 273.7C143.587 273.376 143.395 272.956 143.395 272.452C143.395 271.744 143.671 271.216 144.247 270.856C144.751 270.52 145.471 270.34 146.407 270.328L147.895 270.304V269.98C147.895 268.936 147.355 268.42 146.275 268.42C145.819 268.42 145.447 268.504 145.159 268.696C144.835 268.888 144.631 269.188 144.535 269.584L143.587 269.512C143.719 268.864 144.043 268.372 144.547 268.06C145.003 267.772 145.591 267.628 146.335 267.628ZM147.895 271.024L146.467 271.048C145.075 271.072 144.379 271.528 144.379 272.428C144.379 272.716 144.487 272.944 144.727 273.136C144.967 273.316 145.279 273.412 145.663 273.412C146.251 273.412 146.767 273.22 147.223 272.836C147.667 272.464 147.895 272.032 147.895 271.552V271.024ZM151.67 272.32C152.126 272.644 152.594 273.04 153.05 273.52C153.446 273.928 153.794 274.348 154.082 274.756L153.482 275.26C153.194 274.852 152.846 274.444 152.462 274.036C152.018 273.556 151.574 273.16 151.13 272.824L151.67 272.32ZM161.654 267.796H162.71L164.234 272.824L165.674 267.796H166.574L168.014 272.824L169.538 267.796H170.594L168.482 274H167.57L166.13 269.008L164.666 274H163.766L161.654 267.796ZM174.096 267.628C174.984 267.628 175.632 267.856 176.064 268.324C176.424 268.732 176.616 269.296 176.616 270.016V274H175.716V272.956C175.476 273.292 175.152 273.568 174.768 273.784C174.312 274.036 173.796 274.168 173.22 274.168C172.596 274.168 172.104 274.012 171.732 273.7C171.348 273.376 171.156 272.956 171.156 272.452C171.156 271.744 171.432 271.216 172.008 270.856C172.512 270.52 173.232 270.34 174.168 270.328L175.656 270.304V269.98C175.656 268.936 175.116 268.42 174.036 268.42C173.58 268.42 173.208 268.504 172.92 268.696C172.596 268.888 172.392 269.188 172.296 269.584L171.348 269.512C171.48 268.864 171.804 268.372 172.308 268.06C172.764 267.772 173.352 267.628 174.096 267.628ZM175.656 271.024L174.228 271.048C172.836 271.072 172.14 271.528 172.14 272.428C172.14 272.716 172.248 272.944 172.488 273.136C172.728 273.316 173.04 273.412 173.424 273.412C174.012 273.412 174.528 273.22 174.984 272.836C175.428 272.464 175.656 272.032 175.656 271.552V271.024ZM177.415 267.796H178.471L180.247 272.8L182.023 267.796H183.079L180.727 274H179.755L177.415 267.796ZM190.261 268.996V275.152H189.409V269.128C189.037 270.268 188.545 271.312 187.945 272.248L187.573 271.312C188.413 270.16 189.025 268.852 189.397 267.376H187.813V266.548H189.409V264.208H190.261V266.548H191.569V267.376H190.261V268.024C190.765 268.6 191.281 269.236 191.797 269.944L191.785 269.956C192.841 269.524 193.765 269.032 194.533 268.468C194.017 267.976 193.585 267.472 193.249 266.944C192.937 267.352 192.601 267.736 192.253 268.084L191.701 267.424C192.577 266.596 193.285 265.516 193.837 264.184L194.665 264.364C194.545 264.676 194.413 264.976 194.269 265.264H197.653V265.936C197.221 266.896 196.585 267.748 195.769 268.504C196.573 269.068 197.545 269.56 198.673 269.98L198.289 270.784C197.041 270.256 196.009 269.668 195.169 269.008C194.257 269.716 193.141 270.316 191.833 270.82L191.509 270.388L191.329 270.664C190.909 269.968 190.549 269.416 190.261 268.996ZM197.629 270.7V275.176H196.789V274.648H193.393V275.176H192.553V270.7H197.629ZM193.393 273.844H196.789V271.504H193.393V273.844ZM195.121 268C195.781 267.424 196.309 266.788 196.705 266.092H193.813C193.765 266.164 193.729 266.248 193.681 266.32C194.053 266.932 194.533 267.496 195.121 268ZM199.921 266.344H205.789C205.753 265.66 205.741 264.952 205.741 264.22H206.629C206.629 264.964 206.641 265.672 206.677 266.344H210.385V267.184H206.725C206.869 269.2 207.181 270.868 207.649 272.212C208.153 273.532 208.609 274.204 209.005 274.204C209.245 274.168 209.497 273.484 209.749 272.14L210.529 272.548C210.169 274.276 209.677 275.152 209.065 275.164C207.997 275.116 207.109 273.772 206.389 271.156C206.113 270.016 205.933 268.696 205.837 267.184H199.921V266.344ZM200.101 269.176H205.189V269.992H203.077V273.112C203.965 272.944 204.817 272.74 205.657 272.524V273.364C203.929 273.784 202.057 274.132 200.065 274.42L199.861 273.604C200.653 273.508 201.445 273.388 202.213 273.268V269.992H200.101V269.176ZM208.441 264.28C208.837 264.76 209.209 265.288 209.569 265.864L208.849 266.224C208.501 265.624 208.129 265.096 207.721 264.628L208.441 264.28ZM213.373 272.572C213.637 272.572 213.865 272.68 214.033 272.908C214.189 273.124 214.273 273.4 214.273 273.748C214.273 274.276 214.117 274.744 213.805 275.152C213.493 275.536 213.073 275.8 212.569 275.932V275.344C212.881 275.236 213.133 275.056 213.325 274.816C213.505 274.564 213.589 274.3 213.589 274.012C213.541 274.036 213.445 274.06 213.325 274.06C213.121 274.06 212.953 273.988 212.809 273.844C212.665 273.7 212.593 273.52 212.593 273.316C212.593 273.088 212.665 272.908 212.809 272.776C212.953 272.632 213.133 272.572 213.373 272.572ZM227.581 265.096V273.94H226.741V273.136H224.965V274.228H224.125V265.096H227.581ZM224.965 272.332H226.741V269.44H224.965V272.332ZM224.965 268.636H226.741V265.888H224.965V268.636ZM229.309 268.672C230.053 269.8 230.629 270.784 231.025 271.624L230.305 272.128C229.885 271.228 229.321 270.22 228.601 269.116L229.309 268.672ZM232.045 275.08H229.945L229.765 274.24C230.461 274.264 231.121 274.288 231.757 274.288C232.105 274.288 232.285 274.096 232.285 273.724V267.232H228.133V266.404H232.285V264.292H233.161V266.404H234.637V267.232H233.161V273.94C233.161 274.696 232.789 275.08 232.045 275.08ZM235.873 268.852H238.309V264.256H239.173V268.852H246.445V269.692H242.497C243.001 271.612 244.369 273.112 246.589 274.192L246.085 274.996C243.661 273.712 242.197 271.948 241.669 269.692H239.173V274.036C240.073 273.82 240.973 273.544 241.861 273.208L242.089 274.036C240.913 274.444 239.653 274.792 238.309 275.104L238.033 274.312C238.213 274.216 238.309 274.084 238.309 273.892V269.692H235.873V268.852ZM244.621 264.352L245.209 264.94C244.249 266.02 242.797 266.992 240.877 267.856L240.361 267.172C242.269 266.332 243.685 265.396 244.621 264.352ZM249.901 265.432H250.669V274H249.685V266.632C249.145 267.184 248.473 267.568 247.669 267.808V266.824C248.053 266.716 248.461 266.548 248.869 266.308C249.277 266.044 249.613 265.756 249.901 265.432ZM255.557 265.264C256.577 265.264 257.345 265.708 257.873 266.62C258.329 267.388 258.557 268.42 258.557 269.716C258.557 271.012 258.329 272.044 257.873 272.812C257.345 273.712 256.577 274.168 255.557 274.168C254.525 274.168 253.757 273.712 253.241 272.812C252.785 272.044 252.557 271.012 252.557 269.716C252.557 268.42 252.785 267.388 253.241 266.62C253.757 265.708 254.525 265.264 255.557 265.264ZM255.557 266.104C254.789 266.104 254.237 266.512 253.901 267.34C253.661 267.916 253.541 268.708 253.541 269.716C253.541 270.712 253.661 271.504 253.901 272.092C254.237 272.908 254.789 273.328 255.557 273.328C256.325 273.328 256.877 272.908 257.213 272.092C257.453 271.504 257.585 270.712 257.585 269.716C257.585 268.708 257.453 267.916 257.213 267.34C256.877 266.512 256.325 266.104 255.557 266.104ZM259.752 270.484H265.812V271.3H259.752V270.484ZM270.102 265.264C270.918 265.264 271.59 265.468 272.094 265.888C272.586 266.308 272.838 266.872 272.838 267.592C272.838 268.552 272.37 269.2 271.434 269.512C271.938 269.668 272.322 269.908 272.586 270.244C272.874 270.58 273.018 271 273.018 271.504C273.018 272.284 272.742 272.92 272.202 273.412C271.65 273.916 270.93 274.168 270.042 274.168C269.226 274.168 268.566 273.952 268.05 273.544C267.438 273.04 267.102 272.308 267.03 271.348H268.026C268.05 272.02 268.278 272.536 268.698 272.884C269.058 273.172 269.502 273.328 270.042 273.328C270.654 273.328 271.146 273.148 271.518 272.8C271.854 272.464 272.034 272.044 272.034 271.54C272.034 271.024 271.866 270.628 271.53 270.34C271.194 270.052 270.738 269.92 270.138 269.92H269.442V269.152H270.102C270.678 269.152 271.11 269.02 271.41 268.768C271.71 268.504 271.866 268.132 271.866 267.652C271.866 267.172 271.71 266.8 271.422 266.536C271.11 266.248 270.666 266.116 270.114 266.116C269.538 266.116 269.094 266.26 268.77 266.572C268.434 266.884 268.242 267.328 268.182 267.904H267.21C267.282 267.076 267.594 266.428 268.122 265.96C268.626 265.492 269.286 265.264 270.102 265.264ZM277.213 265.264C278.233 265.264 279.001 265.708 279.529 266.62C279.985 267.388 280.213 268.42 280.213 269.716C280.213 271.012 279.985 272.044 279.529 272.812C279.001 273.712 278.233 274.168 277.213 274.168C276.181 274.168 275.413 273.712 274.897 272.812C274.441 272.044 274.213 271.012 274.213 269.716C274.213 268.42 274.441 267.388 274.897 266.62C275.413 265.708 276.181 265.264 277.213 265.264ZM277.213 266.104C276.445 266.104 275.893 266.512 275.557 267.34C275.317 267.916 275.197 268.708 275.197 269.716C275.197 270.712 275.317 271.504 275.557 272.092C275.893 272.908 276.445 273.328 277.213 273.328C277.981 273.328 278.533 272.908 278.869 272.092C279.109 271.504 279.241 270.712 279.241 269.716C279.241 268.708 279.109 267.916 278.869 267.34C278.533 266.512 277.981 266.104 277.213 266.104ZM284.409 265.264C285.429 265.264 286.197 265.708 286.725 266.62C287.181 267.388 287.409 268.42 287.409 269.716C287.409 271.012 287.181 272.044 286.725 272.812C286.197 273.712 285.429 274.168 284.409 274.168C283.377 274.168 282.609 273.712 282.093 272.812C281.637 272.044 281.409 271.012 281.409 269.716C281.409 268.42 281.637 267.388 282.093 266.62C282.609 265.708 283.377 265.264 284.409 265.264ZM284.409 266.104C283.641 266.104 283.089 266.512 282.753 267.34C282.513 267.916 282.393 268.708 282.393 269.716C282.393 270.712 282.513 271.504 282.753 272.092C283.089 272.908 283.641 273.328 284.409 273.328C285.177 273.328 285.729 272.908 286.065 272.092C286.305 271.504 286.437 270.712 286.437 269.716C286.437 268.708 286.305 267.916 286.065 267.34C285.729 266.512 285.177 266.104 284.409 266.104ZM290.944 267.628C292.48 267.628 293.32 268.264 293.488 269.56H292.552C292.468 269.176 292.312 268.888 292.072 268.72C291.808 268.528 291.424 268.432 290.932 268.432C290.5 268.432 290.164 268.504 289.924 268.672C289.66 268.828 289.528 269.044 289.528 269.32C289.528 269.584 289.696 269.812 290.056 269.992C290.284 270.1 290.716 270.232 291.34 270.4C292.084 270.58 292.612 270.772 292.936 270.976C293.428 271.288 293.68 271.708 293.68 272.248C293.68 273.52 292.804 274.168 291.052 274.168C289.42 274.168 288.532 273.448 288.388 272.02H289.324C289.396 272.512 289.576 272.86 289.84 273.076C290.104 273.268 290.5 273.364 291.028 273.364C292.132 273.364 292.696 273.004 292.696 272.308C292.696 271.96 292.492 271.696 292.108 271.504C291.904 271.408 291.46 271.276 290.788 271.108C290.056 270.928 289.54 270.748 289.252 270.556C288.772 270.268 288.544 269.872 288.544 269.344C288.544 268.816 288.772 268.408 289.24 268.096C289.672 267.784 290.248 267.628 290.944 267.628ZM133.685 285.352H138.353C138.449 284.656 138.497 283.936 138.509 283.18V282.208H139.397V282.988C139.397 283.828 139.337 284.608 139.241 285.352H144.221V286.192H139.493C140.333 288.904 141.989 290.992 144.449 292.456L143.909 293.152C141.497 291.664 139.841 289.576 138.941 286.864C138.197 289.78 136.541 291.904 133.985 293.236L133.445 292.516C136.001 291.256 137.585 289.144 138.209 286.192H133.685V285.352ZM150.377 293.068H148.541L148.337 292.168C148.937 292.216 149.513 292.24 150.053 292.24C150.497 292.24 150.725 292.012 150.725 291.568V282.376H151.613V291.796C151.613 292.636 151.193 293.068 150.377 293.068ZM147.509 285.16L148.373 285.496C147.797 287.896 147.041 289.72 146.105 290.968L145.361 290.308C146.321 289.036 147.029 287.32 147.509 285.16ZM154.325 284.872C155.273 287.02 156.005 288.892 156.509 290.488L155.741 291.028C155.201 289.324 154.469 287.44 153.545 285.364L154.325 284.872ZM157.853 282.82H168.053V283.672H164.141C163.925 284.164 163.673 284.644 163.397 285.1V293.224H162.509V286.372C161.381 287.776 159.905 289.024 158.081 290.116L157.517 289.36C160.229 287.8 162.125 285.904 163.181 283.672H157.853V282.82ZM164.909 286.048C166.289 287.14 167.441 288.232 168.377 289.324L167.717 289.996C166.877 288.94 165.737 287.824 164.285 286.636L164.909 286.048ZM175.133 287.704H179.741V291.436H175.133V287.704ZM178.949 290.68V288.472H175.901V290.68H178.949ZM169.961 283.816H171.785V282.184H172.613V283.816H174.413V284.584H172.613V286.36H174.389V287.152H172.853V288.844H174.401V289.636H172.853V291.724C172.925 291.76 172.985 291.784 173.045 291.808C173.753 292.048 175.385 292.18 177.929 292.18C179.033 292.168 179.861 292.156 180.401 292.132L180.257 292.996H178.121C175.133 292.996 173.261 292.816 172.517 292.48C171.869 292.18 171.281 291.652 170.777 290.896C170.609 291.712 170.393 292.468 170.105 293.176L169.481 292.612C170.009 291.22 170.309 289.648 170.357 287.92L171.101 288.004C171.077 288.628 171.029 289.228 170.957 289.804C171.269 290.392 171.629 290.86 172.037 291.208V287.152H169.817V286.36H171.785V284.584H169.961V283.816ZM176.477 283.576H174.821V282.784H179.909C179.909 284.824 179.789 286.048 179.561 286.456C179.345 286.864 178.961 287.068 178.409 287.068C178.169 287.068 177.893 287.044 177.557 287.02L177.341 286.264L178.217 286.324C178.589 286.312 178.817 286.156 178.913 285.856C179.009 285.568 179.069 284.812 179.081 283.576H177.281C177.125 284.428 176.921 285.1 176.657 285.604C176.321 286.192 175.829 286.72 175.181 287.176L174.617 286.468C175.193 286.084 175.625 285.664 175.913 285.208C176.165 284.788 176.357 284.248 176.477 283.576ZM182.429 282.364C183.245 283 183.929 283.636 184.481 284.26L183.857 284.896C183.365 284.284 182.693 283.624 181.829 282.928L182.429 282.364ZM189.725 292.984C189.041 292.984 188.297 292.972 187.493 292.96C186.677 292.948 186.017 292.876 185.525 292.744C185.021 292.6 184.577 292.3 184.193 291.868C184.025 291.664 183.857 291.568 183.701 291.568C183.413 291.568 182.921 292.12 182.249 293.248L181.601 292.672C182.249 291.64 182.813 291.016 183.317 290.8V287.164H181.589V286.348H184.145V290.848C184.241 290.92 184.349 291.004 184.457 291.124C184.769 291.46 185.093 291.712 185.441 291.88C185.825 292.036 186.401 292.12 187.145 292.144C187.805 292.156 188.633 292.168 189.617 292.168C190.145 292.168 190.673 292.156 191.225 292.156C191.765 292.144 192.185 292.132 192.473 292.108L192.257 292.984H189.725ZM189.365 291.376H187.661L187.469 290.548C188.021 290.584 188.561 290.608 189.065 290.608C189.401 290.608 189.581 290.44 189.581 290.116V285.016H185.045V284.164H189.581V282.22H190.457V284.164H192.233V285.016H190.457V290.32C190.457 291.016 190.085 291.376 189.365 291.376ZM186.353 286.084C187.121 286.972 187.709 287.752 188.117 288.424L187.421 288.904C186.989 288.184 186.413 287.392 185.681 286.516L186.353 286.084ZM196.673 283.264C197.465 283.264 198.113 283.492 198.629 283.948C199.133 284.404 199.397 285.016 199.397 285.76C199.397 286.504 199.109 287.176 198.557 287.776C198.257 288.088 197.669 288.556 196.781 289.156C195.689 289.888 195.065 290.548 194.909 291.124H199.409V292H193.697C193.697 291.22 193.973 290.512 194.549 289.876C194.885 289.492 195.497 288.976 196.409 288.352C197.081 287.872 197.525 287.524 197.753 287.284C198.185 286.816 198.413 286.3 198.413 285.748C198.413 285.22 198.257 284.824 197.945 284.536C197.633 284.248 197.189 284.104 196.637 284.104C196.049 284.104 195.593 284.296 195.281 284.704C194.945 285.088 194.765 285.664 194.753 286.42H193.769C193.769 285.46 194.045 284.692 194.573 284.128C195.101 283.552 195.809 283.264 196.673 283.264ZM203.748 283.264C204.768 283.264 205.536 283.708 206.064 284.62C206.52 285.388 206.748 286.42 206.748 287.716C206.748 289.012 206.52 290.044 206.064 290.812C205.536 291.712 204.768 292.168 203.748 292.168C202.716 292.168 201.948 291.712 201.432 290.812C200.976 290.044 200.748 289.012 200.748 287.716C200.748 286.42 200.976 285.388 201.432 284.62C201.948 283.708 202.716 283.264 203.748 283.264ZM203.748 284.104C202.98 284.104 202.428 284.512 202.092 285.34C201.852 285.916 201.732 286.708 201.732 287.716C201.732 288.712 201.852 289.504 202.092 290.092C202.428 290.908 202.98 291.328 203.748 291.328C204.516 291.328 205.068 290.908 205.404 290.092C205.644 289.504 205.776 288.712 205.776 287.716C205.776 286.708 205.644 285.916 205.404 285.34C205.068 284.512 204.516 284.104 203.748 284.104ZM208.208 283.432H209.432L212.624 290.74H212.66L215.84 283.432H217.064V292H216.08V285.184H216.044L213.08 292H212.192L209.228 285.184H209.192V292H208.208V283.432ZM218.79 283.432H222.618C223.41 283.432 224.046 283.624 224.514 284.008C224.97 284.392 225.198 284.92 225.198 285.592C225.198 286.072 225.066 286.492 224.814 286.84C224.55 287.152 224.202 287.38 223.77 287.524C224.334 287.62 224.766 287.86 225.078 288.22C225.39 288.58 225.558 289.036 225.558 289.612C225.558 290.452 225.258 291.076 224.67 291.484C224.166 291.82 223.47 292 222.594 292H218.79V283.432ZM219.774 284.26V287.176H222.378C222.978 287.176 223.434 287.044 223.746 286.804C224.058 286.552 224.226 286.18 224.226 285.688C224.226 285.208 224.07 284.848 223.758 284.608C223.446 284.368 222.99 284.26 222.39 284.26H219.774ZM219.774 287.992V291.172H222.51C223.11 291.172 223.578 291.052 223.938 290.836C224.358 290.572 224.574 290.152 224.574 289.6C224.574 289.048 224.382 288.64 224.022 288.376C223.674 288.112 223.17 287.992 222.51 287.992H219.774Z" fill="#959595"/>
<rect x="16" y="333" width="332" height="40" rx="8" fill="#131313"/>
<path d="M32.886 347.724H34.93V346.604H35.868V347.724H38.122V346.604H39.074V347.724H41.244V348.62H39.074V349.67H38.122V348.62H35.868V349.67H34.93V348.62H32.886V347.724ZM36.82 356.516C36.652 356.866 36.442 357.188 36.218 357.468C35.574 358.28 34.454 358.91 32.844 359.372L32.48 358.532C33.88 358.154 34.874 357.608 35.49 356.894C35.63 356.712 35.77 356.53 35.882 356.334H32.62V355.41H36.302C36.414 355.074 36.498 354.71 36.568 354.346H33.628V350.104H40.334V354.346H37.464C37.408 354.738 37.324 355.088 37.24 355.41H41.272V356.334H37.73C38.542 357.286 39.774 358.056 41.426 358.644L40.754 359.442C38.934 358.658 37.632 357.692 36.82 356.516ZM31.528 352.232V359.358H30.576V352.386C30.142 353.702 29.596 354.906 28.924 355.984L28.49 354.892C29.456 353.548 30.156 352.036 30.576 350.328V350.244H28.952V349.334H30.576V346.618H31.528V349.334H32.998V350.244H31.528V351.168C32.13 351.896 32.746 352.736 33.39 353.674L32.858 354.472C32.34 353.548 31.892 352.806 31.528 352.232ZM39.424 353.562V352.61H34.538V353.562H39.424ZM34.538 351.854H39.424V350.916H34.538V351.854ZM43.302 347.192H49.882V348.088H48.468V350.188H50.19V351.112H48.468V354.192H47.488V351.112H45.654C45.5 352.554 44.968 353.632 44.044 354.36L43.288 353.702C44.072 353.114 44.534 352.26 44.674 351.112H42.938V350.188H44.73V348.088H43.302V347.192ZM45.696 348.088V350.188H47.488V348.088H45.696ZM51.016 347.514H51.982V352.33H51.016V347.514ZM43.638 355.564H48.552V354.346H49.56V355.564H54.376V356.488H49.56V358.126H55.146V359.05H42.854V358.126H48.552V356.488H43.638V355.564ZM53.396 354.318H51.52L51.31 353.366C51.926 353.408 52.5 353.436 53.06 353.436C53.382 353.436 53.55 353.212 53.55 352.792V346.744H54.516V353.03C54.516 353.884 54.138 354.318 53.396 354.318Z" fill="#B1B1B1"/>
<rect x="64" y="346" width="1" height="14" fill="#343434"/>
<path d="M90.1437 350.289C90.1637 350.692 90.0783 351.079 89.9763 351.464C89.9647 351.508 89.9786 351.576 90.0078 351.61C90.5324 352.226 90.8607 352.93 90.9659 353.727C91.2206 355.657 90.0293 357.573 88.0428 358.13C87.8257 358.19 87.7209 358.283 87.6355 358.484C87.103 359.74 86.1605 360.542 84.8224 360.881C84.2955 361.014 83.7635 361.033 83.2213 360.951C82.4853 360.839 81.8364 360.551 81.2613 360.094C81.1239 359.984 81.006 359.851 80.8711 359.738C80.8278 359.702 80.7537 359.67 80.702 359.68C80.0073 359.806 79.321 359.771 78.6563 359.541C77.3271 359.082 76.4551 358.175 76.0214 356.856C75.8629 356.375 75.8231 355.877 75.8637 355.378C75.8869 355.094 75.9741 354.815 76.0268 354.533C76.035 354.49 76.0273 354.428 76.0003 354.396C75.5265 353.842 75.2093 353.213 75.0719 352.5C74.7622 350.894 75.4705 349.267 76.8503 348.36C77.2419 348.103 77.6712 347.921 78.1337 347.822C78.2208 347.803 78.2671 347.756 78.2991 347.671C78.7271 346.53 79.5134 345.725 80.6589 345.276C81.2501 345.045 81.8663 344.96 82.508 345.017C83.3466 345.091 84.0858 345.386 84.7369 345.903C84.8746 346.012 84.9917 346.147 85.1264 346.26C85.1699 346.296 85.2442 346.327 85.297 346.318C86.3699 346.135 87.3691 346.319 88.2837 346.906C89.1247 347.445 89.683 348.199 89.9778 349.142C90.0944 349.515 90.1628 349.897 90.1439 350.289H90.1437ZM78.0532 348.95C78.0126 348.958 77.9834 348.959 77.9581 348.969C77.4407 349.181 77.0067 349.503 76.6742 349.948C76.2175 350.56 76.0055 351.247 76.082 352.008C76.1828 353.011 76.6698 353.785 77.5397 354.314C77.9495 354.563 78.3726 354.791 78.7892 355.029C79.4446 355.404 80.0999 355.778 80.7542 356.154C80.8325 356.199 80.8981 356.202 80.9803 356.154C81.2729 355.981 81.5705 355.815 81.8656 355.646C81.9906 355.575 82.1142 355.501 82.2488 355.422C82.2134 355.399 82.1971 355.387 82.1793 355.377C80.9253 354.662 79.6736 353.943 78.4154 353.235C78.1607 353.091 78.0478 352.906 78.05 352.616C78.0584 351.469 78.0535 350.322 78.0535 349.175V348.95H78.0532ZM87.9455 357.058C88.0044 357.037 88.0477 357.026 88.0878 357.007C89.2007 356.499 89.832 355.646 89.9201 354.438C89.9912 353.466 89.6409 352.637 88.8912 352.002C88.5884 351.746 88.2277 351.552 87.8809 351.351C87.001 350.841 86.1139 350.342 85.2309 349.838C85.1633 349.799 85.1088 349.795 85.0377 349.837C84.759 350.002 84.4762 350.161 84.1948 350.321C84.0509 350.403 83.9068 350.485 83.7521 350.573C83.785 350.596 83.8006 350.609 83.8182 350.619C84.2564 350.869 84.6946 351.119 85.1331 351.369C85.9671 351.844 86.8 352.321 87.636 352.793C87.8564 352.917 87.9507 353.093 87.9482 353.342C87.9415 353.997 87.9457 354.652 87.9457 355.307C87.9457 355.884 87.9457 356.462 87.9457 357.058H87.9455ZM89.0365 350.796C89.1249 350.4 89.1017 350.021 89.0148 349.648C88.7102 348.344 87.6578 347.45 86.3353 347.31C85.7295 347.246 85.1442 347.358 84.6109 347.658C83.5167 348.272 82.4286 348.898 81.3365 349.516C81.2578 349.561 81.2321 349.616 81.2328 349.703C81.2363 350.142 81.2345 350.581 81.235 351.021C81.235 351.059 81.2397 351.097 81.2429 351.147C81.2749 351.132 81.2934 351.125 81.3103 351.116C81.8129 350.83 82.3154 350.544 82.8178 350.258C83.5949 349.816 84.3725 349.374 85.1482 348.93C85.3467 348.816 85.5344 348.804 85.7391 348.922C86.6745 349.459 87.6132 349.991 88.5508 350.524C88.7097 350.614 88.8699 350.703 89.0365 350.796V350.796ZM84.7654 354.842C84.524 354.978 84.3067 355.099 84.0903 355.222C83.0034 355.841 81.9168 356.461 80.8305 357.081C80.6436 357.188 80.4601 357.19 80.272 357.082C79.2992 356.527 78.3258 355.973 77.3523 355.419C77.2256 355.347 77.0976 355.277 76.9622 355.202C76.8782 355.62 76.9074 356.016 77.0028 356.41C77.4241 358.154 79.3272 359.152 81.0177 358.5C81.3709 358.364 81.7007 358.164 82.0322 357.978C82.9151 357.482 83.7937 356.977 84.6721 356.473C84.7122 356.45 84.7607 356.398 84.7612 356.359C84.7671 355.863 84.7652 355.368 84.7652 354.842L84.7654 354.842ZM85.4955 352.421C85.4955 352.496 85.4955 352.539 85.4955 352.582C85.4955 354.01 85.4935 355.437 85.4967 356.865C85.4972 357.099 85.4059 357.269 85.2002 357.386C84.2158 357.945 83.2322 358.505 82.2488 359.065C82.1397 359.127 82.032 359.192 81.9206 359.258C82.2629 359.589 83.023 359.904 83.5033 359.936C83.9432 359.966 84.372 359.935 84.7954 359.804C85.9553 359.446 86.8539 358.32 86.8757 357.124C86.899 355.847 86.8832 354.57 86.8802 353.293C86.8802 353.252 86.843 353.196 86.8062 353.172C86.6861 353.094 86.5583 353.027 86.4336 352.956C86.1313 352.784 85.829 352.611 85.4953 352.421L85.4955 352.421ZM84.0918 346.739C83.6221 346.355 83.1047 346.136 82.5288 346.07C81.8339 345.99 81.1714 346.109 80.5755 346.484C79.6837 347.044 79.1564 347.843 79.1287 348.893C79.095 350.162 79.1175 351.432 79.1212 352.701C79.1212 352.747 79.1683 352.811 79.2116 352.836C79.5973 353.063 79.9868 353.282 80.3757 353.503C80.4118 353.524 80.4505 353.541 80.5067 353.568C80.5067 353.499 80.5067 353.454 80.5067 353.411C80.5067 351.987 80.5089 350.563 80.5047 349.139C80.5039 348.893 80.6037 348.724 80.8186 348.603C81.6401 348.14 82.4583 347.671 83.2775 347.204C83.5436 347.052 83.8098 346.9 84.092 346.739L84.0918 346.739ZM84.7659 353.005C84.7659 352.704 84.7637 352.403 84.7676 352.103C84.7686 352.033 84.7466 351.992 84.6852 351.957C84.1529 351.657 83.6214 351.355 83.0918 351.051C83.027 351.014 82.9802 351.01 82.9131 351.049C82.38 351.356 81.8438 351.657 81.3113 351.964C81.2744 351.985 81.2385 352.044 81.2382 352.086C81.2335 352.696 81.2338 353.306 81.2377 353.916C81.2377 353.954 81.2684 354.008 81.3014 354.027C81.8411 354.339 82.3825 354.648 82.9267 354.952C82.9661 354.974 83.0401 354.972 83.0797 354.95C83.6167 354.65 84.1495 354.343 84.6854 354.041C84.7483 354.005 84.7686 353.965 84.7679 353.896C84.7647 353.599 84.7667 353.302 84.7662 353.006L84.7659 353.005Z" fill="white"/>
<path d="M105.508 347.808C106.684 347.808 107.608 348.046 108.266 348.536C108.966 349.054 109.372 349.866 109.47 350.958H107.846C107.706 350.342 107.44 349.894 107.076 349.628C106.712 349.348 106.152 349.222 105.424 349.222C104.794 349.222 104.318 349.306 103.982 349.488C103.562 349.698 103.366 350.048 103.366 350.524C103.366 350.944 103.59 351.294 104.066 351.546C104.276 351.658 104.85 351.868 105.774 352.162C107.132 352.582 108 352.918 108.392 353.142C109.26 353.66 109.694 354.374 109.694 355.298C109.694 356.194 109.344 356.908 108.644 357.426C107.944 357.93 106.95 358.196 105.676 358.196C104.444 358.196 103.478 357.958 102.792 357.482C101.952 356.894 101.49 355.97 101.42 354.696H103.044C103.156 355.452 103.422 355.998 103.856 356.32C104.248 356.6 104.85 356.754 105.676 356.754C106.404 356.754 106.992 356.628 107.412 356.39C107.832 356.138 108.056 355.816 108.056 355.396C108.056 354.864 107.734 354.444 107.118 354.136C106.922 354.038 106.278 353.814 105.172 353.478C103.94 353.086 103.17 352.806 102.876 352.638C102.106 352.176 101.728 351.504 101.728 350.622C101.728 349.74 102.092 349.04 102.848 348.536C103.548 348.046 104.43 347.808 105.508 347.808ZM114.319 350.566C115.411 350.566 116.293 350.916 116.965 351.644C117.623 352.358 117.959 353.268 117.959 354.388C117.959 355.494 117.623 356.404 116.979 357.104C116.307 357.832 115.411 358.196 114.319 358.196C113.213 358.196 112.331 357.832 111.659 357.104C111.001 356.404 110.679 355.494 110.679 354.388C110.679 353.268 111.001 352.358 111.673 351.644C112.331 350.916 113.213 350.566 114.319 350.566ZM114.319 351.868C113.647 351.868 113.143 352.12 112.779 352.652C112.471 353.1 112.317 353.688 112.317 354.388C112.317 355.088 112.471 355.662 112.779 356.11C113.143 356.628 113.647 356.894 114.319 356.894C114.977 356.894 115.495 356.628 115.859 356.11C116.167 355.648 116.335 355.074 116.335 354.388C116.335 353.688 116.167 353.1 115.859 352.652C115.495 352.12 114.977 351.868 114.319 351.868ZM122.77 350.566C123.12 350.566 123.428 350.622 123.68 350.748V352.344C123.316 352.232 122.98 352.19 122.644 352.19C122.224 352.19 121.846 352.344 121.51 352.68C121.118 353.058 120.936 353.548 120.936 354.164V358H119.354V350.762H120.936V351.798C121.132 351.434 121.356 351.154 121.622 350.958C121.944 350.692 122.322 350.566 122.77 350.566ZM127.88 350.566C128.944 350.566 129.742 350.832 130.246 351.364C130.694 351.826 130.918 352.498 130.918 353.38V358H129.434V357.048C129.154 357.412 128.804 357.678 128.398 357.874C127.936 358.084 127.39 358.196 126.76 358.196C126.004 358.196 125.416 358 124.982 357.622C124.534 357.23 124.31 356.74 124.31 356.138C124.31 355.326 124.618 354.696 125.262 354.262C125.85 353.842 126.676 353.618 127.74 353.59L129.322 353.548V353.268C129.322 352.316 128.804 351.854 127.768 351.854C127.32 351.854 126.97 351.924 126.704 352.092C126.396 352.274 126.186 352.554 126.102 352.932L124.52 352.806C124.674 352.008 125.066 351.42 125.696 351.056C126.228 350.72 126.956 350.566 127.88 350.566ZM129.322 354.696L127.852 354.738C126.578 354.766 125.948 355.214 125.948 356.082C125.948 356.334 126.046 356.544 126.27 356.712C126.494 356.88 126.774 356.978 127.124 356.978C127.74 356.978 128.258 356.796 128.678 356.446C129.098 356.082 129.322 355.62 129.322 355.06V354.696ZM136.116 347.808C137.082 347.808 137.88 348.088 138.51 348.648C139.126 349.208 139.434 349.922 139.434 350.818C139.434 351.686 139.098 352.47 138.454 353.184C138.062 353.604 137.362 354.136 136.382 354.794C135.36 355.466 134.744 356.054 134.52 356.558H139.448V358H132.476C132.476 356.978 132.798 356.096 133.47 355.34C133.834 354.92 134.604 354.304 135.766 353.506C136.41 353.058 136.858 352.68 137.138 352.386C137.572 351.896 137.796 351.364 137.796 350.804C137.796 350.258 137.642 349.852 137.362 349.586C137.068 349.32 136.634 349.194 136.06 349.194C135.444 349.194 134.982 349.404 134.674 349.824C134.366 350.216 134.198 350.818 134.17 351.602H132.532C132.546 350.482 132.868 349.586 133.512 348.9C134.17 348.172 135.038 347.808 136.116 347.808Z" fill="#F6F6F6"/>
<g clip-path="url(#clip3_188_17178)">
<path d="M323.5 351L327.205 354.675C327.642 355.108 328.358 355.108 328.795 354.675L332.5 351" stroke="#E9E9E7" stroke-linecap="round" stroke-linejoin="round"/>
</g>
<rect x="16" y="385" width="332" height="40" rx="8" fill="#131313"/>
<path d="M31.766 398.478L32.704 398.912C32.34 400.004 31.892 401.026 31.346 401.992V411.428H30.338V403.532C29.876 404.148 29.372 404.75 28.826 405.324L28.504 404.246C29.988 402.566 31.08 400.648 31.766 398.478ZM32.634 400.816H36.4C36.204 400.074 35.966 399.388 35.714 398.772L36.778 398.59C37.002 399.234 37.212 399.976 37.408 400.816H41.062V401.782H32.634V400.816ZM32.396 409.748H37.212C37.926 407.872 38.542 405.52 39.074 402.692L40.04 402.944C39.55 405.506 38.948 407.774 38.248 409.748H41.426V410.742H32.396V409.748ZM34.356 402.846C34.902 404.652 35.392 406.724 35.826 409.048L34.888 409.3C34.51 407.172 34.02 405.114 33.432 403.126L34.356 402.846ZM42.994 402.524H48.44L48.524 401.712H43.932V399.094H54.068V401.712H49.532L49.448 402.524H55.02V403.294H49.336C49.28 403.574 49.238 403.84 49.182 404.092H53.242V410.266H55.272V411.078H42.742V410.266H44.772V404.092H48.174C48.23 403.826 48.272 403.56 48.328 403.294H42.994V402.524ZM45.752 410.266H52.248V409.342H45.752V410.266ZM45.752 408.712H52.248V407.83H45.752V408.712ZM45.752 407.186H52.248V406.304H45.752V407.186ZM45.752 405.674H52.248V404.792H45.752V405.674ZM53.116 400.998V399.836H51.03V400.998H53.116ZM50.106 400.998V399.836H47.894V400.998H50.106ZM46.984 400.998V399.836H44.898V400.998H46.984Z" fill="#B1B1B1"/>
<rect x="64" y="398" width="1" height="14" fill="#343434"/>
<path d="M75.436 400.914H73.77V399.934H78.096V400.914H76.472V407.242C77.074 407.032 77.648 406.822 78.194 406.598V407.606C76.962 408.124 75.534 408.6 73.91 409.034L73.616 408.04C74.246 407.886 74.848 407.732 75.436 407.564V400.914ZM78.628 399.164H86.384V400.144H83.038C82.954 400.676 82.856 401.166 82.744 401.642H85.712V408.222H84.732V402.566H80.238V408.222H79.272V401.642H81.736C81.876 401.166 81.974 400.662 82.044 400.144H78.628V399.164ZM83.626 408.25C84.774 409.09 85.754 409.93 86.538 410.77L85.81 411.498C85.11 410.686 84.158 409.818 82.954 408.894L83.626 408.25ZM81.918 403.462H82.926V405.87C82.87 407.382 82.478 408.586 81.722 409.496C80.98 410.322 79.776 410.98 78.096 411.456L77.55 410.588C79.174 410.154 80.322 409.566 80.966 408.838C81.554 408.082 81.876 407.088 81.918 405.87V403.462ZM98.704 399.248V411.386H97.696V410.476H90.332V411.414H89.31V399.248H98.704ZM90.332 409.496H97.696V406.864H90.332V409.496ZM90.332 405.94H97.696V403.476H90.332V405.94ZM90.332 402.552H97.696V400.228H90.332V402.552ZM105.97 410.532V411.358H104.962V406.416C104.094 406.696 103.184 406.948 102.204 407.186L101.672 406.22C104.094 405.716 106.11 405.072 107.72 404.26C107.104 403.742 106.264 403.182 105.2 402.58L106.068 402.034C107.132 402.692 107.972 403.28 108.574 403.798C110.002 402.944 111.038 401.95 111.696 400.802H106.516C105.564 401.684 104.36 402.468 102.876 403.168L102.204 402.3C104.598 401.278 106.208 400.018 107.048 398.534L108.154 398.66C107.93 399.08 107.678 399.472 107.398 399.85H112.858V400.746C111.85 402.664 110.044 404.232 107.412 405.45H113.25V411.358H112.228V410.532H105.97ZM112.228 409.552V406.388H105.97V409.552H112.228ZM115.812 402.398H117.856V400.396C117.268 400.48 116.68 400.564 116.064 400.62L115.868 399.668C117.604 399.514 119.13 399.234 120.474 398.814L120.824 399.766C120.208 399.934 119.536 400.102 118.822 400.242V402.398H120.544V403.364H118.822V404.134C119.522 404.75 120.208 405.422 120.908 406.178L120.348 407.018C119.76 406.178 119.242 405.52 118.822 405.03V411.358H117.856V405.002C117.38 406.374 116.722 407.62 115.91 408.74L115.476 407.62C116.54 406.374 117.296 404.96 117.744 403.364H115.812V402.398ZM123.764 411.33H122.42L122.21 410.364C122.63 410.406 123.036 410.434 123.414 410.434C123.75 410.434 123.932 410.224 123.932 409.818V402.664H124.968V410.07C124.968 410.91 124.562 411.33 123.764 411.33ZM122 404.68L122.938 404.862C122.532 406.724 121.958 408.334 121.216 409.692L120.348 409.146C121.104 407.802 121.65 406.304 122 404.68ZM126.788 404.582C127.418 406.094 127.964 407.704 128.426 409.426L127.502 409.832C127.012 407.97 126.466 406.318 125.878 404.876L126.788 404.582ZM122.952 401.474C122.56 402.356 122.07 403.154 121.496 403.854L120.88 403.056C121.832 401.824 122.49 400.312 122.826 398.52L123.82 398.646C123.694 399.29 123.526 399.906 123.33 400.494H127.964V401.152C127.796 402.104 127.586 403.042 127.306 403.966L126.326 403.672C126.578 403.014 126.788 402.286 126.956 401.474H122.952ZM133.97 410.532V411.358H132.962V406.416C132.094 406.696 131.184 406.948 130.204 407.186L129.672 406.22C132.094 405.716 134.11 405.072 135.72 404.26C135.104 403.742 134.264 403.182 133.2 402.58L134.068 402.034C135.132 402.692 135.972 403.28 136.574 403.798C138.002 402.944 139.038 401.95 139.696 400.802H134.516C133.564 401.684 132.36 402.468 130.876 403.168L130.204 402.3C132.598 401.278 134.208 400.018 135.048 398.534L136.154 398.66C135.93 399.08 135.678 399.472 135.398 399.85H140.858V400.746C139.85 402.664 138.044 404.232 135.412 405.45H141.25V411.358H140.228V410.532H133.97ZM140.228 409.552V406.388H133.97V409.552H140.228Z" fill="#E9E9E7"/>
<g clip-path="url(#clip4_188_17178)">
<path d="M326 409.5L329.675 405.795C330.108 405.358 330.108 404.642 329.675 404.205L326 400.5" stroke="#E9E9E7" stroke-linecap="round" stroke-linejoin="round"/>
</g>
<rect x="16" y="437" width="332" height="40" rx="8" fill="#131313"/>
<path d="M32.97 462.532V463.358H31.962V458.416C31.094 458.696 30.184 458.948 29.204 459.186L28.672 458.22C31.094 457.716 33.11 457.072 34.72 456.26C34.104 455.742 33.264 455.182 32.2 454.58L33.068 454.034C34.132 454.692 34.972 455.28 35.574 455.798C37.002 454.944 38.038 453.95 38.696 452.802H33.516C32.564 453.684 31.36 454.468 29.876 455.168L29.204 454.3C31.598 453.278 33.208 452.018 34.048 450.534L35.154 450.66C34.93 451.08 34.678 451.472 34.398 451.85H39.858V452.746C38.85 454.664 37.044 456.232 34.412 457.45H40.25V463.358H39.228V462.532H32.97ZM39.228 461.552V458.388H32.97V461.552H39.228ZM42.812 454.398H44.856V452.396C44.268 452.48 43.68 452.564 43.064 452.62L42.868 451.668C44.604 451.514 46.13 451.234 47.474 450.814L47.824 451.766C47.208 451.934 46.536 452.102 45.822 452.242V454.398H47.544V455.364H45.822V456.134C46.522 456.75 47.208 457.422 47.908 458.178L47.348 459.018C46.76 458.178 46.242 457.52 45.822 457.03V463.358H44.856V457.002C44.38 458.374 43.722 459.62 42.91 460.74L42.476 459.62C43.54 458.374 44.296 456.96 44.744 455.364H42.812V454.398ZM50.764 463.33H49.42L49.21 462.364C49.63 462.406 50.036 462.434 50.414 462.434C50.75 462.434 50.932 462.224 50.932 461.818V454.664H51.968V462.07C51.968 462.91 51.562 463.33 50.764 463.33ZM49 456.68L49.938 456.862C49.532 458.724 48.958 460.334 48.216 461.692L47.348 461.146C48.104 459.802 48.65 458.304 49 456.68ZM53.788 456.582C54.418 458.094 54.964 459.704 55.426 461.426L54.502 461.832C54.012 459.97 53.466 458.318 52.878 456.876L53.788 456.582ZM49.952 453.474C49.56 454.356 49.07 455.154 48.496 455.854L47.88 455.056C48.832 453.824 49.49 452.312 49.826 450.52L50.82 450.646C50.694 451.29 50.526 451.906 50.33 452.494H54.964V453.152C54.796 454.104 54.586 455.042 54.306 455.966L53.326 455.672C53.578 455.014 53.788 454.286 53.956 453.474H49.952Z" fill="#B1B1B1"/>
<rect x="64" y="450" width="1" height="14" fill="#343434"/>
<path d="M81.596 450.562H82.562V451.472H86.034V452.298H82.562V453.236H85.53V454.048H82.562V455H86.384V455.84H77.816V455H81.596V454.048H78.768V453.236H81.596V452.298H78.208V451.472H81.596V450.562ZM79.846 459.368V460.39H84.368V459.368H79.846ZM84.368 458.584V457.548H79.846V458.584H84.368ZM79.846 461.174V463.4H78.88V456.722H85.334V462.182C85.334 462.938 84.928 463.316 84.144 463.316H82.968L82.73 462.42L83.85 462.462C84.186 462.462 84.368 462.294 84.368 461.972V461.174H79.846ZM75.282 450.716C76.22 451.416 77.004 452.13 77.648 452.844L76.962 453.544C76.374 452.872 75.576 452.158 74.568 451.402L75.282 450.716ZM73.588 454.846H76.556V460.992C76.976 460.6 77.41 460.166 77.886 459.676L78.152 460.74C77.368 461.552 76.528 462.28 75.66 462.91L75.268 462.014C75.478 461.818 75.59 461.608 75.59 461.37V455.812H73.588V454.846ZM90.206 454.454H91.144V456.54H92.432V457.45H91.144V459.34C91.62 459.228 92.054 459.116 92.474 459.004V459.956L91.144 460.292V463.4H90.206V460.502C89.408 460.656 88.582 460.796 87.728 460.922L87.602 459.942C88.526 459.83 89.394 459.69 90.206 459.536V457.45H88.022L87.812 456.61C88.204 455.77 88.554 454.72 88.876 453.474H87.714V452.522H89.1C89.24 451.878 89.366 451.22 89.492 450.52L90.416 450.73C90.29 451.36 90.164 451.962 90.038 452.522H92.502V453.474H89.8C89.492 454.622 89.17 455.644 88.82 456.54H90.206V454.454ZM94.336 453.74C93.804 454.23 93.272 454.692 92.726 455.112L92.18 454.272C93.608 453.222 94.896 451.99 96.03 450.59H96.758C97.976 452.102 99.222 453.292 100.496 454.188L99.964 454.986C98.648 454.034 97.458 452.872 96.394 451.5C95.722 452.312 95.05 453.054 94.35 453.726H98.354V454.566H94.336V453.74ZM95.316 463.302H94.644L94.42 462.476L95.036 462.504C95.344 462.504 95.498 462.35 95.498 462.042V460.782H93.93V463.4H93.048V455.686H96.352V462.224C96.352 462.938 96.002 463.302 95.316 463.302ZM93.93 459.998H95.498V458.668H93.93V459.998ZM93.93 457.884H95.498V456.498H93.93V457.884ZM97.192 456.078H97.976V461.104H97.192V456.078ZM98.718 463.33H97.528L97.318 462.448C97.696 462.476 98.06 462.504 98.41 462.504C98.704 462.504 98.858 462.294 98.858 461.902V455.448H99.74V462.126C99.74 462.924 99.39 463.33 98.718 463.33ZM107.384 453.81C106.74 452.634 105.97 451.738 105.074 451.094L105.914 450.562C107.16 451.43 108.21 453.012 109.078 455.28C110.394 458.626 112.144 460.992 114.356 462.378L113.726 463.19C111.458 461.818 109.61 459.27 108.168 455.574C108.084 455.35 108.014 455.154 107.944 454.986C107.02 458.556 105.088 461.3 102.148 463.204L101.546 462.35C104.542 460.39 106.488 457.534 107.384 453.81ZM126.9 450.422H127.88C127.32 451.346 126.872 452.312 126.55 453.32C126.13 454.552 125.934 455.756 125.934 456.96C125.934 458.15 126.13 459.368 126.55 460.6C126.872 461.594 127.32 462.56 127.88 463.498H126.9C126.284 462.588 125.808 461.622 125.458 460.614C125.038 459.41 124.842 458.192 124.842 456.974C124.842 455.728 125.038 454.51 125.458 453.306C125.808 452.284 126.284 451.318 126.9 450.422ZM133.844 450.576H134.88V463.4H133.844V460.096H129.574V459.13H133.844V456.904H130.218V455.924H133.844V453.754H129.896V452.788H133.844V450.576ZM137.12 450.576H138.156V452.788H142.09V453.754H138.156V455.924H141.782V456.904H138.156V459.13H142.314V460.096H138.156V463.4H137.12V450.576ZM148.39 450.618C149.496 451.486 150.42 452.368 151.176 453.236L150.476 453.936C149.804 453.11 148.88 452.214 147.704 451.262L148.39 450.618ZM152.912 451.024L153.836 451.43C152.576 455.7 150.728 458.92 148.292 461.104V461.286C148.292 461.706 148.53 461.916 149.006 461.916H151.428C151.834 461.916 152.114 461.776 152.282 461.51C152.506 461.188 152.646 460.222 152.73 458.626L153.682 458.948C153.57 460.81 153.346 461.944 153.01 462.364C152.716 462.7 152.254 462.882 151.61 462.882H148.684C147.9 462.882 147.438 462.546 147.326 461.902C146.542 462.476 145.73 462.952 144.876 463.344L144.288 462.504C145.38 462 146.388 461.37 147.284 460.614V453.488H148.292V459.69C150.364 457.576 151.904 454.692 152.912 451.024ZM145.24 454.79L146.206 454.986C145.786 457.212 145.198 459.13 144.442 460.74L143.574 460.208C144.33 458.57 144.89 456.764 145.24 454.79ZM154.214 454.986C155.082 456.638 155.852 458.416 156.496 460.306L155.586 460.712C154.886 458.668 154.102 456.862 153.262 455.294L154.214 454.986ZM162.11 451.598H165.666C165.694 451.234 165.736 450.87 165.764 450.506L166.744 450.646C166.716 450.982 166.674 451.29 166.646 451.598H169.992V452.48H166.534C166.478 452.788 166.436 453.096 166.394 453.39H169.194V459.858H170.482V460.754H161.62V459.858H162.922V453.39H165.428C165.484 453.082 165.526 452.774 165.568 452.48H162.11V451.598ZM163.874 459.858H168.242V458.948H163.874V459.858ZM163.874 458.22H168.242V457.366H163.874V458.22ZM163.874 456.638H168.242V455.784H163.874V456.638ZM163.874 455.07H168.242V454.188H163.874V455.07ZM167.612 460.95C168.578 461.454 169.474 462.056 170.314 462.756L169.698 463.456C168.858 462.714 167.948 462.07 166.982 461.524L167.612 460.95ZM164.518 460.936L165.19 461.538C164.378 462.266 163.37 462.91 162.166 463.456L161.564 462.7C162.74 462.196 163.72 461.608 164.518 460.936ZM157.7 453.992H159.268V450.618H160.234V453.992H161.676V454.944H160.234V459.312C160.71 459.144 161.186 458.962 161.648 458.766V459.76C160.472 460.236 159.198 460.628 157.84 460.95L157.588 459.984C158.148 459.872 158.708 459.746 159.268 459.606V454.944H157.7V453.992ZM173.604 460.334C173.912 460.334 174.178 460.46 174.374 460.726C174.556 460.978 174.654 461.3 174.654 461.706C174.654 462.322 174.472 462.868 174.108 463.344C173.744 463.792 173.254 464.1 172.666 464.254V463.568C173.03 463.442 173.324 463.232 173.548 462.952C173.758 462.658 173.856 462.35 173.856 462.014C173.8 462.042 173.688 462.07 173.548 462.07C173.31 462.07 173.114 461.986 172.946 461.818C172.778 461.65 172.694 461.44 172.694 461.202C172.694 460.936 172.778 460.726 172.946 460.572C173.114 460.404 173.324 460.334 173.604 460.334ZM186.05 451.29H197.95V452.284H193.386C193.134 452.858 192.84 453.418 192.518 453.95V463.428H191.482V455.434C190.166 457.072 188.444 458.528 186.316 459.802L185.658 458.92C188.822 457.1 191.034 454.888 192.266 452.284H186.05V451.29ZM194.282 455.056C195.892 456.33 197.236 457.604 198.328 458.878L197.558 459.662C196.578 458.43 195.248 457.128 193.554 455.742L194.282 455.056ZM204.11 451.598H207.666C207.694 451.234 207.736 450.87 207.764 450.506L208.744 450.646C208.716 450.982 208.674 451.29 208.646 451.598H211.992V452.48H208.534C208.478 452.788 208.436 453.096 208.394 453.39H211.194V459.858H212.482V460.754H203.62V459.858H204.922V453.39H207.428C207.484 453.082 207.526 452.774 207.568 452.48H204.11V451.598ZM205.874 459.858H210.242V458.948H205.874V459.858ZM205.874 458.22H210.242V457.366H205.874V458.22ZM205.874 456.638H210.242V455.784H205.874V456.638ZM205.874 455.07H210.242V454.188H205.874V455.07ZM209.612 460.95C210.578 461.454 211.474 462.056 212.314 462.756L211.698 463.456C210.858 462.714 209.948 462.07 208.982 461.524L209.612 460.95ZM206.518 460.936L207.19 461.538C206.378 462.266 205.37 462.91 204.166 463.456L203.564 462.7C204.74 462.196 205.72 461.608 206.518 460.936ZM199.7 453.992H201.268V450.618H202.234V453.992H203.676V454.944H202.234V459.312C202.71 459.144 203.186 458.962 203.648 458.766V459.76C202.472 460.236 201.198 460.628 199.84 460.95L199.588 459.984C200.148 459.872 200.708 459.746 201.268 459.606V454.944H199.7V453.992ZM219.482 463.358H217.914L217.69 462.364C218.194 462.406 218.67 462.434 219.132 462.434C219.468 462.434 219.65 462.252 219.65 461.916V458.486C218.306 458.57 216.85 458.654 215.268 458.724L214.988 457.828C215.31 457.8 215.604 457.73 215.87 457.646C217.018 457.142 218.306 456.358 219.734 455.294C218.516 455.392 217.2 455.476 215.8 455.56L215.59 454.664C215.842 454.636 216.066 454.566 216.276 454.482C216.976 454.132 217.802 453.446 218.754 452.41C217.564 452.466 216.304 452.494 214.96 452.494L214.666 451.612C218.684 451.612 222.03 451.318 224.69 450.73L225.18 451.584C223.724 451.92 222.016 452.172 220.028 452.326C219.16 453.334 218.278 454.118 217.382 454.706C218.502 454.65 219.636 454.566 220.784 454.468C221.414 453.964 222.058 453.404 222.73 452.802L223.654 453.264C221.288 455.35 219.23 456.848 217.466 457.772C219.748 457.646 221.708 457.492 223.332 457.296C222.982 456.848 222.618 456.386 222.24 455.938L222.996 455.476C224.144 456.82 225.026 457.982 225.642 458.976L224.83 459.55C224.564 459.074 224.256 458.598 223.92 458.108C222.954 458.22 221.876 458.318 220.672 458.416V462.168C220.672 462.952 220.266 463.358 219.482 463.358ZM222.59 459.27C224.004 460.292 225.18 461.314 226.132 462.35L225.418 463.064C224.564 462.084 223.402 461.034 221.918 459.914L222.59 459.27ZM217.256 459.368L217.97 459.998C217.018 461.146 215.842 462.14 214.442 462.994L213.812 462.182C215.184 461.37 216.332 460.432 217.256 459.368ZM232.348 460.208V461.174C231.06 461.818 229.604 462.35 227.98 462.742L227.854 461.734C229.562 461.356 231.06 460.852 232.348 460.208ZM230.108 450.534L231.074 450.926C230.374 452.718 229.66 454.146 228.932 455.21C229.548 455.126 230.164 455.014 230.78 454.902C231.032 454.426 231.284 453.936 231.55 453.404L232.46 453.754C231.228 456.078 230.206 457.744 229.394 458.752C230.374 458.5 231.354 458.164 232.348 457.73V458.668C230.878 459.284 229.464 459.69 228.12 459.914L227.84 458.99C228.022 458.906 228.176 458.794 228.302 458.682C228.834 458.122 229.492 457.184 230.262 455.84C229.506 455.98 228.736 456.12 227.966 456.232L227.7 455.308C227.868 455.238 228.008 455.112 228.148 454.916C228.904 453.642 229.548 452.186 230.108 450.534ZM232.824 456.68L232.6 455.784C232.684 455.756 232.74 455.728 232.796 455.714C233.272 455.364 233.874 454.468 234.63 453.012H232.236V452.046H235.806C235.61 451.514 235.4 451.038 235.176 450.604L236.198 450.436C236.408 450.912 236.618 451.458 236.814 452.046H239.964V453.012H235.68C235.064 454.23 234.518 455.112 234.042 455.672C235.344 455.56 236.646 455.406 237.934 455.196C237.626 454.748 237.29 454.286 236.94 453.838L237.71 453.362C238.662 454.58 239.404 455.644 239.922 456.568L239.138 457.114C238.942 456.75 238.732 456.4 238.494 456.036C236.758 456.316 234.868 456.526 232.824 456.68ZM233.958 457.254H234.938C234.868 459.018 234.644 460.32 234.28 461.146C233.874 462.014 233.202 462.756 232.25 463.372L231.606 462.574C232.432 462.042 233.02 461.426 233.37 460.712C233.706 459.984 233.902 458.836 233.958 457.254ZM238.942 463.148H237.962C237.122 463.148 236.702 462.742 236.702 461.93V457.128H237.668V461.762C237.668 462.056 237.766 462.21 237.99 462.238H238.9C239.208 462.21 239.39 462.042 239.446 461.734C239.502 461.342 239.544 460.74 239.544 459.914L240.412 460.222C240.412 461.538 240.314 462.364 240.132 462.672C239.95 462.952 239.558 463.12 238.942 463.148ZM248.238 458.976V459.774C246.824 459.914 244.71 460.04 241.91 460.138L241.798 459.284C242.792 459.27 243.716 459.242 244.556 459.214V458.01H242.036V457.198H244.556V456.05H241.966V451.08H248.112V456.05H245.452V457.198H248V458.01H245.452V459.172C246.516 459.116 247.44 459.06 248.238 458.976ZM242.232 460.656L243.072 460.754C242.988 461.776 242.806 462.686 242.498 463.47L241.658 463.204C241.966 462.462 242.148 461.608 242.232 460.656ZM244.514 460.754C244.654 461.342 244.752 462.168 244.808 463.204L243.954 463.302C243.926 462.238 243.842 461.426 243.73 460.838L244.514 460.754ZM247.622 460.474C247.944 461.23 248.196 461.93 248.378 462.574C249.624 460.474 250.338 458.052 250.534 455.322H248.77V454.356H250.576C250.604 452.718 250.618 451.472 250.618 450.604H251.584C251.584 451.64 251.57 452.9 251.556 454.356H254.02V455.322H251.612C252.046 458.5 252.998 460.95 254.468 462.672L253.782 463.428C252.536 461.846 251.682 459.858 251.234 457.464C250.786 459.816 250.016 461.818 248.924 463.442L248.28 462.728C248.294 462.7 248.308 462.672 248.322 462.658L247.65 462.91C247.454 462.14 247.202 461.398 246.908 460.67L247.622 460.474ZM246.068 460.6C246.32 461.272 246.53 462.028 246.726 462.896L245.914 463.106C245.76 462.322 245.564 461.566 245.34 460.838L246.068 460.6ZM252.76 451.066C253.376 451.85 253.838 452.55 254.16 453.138L253.46 453.642C253.124 452.998 252.662 452.27 252.074 451.486L252.76 451.066ZM247.3 455.266V451.864H245.382V455.266H247.3ZM244.654 455.266V451.864H242.778V455.266H244.654ZM246.264 452.592L246.796 452.718C246.712 453.39 246.558 454.048 246.334 454.692L245.802 454.51C246.026 453.908 246.18 453.264 246.264 452.592ZM243.702 452.648C243.912 453.208 244.094 453.838 244.262 454.552L243.744 454.692C243.59 454.048 243.394 453.418 243.17 452.816L243.702 452.648ZM263.778 450.632H264.814C264.814 451.808 264.772 452.914 264.688 453.922C265.43 457.506 266.718 460.362 268.552 462.462L267.824 463.302C266.326 461.398 265.192 459.046 264.408 456.274C264.338 456.666 264.268 457.03 264.198 457.394C263.666 459.802 262.476 461.79 260.614 463.33L259.928 462.504C261.552 461.132 262.644 459.41 263.176 457.324C263.568 455.574 263.778 453.348 263.778 450.632ZM257.268 450.702C258.22 451.416 259.018 452.13 259.662 452.858L258.976 453.558C258.388 452.872 257.576 452.144 256.568 451.388L257.268 450.702ZM255.63 454.846H258.654V460.964C259.158 460.544 259.704 460.068 260.278 459.522L260.53 460.558C259.662 461.384 258.738 462.126 257.758 462.77L257.366 461.874C257.576 461.706 257.688 461.496 257.688 461.272V455.812H255.63V454.846ZM272.374 454.146C271.814 455.42 271.1 456.484 270.232 457.352L269.588 456.526C270.904 455.154 271.8 453.292 272.262 450.954L273.284 451.136C273.13 451.864 272.948 452.536 272.738 453.166H275.734V450.674H276.756V453.166H281.362V454.146H276.756V457.38H281.082V458.36H276.756V461.916H282.258V462.924H269.924V461.916H275.734V458.36H271.618V457.38H275.734V454.146H272.374ZM293.416 450.52C294.088 451.024 294.662 451.542 295.138 452.06L294.494 452.704H296.202V453.67H291.89C291.988 455.406 292.17 456.778 292.422 457.786C292.506 458.136 292.604 458.458 292.702 458.766C293.402 457.646 293.962 456.33 294.396 454.832L295.306 455.224C294.746 457.072 294.018 458.64 293.122 459.9C293.318 460.348 293.528 460.74 293.752 461.062C294.214 461.734 294.592 462.07 294.872 462.07C295.124 462.056 295.362 461.328 295.572 459.886L296.482 460.39C296.146 462.252 295.67 463.19 295.04 463.19C294.452 463.19 293.822 462.77 293.15 461.93C292.898 461.594 292.66 461.202 292.45 460.768C291.47 461.916 290.322 462.77 289.006 463.358L288.446 462.518C289.846 461.888 291.036 460.964 292.002 459.746C291.806 459.228 291.624 458.668 291.47 458.066C291.162 456.89 290.966 455.42 290.854 453.67H286.052V455.994H289.482C289.454 458.36 289.342 459.886 289.16 460.572C288.978 461.174 288.544 461.482 287.844 461.51C287.508 461.51 287.102 461.482 286.654 461.454L286.346 460.544C286.892 460.572 287.354 460.586 287.732 460.586C288.04 460.572 288.236 460.362 288.32 459.97C288.404 459.494 288.446 458.486 288.474 456.946H286.052V457.366C285.996 459.872 285.436 461.888 284.4 463.4L283.63 462.714C284.526 461.426 284.988 459.648 285.03 457.366V452.704H290.812C290.784 452.004 290.77 451.29 290.77 450.534H291.806C291.806 451.318 291.82 452.032 291.848 452.704H294.466C294.046 452.2 293.486 451.682 292.772 451.136L293.416 450.52ZM298.12 450.422H299.1C299.702 451.318 300.178 452.284 300.542 453.306C300.948 454.51 301.158 455.728 301.158 456.974C301.158 458.192 300.948 459.41 300.542 460.614C300.178 461.622 299.702 462.588 299.1 463.498H298.12C298.68 462.56 299.114 461.594 299.45 460.6C299.856 459.368 300.066 458.15 300.066 456.96C300.066 455.756 299.856 454.552 299.45 453.32C299.114 452.312 298.68 451.346 298.12 450.422Z" fill="#959595"/>
<rect width="332" height="450" transform="translate(16 493)" fill="#090909"/>
<rect x="16" y="891" width="332" height="44" rx="8" fill="#E94140"/>
<path d="M33.81 912.134H31.206V917.468C31.206 917.804 31.388 917.986 31.766 917.986H34.202C34.622 917.986 34.888 917.874 34.986 917.664C35.098 917.44 35.182 916.964 35.238 916.25L36.484 916.67C36.372 917.888 36.204 918.63 35.952 918.882C35.728 919.106 35.266 919.218 34.594 919.218H31.192C30.31 919.218 29.876 918.798 29.876 917.958V911.308L29.204 911.98L28.42 910.902C29.75 909.684 30.968 908.242 32.074 906.59H33.054C34.286 907.878 35.462 909.222 36.554 910.622L35.686 911.532C34.482 909.936 33.488 908.704 32.676 907.85C31.948 908.928 31.136 909.964 30.212 910.958H35.112V914.822C35.098 915.592 34.678 915.998 33.838 916.054C33.292 916.054 32.774 916.04 32.284 916.012L31.962 914.766C32.48 914.822 32.928 914.85 33.32 914.85C33.642 914.85 33.81 914.682 33.81 914.374V912.134ZM37.184 907.752H38.486V916.39H37.184V907.752ZM39.606 919.316H37.492L37.184 918.042C37.87 918.098 38.528 918.126 39.144 918.126C39.48 918.126 39.648 917.916 39.648 917.51V906.562H40.978V917.846C40.978 918.826 40.516 919.316 39.606 919.316ZM43.904 906.576C44.828 907.346 45.626 908.116 46.27 908.872L45.332 909.796C44.772 909.068 44.002 908.284 42.994 907.444L43.904 906.576ZM51.912 919.204C51.156 919.204 50.316 919.19 49.42 919.176C48.51 919.162 47.768 919.078 47.194 918.938C46.634 918.77 46.144 918.434 45.724 917.958C45.528 917.72 45.346 917.608 45.192 917.608C44.884 917.608 44.38 918.238 43.666 919.512L42.686 918.602C43.386 917.454 44.03 916.74 44.59 916.46V912.498H42.714V911.266H45.836V916.572C45.892 916.628 45.962 916.684 46.032 916.768C46.368 917.146 46.704 917.426 47.04 917.608C47.46 917.804 48.076 917.93 48.916 917.958C49.7 917.972 50.638 917.986 51.73 917.986C52.416 917.986 53.116 917.972 53.83 917.958C54.53 917.944 55.076 917.916 55.468 917.888L55.146 919.204H51.912ZM48.608 909.334C48.384 909.81 48.132 910.244 47.866 910.65L46.774 909.964C47.446 909.012 47.922 907.976 48.202 906.856L49.42 907.108C49.322 907.458 49.224 907.794 49.112 908.102H50.512V906.534H51.786V908.102H54.544V909.334H51.786V910.832H55.272V912.05H46.62V910.832H50.512V909.334H48.608ZM47.754 912.932H54.25V917.062H47.754V912.932ZM52.976 915.844V914.15H49.028V915.844H52.976Z" fill="#E9E9E7"/>
<path d="M325.24 919.277C325.093 919.199 324.916 919.199 324.768 919.277L321.696 920.92C321.33 921.115 320.899 920.805 320.968 920.395L321.558 916.893C321.586 916.733 321.533 916.569 321.417 916.455L318.91 913.969C318.617 913.679 318.781 913.179 319.189 913.119L322.64 912.609C322.803 912.585 322.944 912.481 323.017 912.332L324.554 909.165C324.736 908.789 325.271 908.789 325.453 909.165L326.991 912.332C327.063 912.481 327.204 912.584 327.367 912.609L330.819 913.119C331.226 913.179 331.39 913.678 331.098 913.968L328.59 916.455C328.474 916.569 328.422 916.733 328.449 916.893L329.04 920.395C329.109 920.805 328.677 921.115 328.311 920.919L325.24 919.277ZM331.201 909.273C331.054 909.194 330.877 909.194 330.73 909.273L330.111 909.603C329.745 909.799 329.314 909.489 329.383 909.079L329.505 908.355C329.532 908.195 329.479 908.031 329.364 907.917L328.84 907.398C328.548 907.108 328.712 906.608 329.119 906.548L329.828 906.444C329.991 906.419 330.132 906.316 330.205 906.167L330.515 905.527C330.698 905.151 331.233 905.151 331.415 905.527L331.726 906.167C331.798 906.316 331.939 906.419 332.103 906.444L332.811 906.548C333.219 906.608 333.383 907.108 333.09 907.398L332.567 907.916C332.452 908.031 332.399 908.194 332.426 908.354L332.548 909.079C332.617 909.489 332.186 909.799 331.82 909.603L331.201 909.273ZM320.831 908.541C320.831 908.541 320.831 908.541 320.831 908.541L320.414 908.764C320.155 908.902 319.85 908.683 319.899 908.393L319.94 908.154C319.965 908.002 319.915 907.848 319.806 907.74L319.797 907.731C319.522 907.458 319.679 906.988 320.062 906.931C320.214 906.909 320.346 906.812 320.413 906.674C320.582 906.325 321.08 906.325 321.249 906.674C321.316 906.812 321.448 906.909 321.6 906.931C321.983 906.988 322.139 907.458 321.864 907.731L321.855 907.739C321.746 907.847 321.696 908.002 321.721 908.153L321.834 908.824C321.853 908.937 321.734 909.023 321.633 908.969L320.831 908.54C320.831 908.54 320.831 908.541 320.831 908.541Z" fill="#F6F6F6"/>
<defs>
<clipPath id="clip0_188_17178">
<rect width="16" height="16" fill="white" transform="translate(46.5 128) rotate(-90)"/>
</clipPath>
<clipPath id="clip1_188_17178">
<rect width="16" height="16" fill="white" transform="translate(46.5 112)"/>
</clipPath>
<clipPath id="clip2_188_17178">
<rect width="16" height="16" fill="white" transform="translate(141.5 251) rotate(-90)"/>
</clipPath>
<clipPath id="clip3_188_17178">
<rect width="16" height="16" fill="white" transform="translate(320 361) rotate(-90)"/>
</clipPath>
<clipPath id="clip4_188_17178">
<rect width="16" height="16" fill="white" transform="translate(320 413) rotate(-90)"/>
</clipPath>
</defs>
</svg>
