<svg width="364" height="959" viewBox="0 0 364 959" fill="none" xmlns="http://www.w3.org/2000/svg">
<rect width="364" height="959" fill="black"/>
<rect x="16.5" y="16.5" width="331" height="39" rx="7.5" stroke="#1F1F1F"/>
<rect x="19" y="19" width="163" height="34" rx="6" fill="#343434"/>
<path d="M58.4881 31.774H64.1301C63.7661 31.102 63.3181 30.472 62.7861 29.87L64.1161 29.38C64.6201 30.052 65.0961 30.85 65.5301 31.774H70.8361V33.09H68.6941C68.0221 35.218 67.0281 36.996 65.7121 38.438C67.1681 39.628 68.9881 40.622 71.1441 41.406L70.4021 42.526C68.1481 41.686 66.2721 40.636 64.7881 39.376C63.2061 40.776 61.2601 41.812 58.9501 42.484L58.2361 41.308C60.5041 40.72 62.3661 39.796 63.8501 38.522C62.3101 36.982 61.2321 35.162 60.6301 33.09H58.4881V31.774ZM61.9041 33.09C62.4921 34.812 63.4441 36.324 64.7741 37.612C65.9081 36.366 66.7621 34.854 67.3221 33.09H61.9041ZM72.6281 31.984H77.9901V29.562H79.3341V31.984H84.6821V33.258H80.3841C81.3081 35.358 82.9041 37.248 85.1721 38.9L84.2621 40.048C81.9241 38.032 80.2861 35.764 79.3481 33.258H79.3341V38.41H82.2181V39.684H79.3341V42.442H77.9901V39.684H75.2181V38.41H77.9901V33.258H77.9761C76.9681 36.086 75.2601 38.41 72.8801 40.23L72.1101 38.984C74.3221 37.5 75.9321 35.582 76.9401 33.258H72.6281V31.984ZM92.3261 32.138H96.2461V29.492H97.5901V32.138H99.0321V33.426H97.5901V40.79C97.5901 41.854 97.0301 42.4 95.9241 42.4H93.7961L93.5161 41.098C94.1881 41.154 94.8461 41.182 95.4621 41.182C95.9801 41.182 96.2461 40.93 96.2461 40.454V33.426H92.3261V32.138ZM87.4821 33.132C88.2941 34.028 89.0641 34.91 89.7781 35.806C90.2261 34.658 90.4781 33.426 90.5481 32.11H86.8241V30.822H91.7381V31.802C91.7101 33.664 91.3461 35.372 90.6321 36.926C91.1641 37.654 91.6541 38.368 92.1161 39.082L91.1361 40.062C90.7861 39.446 90.3941 38.83 89.9601 38.2C89.2041 39.432 88.1961 40.552 86.9641 41.588L86.2081 40.426C87.4681 39.474 88.4481 38.354 89.1621 37.094C88.4061 36.086 87.5381 35.036 86.5861 33.972L87.4821 33.132ZM93.2641 34.84C94.1741 35.96 94.8741 36.968 95.3641 37.836L94.3141 38.564C93.7961 37.654 93.1101 36.66 92.2561 35.582L93.2641 34.84ZM111.898 31.088V42.218H110.54V41.42H102.784V42.218H101.44V31.088H111.898ZM102.784 40.118H110.54V32.39H102.784V40.118ZM114.908 30.052H121.6V31.228H120.284V33.034H121.908V34.266H120.284V37.234H118.996V34.266H117.428C117.26 35.652 116.756 36.702 115.888 37.402L114.88 36.52C115.552 36.002 115.972 35.246 116.126 34.266H114.544V33.034H116.21V31.228H114.908V30.052ZM117.498 31.228V33.034H118.996V31.228H117.498ZM122.524 30.472H123.798V35.274H122.524V30.472ZM115.258 38.41H120.06V37.388H121.376V38.41H126.08V39.628H121.376V40.93H126.85V42.148H114.474V40.93H120.06V39.628H115.258V38.41ZM125.072 37.388H123.196L122.902 36.156C123.504 36.212 124.078 36.24 124.624 36.24C124.904 36.24 125.058 36.016 125.058 35.582V29.702H126.332V35.89C126.332 36.884 125.912 37.388 125.072 37.388Z" fill="#F6F6F6"/>
<g clip-path="url(#clip0_2565_70512)">
<circle cx="140" cy="36" r="5.6" stroke="white" stroke-opacity="0.35" stroke-width="0.8"/>
<path d="M140.102 33C140.694 33 141.166 33.1574 141.527 33.4907C141.87 33.8055 142.046 34.2406 142.046 34.7961C142.046 35.2127 141.925 35.5738 141.694 35.8793C141.601 35.9904 141.351 36.2311 140.944 36.5922C140.74 36.7681 140.602 36.9347 140.509 37.1014C140.389 37.3051 140.333 37.5273 140.333 37.7772V37.9902H139.592V37.7772C139.592 37.4717 139.648 37.2032 139.759 36.9718C139.889 36.694 140.194 36.3422 140.694 35.8978C140.842 35.7497 140.953 35.6386 141.009 35.5645C141.194 35.3331 141.287 35.0924 141.287 34.8331C141.287 34.4628 141.176 34.1758 140.972 33.9721C140.759 33.7499 140.453 33.6481 140.065 33.6481C139.602 33.6481 139.259 33.7962 139.037 34.1017C138.833 34.361 138.731 34.7128 138.731 35.1664H138C138 34.5183 138.176 33.9999 138.546 33.611C138.917 33.2037 139.435 33 140.102 33ZM139.963 38.6383C140.12 38.6383 140.259 38.6846 140.37 38.7957C140.472 38.8975 140.527 39.0271 140.527 39.1845C140.527 39.3511 140.472 39.4808 140.361 39.5826C140.25 39.6844 140.12 39.74 139.963 39.74C139.805 39.74 139.676 39.6844 139.565 39.5826C139.454 39.4715 139.407 39.3419 139.407 39.1845C139.407 39.0271 139.454 38.8975 139.565 38.7957C139.676 38.6846 139.805 38.6383 139.963 38.6383Z" fill="white" fill-opacity="0.35"/>
</g>
<path d="M230.022 36.058V42.442H228.692V41.882H222.364V42.442H221.034V36.058H230.022ZM222.364 40.734H228.692V39.558H222.364V40.734ZM222.364 38.424H228.692V37.22H222.364V38.424ZM219.942 30.78H224.856C224.66 30.36 224.464 29.968 224.24 29.604L225.668 29.38C225.864 29.8 226.046 30.262 226.228 30.78H231.072V32.012H228.916C228.734 32.684 228.482 33.328 228.174 33.944H231.716V35.176H219.284V33.944H222.756C222.546 33.244 222.322 32.6 222.098 32.012H219.942V30.78ZM223.484 32.012C223.68 32.6 223.876 33.244 224.058 33.944H226.872C227.18 33.328 227.432 32.684 227.6 32.012H223.484ZM235.846 29.548H237.148V31.074H238.87V32.32H237.148V33.608H239.052V34.91H233.074V33.608H233.774V30.696H235.048V33.608H235.846V29.548ZM238.156 35.918L239.318 36.184C238.702 39.334 236.896 41.406 233.9 42.4L233.144 41.182C234.656 40.734 235.832 40.006 236.7 39.012H235.79V35.316H237.064V38.536C237.582 37.78 237.946 36.898 238.156 35.918ZM234.124 35.96L235.286 36.422C234.964 37.738 234.544 38.76 234.026 39.474L233.032 38.606C233.522 37.934 233.886 37.052 234.124 35.96ZM239.206 29.996H245.87V31.242H243.168C243.14 31.676 243.098 32.096 243.042 32.488H245.478V39.278H244.19V33.706H240.872V39.278H239.598V32.488H241.656C241.712 32.082 241.754 31.662 241.796 31.242H239.206V29.996ZM243.686 39.222C244.61 39.992 245.394 40.762 246.038 41.518L245.058 42.498C244.526 41.742 243.77 40.944 242.79 40.076L243.686 39.222ZM241.852 34.406H243.14V36.87C243.084 38.396 242.762 39.614 242.174 40.524C241.586 41.364 240.648 42.022 239.332 42.484L238.604 41.322C239.836 40.874 240.676 40.328 241.124 39.67C241.558 38.942 241.796 38.018 241.852 36.87V34.406ZM253.164 32.138H257.084V29.492H258.428V32.138H259.87V33.426H258.428V40.79C258.428 41.854 257.868 42.4 256.762 42.4H254.634L254.354 41.098C255.026 41.154 255.684 41.182 256.3 41.182C256.818 41.182 257.084 40.93 257.084 40.454V33.426H253.164V32.138ZM248.32 33.132C249.132 34.028 249.902 34.91 250.616 35.806C251.064 34.658 251.316 33.426 251.386 32.11H247.662V30.822H252.576V31.802C252.548 33.664 252.184 35.372 251.47 36.926C252.002 37.654 252.492 38.368 252.954 39.082L251.974 40.062C251.624 39.446 251.232 38.83 250.798 38.2C250.042 39.432 249.034 40.552 247.802 41.588L247.046 40.426C248.306 39.474 249.286 38.354 250 37.094C249.244 36.086 248.376 35.036 247.424 33.972L248.32 33.132ZM254.102 34.84C255.012 35.96 255.712 36.968 256.202 37.836L255.152 38.564C254.634 37.654 253.948 36.66 253.094 35.582L254.102 34.84ZM272.736 31.088V42.218H271.378V41.42H263.622V42.218H262.278V31.088H272.736ZM263.622 40.118H271.378V32.39H263.622V40.118ZM275.746 30.052H282.438V31.228H281.122V33.034H282.746V34.266H281.122V37.234H279.834V34.266H278.266C278.098 35.652 277.594 36.702 276.726 37.402L275.718 36.52C276.39 36.002 276.81 35.246 276.964 34.266H275.382V33.034H277.048V31.228H275.746V30.052ZM278.336 31.228V33.034H279.834V31.228H278.336ZM283.362 30.472H284.636V35.274H283.362V30.472ZM276.096 38.41H280.898V37.388H282.214V38.41H286.918V39.628H282.214V40.93H287.688V42.148H275.312V40.93H280.898V39.628H276.096V38.41ZM285.91 37.388H284.034L283.74 36.156C284.342 36.212 284.916 36.24 285.462 36.24C285.742 36.24 285.896 36.016 285.896 35.582V29.702H287.17V35.89C287.17 36.884 286.75 37.388 285.91 37.388Z" fill="#F6F6F6"/>
<g clip-path="url(#clip1_2565_70512)">
<circle cx="300.5" cy="36" r="5.6" stroke="white" stroke-opacity="0.35" stroke-width="0.8"/>
<path d="M300.602 33C301.194 33 301.666 33.1574 302.027 33.4907C302.37 33.8055 302.546 34.2406 302.546 34.7961C302.546 35.2127 302.425 35.5738 302.194 35.8793C302.101 35.9904 301.851 36.2311 301.444 36.5922C301.24 36.7681 301.102 36.9347 301.009 37.1014C300.889 37.3051 300.833 37.5273 300.833 37.7772V37.9902H300.092V37.7772C300.092 37.4717 300.148 37.2032 300.259 36.9718C300.389 36.694 300.694 36.3422 301.194 35.8978C301.342 35.7497 301.453 35.6386 301.509 35.5645C301.694 35.3331 301.787 35.0924 301.787 34.8331C301.787 34.4628 301.676 34.1758 301.472 33.9721C301.259 33.7499 300.953 33.6481 300.565 33.6481C300.102 33.6481 299.759 33.7962 299.537 34.1017C299.333 34.361 299.231 34.7128 299.231 35.1664H298.5C298.5 34.5183 298.676 33.9999 299.046 33.611C299.417 33.2037 299.935 33 300.602 33ZM300.463 38.6383C300.62 38.6383 300.759 38.6846 300.87 38.7957C300.972 38.8975 301.027 39.0271 301.027 39.1845C301.027 39.3511 300.972 39.4808 300.861 39.5826C300.75 39.6844 300.62 39.74 300.463 39.74C300.305 39.74 300.176 39.6844 300.065 39.5826C299.954 39.4715 299.907 39.3419 299.907 39.1845C299.907 39.0271 299.954 38.8975 300.065 38.7957C300.176 38.6846 300.305 38.6383 300.463 38.6383Z" fill="white" fill-opacity="0.35"/>
</g>
<path d="M16.696 74.676H20.704C20.896 74.424 21.052 74.16 21.172 73.896C20.14 73.932 19.06 73.968 17.956 73.992L17.788 73.008C18.484 72.912 19.456 72.252 20.704 71.052L21.832 71.436C21.22 72.036 20.608 72.564 19.984 72.996C21.316 72.948 22.612 72.888 23.872 72.804C23.584 72.54 23.272 72.288 22.96 72.036L23.836 71.484C25.012 72.372 25.912 73.152 26.536 73.812L25.588 74.472C25.372 74.22 25.132 73.968 24.868 73.716C24.052 73.764 23.2 73.8 22.336 73.848C22.216 74.136 22.084 74.412 21.928 74.676H27.268V75.708H24.508C25.216 76.308 26.224 76.776 27.544 77.124L27.052 78.168C25.3 77.532 24.04 76.716 23.26 75.708H21.136C20.176 76.716 18.784 77.556 16.972 78.204L16.456 77.196C17.8 76.812 18.868 76.32 19.672 75.708H16.696V74.676ZM21.928 75.948L22.816 76.476C22.012 77.484 20.764 78.288 19.06 78.888L18.556 78C20.092 77.484 21.208 76.8 21.928 75.948ZM25.036 77.82L26.032 78.264C24.928 80.232 22.516 81.612 18.82 82.392L18.172 81.504C21.772 80.76 24.052 79.524 25.036 77.82ZM23.452 76.956L24.34 77.544C22.888 79.152 21.1 80.136 18.964 80.52L18.316 79.656C20.536 79.296 22.252 78.396 23.452 76.956ZM29.8 72.276H32.92V71.136H34.048V72.276H36.712V72.864C37.168 72.384 37.588 71.892 37.972 71.388L38.812 72.024C38.188 72.876 37.48 73.656 36.7 74.364H39.304V75.444H35.38C34.888 75.792 34.384 76.128 33.868 76.44H38.644V77.46H32.68L32.344 78.456H38.068C37.984 80.208 37.792 81.24 37.504 81.576C37.216 81.888 36.64 82.056 35.776 82.056C35.212 82.056 34.708 82.02 34.276 81.972L33.904 80.976C34.516 81.024 35.056 81.06 35.536 81.06C36.124 81.06 36.496 80.964 36.652 80.796C36.772 80.604 36.868 80.148 36.94 79.452H31L31.516 77.628C30.676 77.988 29.8 78.312 28.876 78.588L28.42 77.568C30.292 77.016 31.948 76.308 33.412 75.444H28.912V74.364H32.92V73.32H29.8V72.276ZM35.008 74.364C35.44 74.028 35.86 73.68 36.244 73.32H34.048V74.364H35.008ZM44.716 72.768L45.724 72.9C45.652 73.092 45.568 73.272 45.484 73.44H48.568V74.208C48.268 74.796 47.8 75.312 47.176 75.768C47.92 76.104 48.76 76.368 49.708 76.584L49.12 77.436C48.004 77.136 47.044 76.776 46.228 76.344C45.316 76.8 44.2 77.172 42.88 77.472L42.388 76.56C43.54 76.368 44.524 76.116 45.316 75.78C44.932 75.516 44.596 75.24 44.308 74.952C43.984 75.24 43.612 75.516 43.204 75.78L42.58 74.952C43.636 74.352 44.344 73.62 44.716 72.768ZM46.252 75.312C46.744 75 47.14 74.652 47.428 74.268H44.944C44.92 74.292 44.896 74.304 44.896 74.328C45.28 74.688 45.736 75.024 46.252 75.312ZM43.924 78.54C45.508 78.828 47.02 79.224 48.484 79.752L48.112 80.664C46.624 80.124 45.088 79.704 43.492 79.392L43.924 78.54ZM45.148 76.92C46.108 77.208 46.996 77.544 47.788 77.94L47.26 78.756C46.408 78.288 45.532 77.928 44.632 77.664L45.148 76.92ZM51.016 71.604V82.236H49.9V81.816H42.1V82.236H40.984V71.604H51.016ZM42.1 80.808H49.9V72.612H42.1V80.808ZM55.852 75.3V75.936C55.852 76.344 55.828 76.716 55.804 77.076H61.336V82.26H60.196V78.168H55.672C55.372 79.92 54.736 81.276 53.752 82.236L52.876 81.468C54.076 80.316 54.688 78.468 54.712 75.936V71.508H55.852V74.208H59.104V71.16H60.22V74.208H62.752V75.3H55.852ZM68.548 71.16H69.652L65.464 82.2H64.348L68.548 71.16ZM72.16 77.568C71.752 77.976 71.308 78.384 70.828 78.792L70.468 77.592C71.992 76.296 73.024 75.048 73.564 73.824H70.744V72.732H72.448C72.268 72.264 72.064 71.808 71.824 71.364L72.904 71.052C73.168 71.664 73.384 72.228 73.528 72.732H74.704V73.692C74.416 74.544 73.948 75.384 73.324 76.224C73.948 76.608 74.524 77.04 75.052 77.532L74.404 78.516C74.032 78.108 73.66 77.748 73.276 77.436V82.236H72.16V77.568ZM80.692 71.568V78.324H79.54V72.66H76.504V78.324H75.376V71.568H80.692ZM80.332 82.044H79.144C78.424 82.044 78.064 81.648 78.064 80.868V78.876C77.92 79.296 77.764 79.668 77.596 80.004C77.008 81.012 76.072 81.78 74.776 82.332L74.164 81.336C75.424 80.784 76.276 80.076 76.732 79.224C77.164 78.312 77.404 77.136 77.452 75.684V73.416H78.556V75.684C78.52 76.668 78.412 77.544 78.232 78.288H79.168V80.628C79.168 80.868 79.264 81 79.48 81H80.128C80.248 81 80.344 80.94 80.416 80.82C80.488 80.676 80.536 80.268 80.572 79.584L81.628 79.932C81.544 80.952 81.4 81.564 81.208 81.768C81.016 81.948 80.716 82.044 80.332 82.044ZM84.868 71.184H85.984V72.492H87.46V73.56H85.984V74.664H87.616V75.78H82.492V74.664H83.092V72.168H84.184V74.664H84.868V71.184ZM86.848 76.644L87.844 76.872C87.316 79.572 85.768 81.348 83.2 82.2L82.552 81.156C83.848 80.772 84.856 80.148 85.6 79.296H84.82V76.128H85.912V78.888C86.356 78.24 86.668 77.484 86.848 76.644ZM83.392 76.68L84.388 77.076C84.112 78.204 83.752 79.08 83.308 79.692L82.456 78.948C82.876 78.372 83.188 77.616 83.392 76.68ZM87.748 71.568H93.46V72.636H91.144C91.12 73.008 91.084 73.368 91.036 73.704H93.124V79.524H92.02V74.748H89.176V79.524H88.084V73.704H89.848C89.896 73.356 89.932 72.996 89.968 72.636H87.748V71.568ZM91.588 79.476C92.38 80.136 93.052 80.796 93.604 81.444L92.764 82.284C92.308 81.636 91.66 80.952 90.82 80.208L91.588 79.476ZM90.016 75.348H91.12V77.46C91.072 78.768 90.796 79.812 90.292 80.592C89.788 81.312 88.984 81.876 87.856 82.272L87.232 81.276C88.288 80.892 89.008 80.424 89.392 79.86C89.764 79.236 89.968 78.444 90.016 77.46V75.348Z" fill="#B1B1B1"/>
<path d="M100.616 72.432H101.456L101.372 74.772L103.508 73.956L103.772 74.748L101.564 75.408L103.052 77.172L102.404 77.688L101.036 75.792L99.668 77.688L99.02 77.172L100.508 75.408L98.3 74.748L98.564 73.956L100.712 74.772L100.616 72.432Z" fill="#E94140"/>
<rect x="16.5" y="94.5" width="76" height="76" rx="7.5" fill="#131313"/>
<rect x="16.5" y="94.5" width="76" height="76" rx="7.5" stroke="#686868" stroke-dasharray="3 3"/>
<g clip-path="url(#clip2_2565_70512)">
<g clip-path="url(#clip3_2565_70512)">
<path d="M54.4951 114V126" stroke="#E9E9E7" stroke-width="1.5" stroke-linecap="round"/>
<path d="M60.5 119.996L48.5 119.996" stroke="#E9E9E7" stroke-width="1.5" stroke-linecap="round"/>
</g>
</g>
<path d="M32.156 138.382L33.052 138.494C32.94 138.76 32.828 139.012 32.688 139.264H36.384V139.964C35.992 140.706 35.404 141.364 34.606 141.924C35.544 142.372 36.608 142.75 37.812 143.03L37.28 143.786C35.922 143.422 34.76 142.974 33.78 142.428C32.702 143.002 31.372 143.464 29.776 143.814L29.328 143.002C30.77 142.75 31.988 142.386 32.968 141.924C32.422 141.56 31.946 141.168 31.554 140.748C31.134 141.14 30.658 141.504 30.126 141.84L29.566 141.112C30.84 140.356 31.708 139.446 32.156 138.382ZM33.78 141.49C34.466 141.07 34.998 140.58 35.376 140.02H32.198C32.142 140.076 32.1 140.132 32.072 140.188C32.562 140.664 33.136 141.098 33.78 141.49ZM31.008 145.256C32.87 145.606 34.662 146.11 36.37 146.754L36.034 147.566C34.298 146.894 32.492 146.376 30.616 146.012L31.008 145.256ZM32.464 143.296C33.556 143.66 34.564 144.108 35.474 144.612L34.998 145.34C34.032 144.752 33.038 144.304 32.002 143.968L32.464 143.296ZM39.212 137.178V149.4H38.232V148.826H28.768V149.4H27.788V137.178H39.212ZM28.768 147.93H38.232V138.074H28.768V147.93ZM44.84 141.252V142.092C44.826 142.61 44.798 143.1 44.77 143.562H51.28V149.428H50.272V144.542H44.644C44.308 146.642 43.538 148.266 42.348 149.386L41.578 148.714C43.048 147.328 43.79 145.116 43.818 142.092V136.954H44.84V140.286H48.942V136.562H49.936V140.286H53.086V141.252H44.84ZM57.174 143.59C56.642 144.15 56.04 144.71 55.396 145.27L55.088 144.22C56.964 142.61 58.224 141.042 58.854 139.502H55.41V138.536H57.594C57.356 137.906 57.076 137.304 56.754 136.716L57.72 136.436C58.056 137.136 58.322 137.794 58.518 138.382L58.112 138.536H59.862V139.39C59.498 140.412 58.938 141.42 58.182 142.414C58.952 142.89 59.652 143.436 60.268 144.038L59.694 144.906C59.19 144.346 58.672 143.87 58.168 143.478V149.4H57.174V143.59ZM66.848 137.122V144.864H65.826V138.088H61.892V144.864H60.898V137.122H66.848ZM66.554 149.176H65.21C64.44 149.176 64.062 148.77 64.062 147.958V144.836H65.042V147.748C65.042 148.084 65.196 148.252 65.504 148.252H66.372C66.582 148.252 66.722 148.168 66.806 148.028C66.918 147.846 67.002 147.314 67.044 146.446L67.982 146.74C67.898 147.888 67.744 148.602 67.52 148.854C67.31 149.064 66.988 149.176 66.554 149.176ZM63.348 139.082H64.328V141.756C64.272 143.856 63.908 145.522 63.236 146.768C62.564 147.93 61.486 148.84 59.974 149.484L59.428 148.602C60.898 147.958 61.92 147.118 62.494 146.054C63.026 144.962 63.32 143.52 63.348 141.756V139.082ZM71.972 136.562H72.952V138.214H74.856V139.166H72.952V140.79H75.024V141.77H69.116V140.79H69.928V137.696H70.894V140.79H71.972V136.562ZM74.282 142.946L75.164 143.142C74.548 146.264 72.756 148.322 69.788 149.302L69.214 148.392C72.028 147.524 73.722 145.704 74.282 142.946ZM70.278 143.002L71.16 143.352C70.824 144.668 70.404 145.676 69.872 146.376L69.13 145.732C69.634 145.046 70.026 144.136 70.278 143.002ZM71.944 142.316H72.91V145.97H71.944V142.316ZM75.248 137.122H81.828V138.074H79.028C78.986 138.606 78.93 139.11 78.86 139.614H81.324V146.264H80.344V140.552H76.718V146.264H75.752V139.614H77.81C77.894 139.11 77.95 138.606 77.992 138.074H75.248V137.122ZM79.56 146.334C80.512 147.132 81.324 147.916 81.982 148.7L81.24 149.442C80.666 148.672 79.882 147.846 78.888 146.978L79.56 146.334ZM78.006 141.392H78.986V143.87C78.958 145.368 78.636 146.558 78.048 147.454C77.474 148.28 76.536 148.924 75.22 149.386L74.66 148.518C75.906 148.07 76.774 147.496 77.264 146.796C77.726 146.04 77.978 145.074 78.006 143.87V141.392Z" fill="#E9E9E7"/>
<path d="M25.876 191.764V197.236H24.736V196.756H19.312V197.236H18.172V191.764H25.876ZM19.312 195.772H24.736V194.764H19.312V195.772ZM19.312 193.792H24.736V192.76H19.312V193.792ZM17.236 187.24H21.448C21.28 186.88 21.112 186.544 20.92 186.232L22.144 186.04C22.312 186.4 22.468 186.796 22.624 187.24H26.776V188.296H24.928C24.772 188.872 24.556 189.424 24.292 189.952H27.328V191.008H16.672V189.952H19.648C19.468 189.352 19.276 188.8 19.084 188.296H17.236V187.24ZM20.272 188.296C20.44 188.8 20.608 189.352 20.764 189.952H23.176C23.44 189.424 23.656 188.872 23.8 188.296H20.272ZM33.652 190.576H31.096V192.46H33.652V190.576ZM34.792 192.46H37.324V190.576H34.792V192.46ZM31.912 188.224C31.48 188.692 31.012 189.124 30.532 189.508H34.36C34.744 189.148 35.128 188.716 35.536 188.224H31.912ZM29.944 189.964C29.692 190.132 29.452 190.3 29.212 190.456L28.444 189.532C29.908 188.704 31.156 187.552 32.2 186.088L33.364 186.34C33.172 186.64 32.968 186.928 32.764 187.192H37.012V188.056C36.628 188.62 36.244 189.1 35.872 189.508H38.476V193.54H31.096V195.412C31.096 195.76 31.288 195.94 31.648 195.94H37.216C37.588 195.916 37.84 195.808 37.96 195.592C38.056 195.424 38.164 194.944 38.26 194.152L39.376 194.512C39.28 195.292 39.16 195.844 39.04 196.18C38.824 196.732 38.344 197.02 37.6 197.044H31.168C30.352 197.044 29.944 196.648 29.944 195.856V189.964Z" fill="#B1B1B1"/>
<rect x="16" y="209" width="332" height="44" rx="8" fill="#131313"/>
<g clip-path="url(#clip4_2565_70512)">
<g clip-path="url(#clip5_2565_70512)">
<path d="M34.4343 225C36.6893 225 38.5502 226.822 38.8315 229.179L39.9755 231.045C40.0571 231.185 40.0406 231.393 39.8502 231.481L38.8687 231.985V234C38.8687 234.663 38.3726 235.2 37.7599 235.2H36.6517V237H31.6632V234.784C31.6632 234.075 31.4213 233.406 30.9728 232.801C30.4506 232.095 30.1233 231.243 30.0286 230.345C29.9339 229.446 30.0755 228.537 30.4373 227.722C30.7986 226.907 31.3656 226.219 32.0728 225.738C32.78 225.256 33.5986 225 34.4343 225ZM42.5583 231.496L42.7258 231.965C43.0039 232.747 43.0716 233.519 42.9237 234.271C42.7763 235.022 42.4241 235.697 41.8761 236.289L41.5468 236.644L40.8893 235.932L41.2186 235.577C41.6423 235.119 41.9044 234.617 42.0135 234.061C42.1227 233.506 42.0722 232.932 41.8571 232.327L41.6899 231.857L42.5583 231.496ZM40.8893 232.31L41.0321 232.789C41.1384 233.146 41.1591 233.503 41.0908 233.85C41.0228 234.198 40.8696 234.514 40.638 234.794L40.3273 235.169L39.6344 234.497L39.945 234.122C40.0703 233.971 40.1469 233.813 40.1806 233.641C40.2142 233.47 40.2038 233.291 40.1462 233.098L40.0034 232.619L40.8893 232.31Z" fill="#E9E9E7"/>
</g>
</g>
<path d="M54.086 225.374H64.054V226.354H54.086V225.374ZM52.742 229.28H65.3V230.288H58.58C57.292 232.934 56.158 234.768 55.206 235.804C57.726 235.664 60.232 235.426 62.738 235.09C62.234 234.194 61.674 233.27 61.058 232.318L61.87 231.814C63.158 233.746 64.152 235.44 64.852 236.868L63.956 237.498C63.732 237.008 63.494 236.518 63.228 236.014C60.386 236.378 57.292 236.658 53.932 236.882L53.666 235.86C53.778 235.832 53.848 235.79 53.904 235.762C54.8 235.09 55.99 233.27 57.46 230.288H52.742V229.28ZM71.138 225.122H78.166V225.962C77.746 227.054 76.976 227.978 75.87 228.734C76.878 229.182 78.096 229.49 79.524 229.658L79.16 230.568C77.452 230.344 76.052 229.924 74.932 229.308C73.84 229.868 72.538 230.33 70.998 230.694L70.508 229.84C71.88 229.532 73.042 229.154 74.008 228.706C73.084 227.992 72.412 227.096 71.992 226.032H71.138V225.122ZM72.958 226.032C73.364 226.914 74.008 227.642 74.904 228.216C75.912 227.6 76.654 226.872 77.102 226.032H72.958ZM71.404 231.59H74.456V230.498H75.422V231.59H78.46V232.514H75.422V234.068H79.23V235.034H75.422V237.386H74.456V235.034H70.62V234.068H74.456V232.514H71.404V231.59ZM67.848 224.786C68.898 225.486 69.78 226.172 70.48 226.872L69.766 227.6C69.122 226.928 68.254 226.228 67.134 225.472L67.848 224.786ZM67.526 228.048C68.506 228.748 69.332 229.462 69.99 230.162L69.276 230.876C68.688 230.204 67.862 229.504 66.812 228.748L67.526 228.048ZM69.486 231.968L70.396 232.332C69.682 234.068 68.884 235.706 68.016 237.246L67.008 236.798C67.96 235.23 68.786 233.62 69.486 231.968ZM80.854 228.244H86.3C86.412 227.432 86.468 226.592 86.482 225.71V224.576H87.518V225.486C87.518 226.466 87.448 227.376 87.336 228.244H93.146V229.224H87.63C88.61 232.388 90.542 234.824 93.412 236.532L92.782 237.344C89.968 235.608 88.036 233.172 86.986 230.008C86.118 233.41 84.186 235.888 81.204 237.442L80.574 236.602C83.556 235.132 85.404 232.668 86.132 229.224H80.854V228.244ZM97.318 224.618H98.284V226.41H100.902V227.334H98.284V229.07H101.448V230.036H98.732V235.566C98.732 236.686 98.312 237.26 97.486 237.26H96.38L96.17 236.308C96.506 236.336 96.828 236.364 97.136 236.364C97.556 236.364 97.766 236.014 97.766 235.328V230.036H94.784V229.07H97.318V224.618ZM95.974 231.408L96.87 231.604C96.492 233.214 95.96 234.614 95.288 235.79L94.504 235.286C95.176 234.124 95.666 232.836 95.974 231.408ZM100.384 231.296C100.804 232.374 101.182 233.606 101.518 234.978L100.608 235.216C100.328 233.956 99.964 232.738 99.544 231.576L100.384 231.296ZM101.224 225.416H106.754V226.102C106.586 228.916 105.956 231.324 104.85 233.34C105.55 234.502 106.432 235.566 107.468 236.546L106.768 237.344C105.774 236.392 104.934 235.37 104.262 234.292C103.464 235.482 102.484 236.504 101.322 237.372L100.664 236.546C101.91 235.65 102.932 234.586 103.716 233.354C102.596 231.254 101.98 228.93 101.868 226.382H101.224V225.416ZM102.75 226.382C102.876 228.566 103.394 230.554 104.29 232.346C105.144 230.638 105.648 228.65 105.802 226.382H102.75Z" fill="#F6F6F6"/>
<g clip-path="url(#clip6_2565_70512)">
<g clip-path="url(#clip7_2565_70512)">
<path d="M326 235.5L329.675 231.795C330.108 231.358 330.108 230.642 329.675 230.205L326 226.5" stroke="#E9E9E7" stroke-linecap="round" stroke-linejoin="round"/>
</g>
</g>
<path d="M26.104 274.148V279.248H24.952V278.756H19.048V279.248H17.896V274.148H26.104ZM19.048 277.664H24.952V275.24H19.048V277.664ZM17.116 273.032L16.9 271.952C17.812 271.748 19.072 270.464 20.68 268.112L21.868 268.52C20.896 269.864 19.912 270.992 18.904 271.904C20.944 271.832 22.912 271.7 24.82 271.52C24.436 270.944 24.04 270.416 23.644 269.912L24.676 269.42C25.648 270.62 26.572 271.94 27.448 273.392L26.332 273.944C26.044 273.44 25.768 272.972 25.492 272.528C22.984 272.744 20.188 272.912 17.116 273.032ZM37.696 279.188H36.376L36.088 278.096L37.456 278.12C37.816 278.12 37.996 277.916 37.996 277.532V269.648H32.392V268.568H39.124V277.856C39.124 278.744 38.644 279.188 37.696 279.188ZM32.668 270.8H37.372V271.892H32.668V270.8ZM33.028 272.96H36.964V276.896H33.028V272.96ZM35.896 275.9V273.956H34.12V275.9H35.896ZM30.076 268.256C30.856 268.844 31.516 269.432 32.056 270.032L31.276 270.824C30.796 270.26 30.136 269.66 29.284 269.036L30.076 268.256ZM28.48 271.736H31.228V276.728C31.528 276.44 31.84 276.116 32.164 275.78L32.464 277.004C31.768 277.7 31.036 278.324 30.268 278.876L29.836 277.856C30.028 277.688 30.136 277.472 30.136 277.232V272.828H28.48V271.736Z" fill="#B1B1B1"/>
<path d="M46.616 269.432H47.456L47.372 271.772L49.508 270.956L49.772 271.748L47.564 272.408L49.052 274.172L48.404 274.688L47.036 272.792L45.668 274.688L45.02 274.172L46.508 272.408L44.3 271.748L44.564 270.956L46.712 271.772L46.616 269.432Z" fill="#E94140"/>
<rect x="16" y="291" width="332" height="80" rx="8" fill="#131313"/>
<path d="M36.596 304.562H37.562V305.472H41.034V306.298H37.562V307.236H40.53V308.048H37.562V309H41.384V309.84H32.816V309H36.596V308.048H33.768V307.236H36.596V306.298H33.208V305.472H36.596V304.562ZM34.846 313.368V314.39H39.368V313.368H34.846ZM39.368 312.584V311.548H34.846V312.584H39.368ZM34.846 315.174V317.4H33.88V310.722H40.334V316.182C40.334 316.938 39.928 317.316 39.144 317.316H37.968L37.73 316.42L38.85 316.462C39.186 316.462 39.368 316.294 39.368 315.972V315.174H34.846ZM30.282 304.716C31.22 305.416 32.004 306.13 32.648 306.844L31.962 307.544C31.374 306.872 30.576 306.158 29.568 305.402L30.282 304.716ZM28.588 308.846H31.556V314.992C31.976 314.6 32.41 314.166 32.886 313.676L33.152 314.74C32.368 315.552 31.528 316.28 30.66 316.91L30.268 316.014C30.478 315.818 30.59 315.608 30.59 315.37V309.812H28.588V308.846ZM45.206 308.454H46.144V310.54H47.432V311.45H46.144V313.34C46.62 313.228 47.054 313.116 47.474 313.004V313.956L46.144 314.292V317.4H45.206V314.502C44.408 314.656 43.582 314.796 42.728 314.922L42.602 313.942C43.526 313.83 44.394 313.69 45.206 313.536V311.45H43.022L42.812 310.61C43.204 309.77 43.554 308.72 43.876 307.474H42.714V306.522H44.1C44.24 305.878 44.366 305.22 44.492 304.52L45.416 304.73C45.29 305.36 45.164 305.962 45.038 306.522H47.502V307.474H44.8C44.492 308.622 44.17 309.644 43.82 310.54H45.206V308.454ZM49.336 307.74C48.804 308.23 48.272 308.692 47.726 309.112L47.18 308.272C48.608 307.222 49.896 305.99 51.03 304.59H51.758C52.976 306.102 54.222 307.292 55.496 308.188L54.964 308.986C53.648 308.034 52.458 306.872 51.394 305.5C50.722 306.312 50.05 307.054 49.35 307.726H53.354V308.566H49.336V307.74ZM50.316 317.302H49.644L49.42 316.476L50.036 316.504C50.344 316.504 50.498 316.35 50.498 316.042V314.782H48.93V317.4H48.048V309.686H51.352V316.224C51.352 316.938 51.002 317.302 50.316 317.302ZM48.93 313.998H50.498V312.668H48.93V313.998ZM48.93 311.884H50.498V310.498H48.93V311.884ZM52.192 310.078H52.976V315.104H52.192V310.078ZM53.718 317.33H52.528L52.318 316.448C52.696 316.476 53.06 316.504 53.41 316.504C53.704 316.504 53.858 316.294 53.858 315.902V309.448H54.74V316.126C54.74 316.924 54.39 317.33 53.718 317.33ZM62.384 307.81C61.74 306.634 60.97 305.738 60.074 305.094L60.914 304.562C62.16 305.43 63.21 307.012 64.078 309.28C65.394 312.626 67.144 314.992 69.356 316.378L68.726 317.19C66.458 315.818 64.61 313.27 63.168 309.574C63.084 309.35 63.014 309.154 62.944 308.986C62.02 312.556 60.088 315.3 57.148 317.204L56.546 316.35C59.542 314.39 61.488 311.534 62.384 307.81ZM70.938 309.364H75.53C75.81 308.902 76.062 308.44 76.258 307.978L77.252 308.104C77.07 308.552 76.874 308.972 76.65 309.364H83.188V310.33H76.048C75.6 310.974 75.082 311.562 74.508 312.122H77.238V310.862H78.246V312.122H81.97V315.468C81.97 316.35 81.564 316.798 80.752 316.798H79.59L79.324 315.832L80.43 315.874C80.794 315.874 80.976 315.664 80.976 315.244V313.06H78.246V317.47H77.238V313.06H74.718V316.924H73.71V312.836C72.982 313.452 72.17 314.012 71.302 314.53L70.7 313.732C72.436 312.738 73.822 311.604 74.844 310.33H70.938V309.364ZM80.626 304.506L81.508 305.052C80.612 305.626 79.716 306.13 78.82 306.55C79.968 306.97 81.06 307.404 82.096 307.866L81.55 308.706C80.234 308.09 78.918 307.558 77.574 307.082C76.258 307.586 74.55 308.09 72.478 308.608L71.932 307.726C73.486 307.418 74.914 307.054 76.202 306.606C75.026 306.214 73.836 305.878 72.646 305.584L73.164 304.786C74.69 305.178 76.146 305.626 77.546 306.102C78.666 305.626 79.688 305.094 80.626 304.506ZM84.98 306.088H87.556C87.444 305.57 87.304 305.108 87.164 304.688L88.186 304.52C88.312 304.982 88.438 305.5 88.55 306.088H90.874V306.998H87.164V309.994C88.41 309.742 89.474 309.448 90.37 309.126L90.538 310.008C89.278 310.428 87.766 310.806 86.016 311.128L85.764 310.358C86.072 310.246 86.24 310.036 86.24 309.728V306.998H84.98V306.088ZM92.624 307.67V307.908C92.624 308.16 92.596 308.398 92.568 308.622H95.522V307.67H92.624ZM95.522 306.9V305.934H92.624V306.9H95.522ZM92.428 309.378C92.204 310.19 91.798 310.876 91.21 311.45L90.482 310.806C91.252 310.05 91.644 309.112 91.672 307.964V305.108H96.446V310.246C96.446 310.918 96.068 311.268 95.326 311.268H93.926L93.702 310.4C94.178 310.414 94.612 310.428 95.032 310.428C95.354 310.428 95.522 310.246 95.522 309.91V309.378H92.428ZM90.51 312.766H85.666V311.884H96.334V312.766H91.49V314.04H95.648V314.908H91.49V316.168H96.964V317.064H85.036V316.168H90.51V314.908H86.394V314.04H90.51V312.766ZM101.458 311.632V311.87C101.444 312.374 101.416 312.85 101.36 313.298H104.748V311.632H101.458ZM101.206 314.194C100.926 315.454 100.422 316.546 99.694 317.456L98.924 316.756C99.932 315.496 100.436 313.886 100.464 311.94V308.608C100.086 308.888 99.708 309.14 99.316 309.392L98.672 308.622C100.464 307.558 101.92 306.172 103.04 304.464L104.048 304.688C103.824 305.038 103.586 305.374 103.362 305.696H108.584V306.438C107.954 307.054 107.324 307.586 106.694 308.034H110.306V316.084C110.306 316.91 109.844 317.33 108.934 317.33H107.142L106.89 316.392C107.52 316.42 108.108 316.448 108.64 316.448C109.088 316.448 109.326 316.21 109.326 315.734V314.194H105.742V317.148H104.748V314.194H101.206ZM109.326 313.298V311.632H105.742V313.298H109.326ZM109.326 310.736V308.944H105.742V310.736H109.326ZM101.164 308.034H105.224C105.882 307.614 106.54 307.138 107.198 306.578H102.648C102.172 307.11 101.682 307.586 101.164 308.034ZM104.748 308.944H101.458V310.736H104.748V308.944ZM118.748 309.49H115.402V312.024H118.748V309.49ZM119.77 312.024H123.06V309.49H119.77V312.024ZM116.494 306.788C115.906 307.432 115.262 308.02 114.576 308.552H119.406C119.966 308.048 120.512 307.46 121.058 306.788H116.494ZM114.38 308.692C114.016 308.972 113.652 309.224 113.288 309.462L112.616 308.65C114.408 307.586 115.892 306.2 117.054 304.478L118.062 304.702C117.81 305.108 117.544 305.5 117.264 305.864H122.36V306.634C121.828 307.39 121.296 308.02 120.764 308.552H124.082V312.976H115.402V315.552C115.402 315.972 115.64 316.196 116.088 316.196H122.85C123.326 316.182 123.648 316.028 123.83 315.734C123.97 315.496 124.082 314.894 124.18 313.942L125.174 314.25C125.076 315.174 124.95 315.832 124.782 316.224C124.502 316.84 123.97 317.148 123.158 317.176H115.696C114.814 317.176 114.38 316.756 114.38 315.916V308.692ZM131.544 307.53H135.478C136.066 306.578 136.57 305.542 137.004 304.436L137.97 304.772C137.536 305.808 137.046 306.718 136.5 307.53H138.474V311.954H136.584V315.748C136.584 316.084 136.738 316.266 137.046 316.266H137.872C138.11 316.266 138.278 316.168 138.376 315.986C138.516 315.762 138.6 315.132 138.642 314.082L139.552 314.362C139.468 315.706 139.3 316.518 139.062 316.798C138.838 317.05 138.502 317.176 138.054 317.176H136.766C135.996 317.176 135.618 316.77 135.618 315.958V311.954H134.274C134.106 314.446 133.028 316.266 131.012 317.414L130.466 316.56C132.258 315.622 133.224 314.082 133.364 311.954H131.544V307.53ZM137.536 311.03V308.454H132.496V311.03H137.536ZM132.818 304.506C133.336 305.206 133.826 305.962 134.274 306.802L133.434 307.222C132.958 306.368 132.454 305.598 131.922 304.926L132.818 304.506ZM128.296 304.73C129.22 305.43 129.99 306.13 130.634 306.83L129.948 307.53C129.374 306.858 128.59 306.158 127.596 305.416L128.296 304.73ZM126.588 308.846H129.612V315.034C130.06 314.642 130.55 314.18 131.068 313.662L131.334 314.726C130.522 315.538 129.654 316.252 128.73 316.882L128.338 315.986C128.534 315.79 128.646 315.566 128.646 315.314V309.812H126.588V308.846ZM150.794 309.434V305.612H151.802V310.414H147.518V315.552H151.466V311.73H152.488V317.302H151.466V316.518H141.512V311.73H142.534V315.552H146.482V310.414H142.198V305.612H143.206V309.434H146.482V304.548H147.518V309.434H150.794ZM159.656 306.984V316.532H158.676V315.734H156.128V316.938H155.148V306.984H156.45C156.73 306.2 156.926 305.388 157.052 304.548L158.06 304.688C157.892 305.514 157.682 306.284 157.402 306.984H159.656ZM156.128 314.796H158.676V311.73H156.128V314.796ZM156.128 310.82H158.676V307.936H156.128V310.82ZM162.092 310.232C163.1 311.394 163.856 312.416 164.388 313.284L163.59 313.844C163.016 312.92 162.246 311.884 161.28 310.736L162.092 310.232ZM166.894 306.998C166.894 311.646 166.824 314.53 166.684 315.622C166.544 316.686 165.9 317.232 164.724 317.232C164.444 317.232 163.968 317.204 163.296 317.176L163.058 316.252C163.646 316.28 164.15 316.294 164.584 316.294C165.242 316.294 165.62 315.93 165.732 315.216C165.816 314.432 165.872 312.01 165.9 307.978H162.05C161.658 308.86 161.196 309.658 160.65 310.372L160.048 309.574C161.028 308.202 161.686 306.522 162.05 304.534L163.044 304.66C162.876 305.486 162.68 306.27 162.428 306.998H166.894ZM174.958 310.302C174.384 311.898 173.292 313.214 171.668 314.278L170.996 313.452C172.564 312.416 173.6 311.128 174.104 309.574C174.258 309.028 174.384 308.44 174.482 307.796H170.492V317.386H169.47V306.816H174.594C174.664 306.102 174.706 305.332 174.706 304.52H175.728C175.728 305.346 175.686 306.116 175.63 306.816H180.544V315.832C180.544 316.77 180.082 317.246 179.186 317.246H176.988L176.708 316.238L178.85 316.294C179.298 316.294 179.522 316.056 179.522 315.608V307.796H175.518C175.448 308.328 175.364 308.832 175.252 309.294C176.708 310.666 177.926 312.024 178.92 313.354L178.164 314.124C177.352 312.92 176.274 311.646 174.958 310.302ZM189.168 304.492C189.336 304.856 189.49 305.276 189.644 305.738H194.726V308.23H193.746V306.676H184.254V308.3H183.274V305.738H188.594C188.426 305.346 188.258 304.996 188.09 304.674L189.168 304.492ZM188.636 308.972H189.406C190.54 310.386 192.5 311.618 195.272 312.682L194.726 313.508C194.166 313.284 193.648 313.06 193.172 312.836V317.414H192.206V316.826H185.948V317.414H184.968V312.78C184.394 313.06 183.82 313.298 183.232 313.522L182.7 312.696C185.262 311.744 187.236 310.512 188.636 308.972ZM185.948 315.902H192.206V313.662H185.948V315.902ZM184.996 312.766H193.018C191.31 311.926 189.966 310.946 189.014 309.854C187.894 311.03 186.55 311.996 184.996 312.766ZM190.638 307.264C192.318 308.132 193.746 309 194.894 309.868L194.194 310.554C193.172 309.714 191.772 308.832 189.994 307.894L190.638 307.264ZM187.32 307.25L187.992 307.852C186.802 308.888 185.346 309.798 183.61 310.582L183.008 309.798C184.716 309.07 186.144 308.23 187.32 307.25Z" fill="#959595"/>
<path d="M17.968 397.128H16.912L16.66 396.024C16.972 396.06 17.284 396.084 17.572 396.084C17.848 396.084 17.992 395.94 17.992 395.664V393.096C17.584 393.252 17.164 393.396 16.744 393.54L16.468 392.388C16.984 392.268 17.488 392.112 17.992 391.932V389.46H16.636V388.368H17.992V386.196H19.144V388.368H20.26V389.46H19.144V391.452C19.456 391.308 19.756 391.152 20.056 390.984V392.148C19.744 392.304 19.444 392.46 19.144 392.604V395.964C19.144 396.732 18.748 397.128 17.968 397.128ZM21.076 386.532H26.476V390.864H21.076V386.532ZM25.36 389.94V389.124H22.18V389.94H25.36ZM22.18 388.26H25.36V387.456H22.18V388.26ZM20.296 391.488H27.196V392.508H24.316V393.612H26.68V394.62H24.316V395.892C24.76 395.94 25.276 395.976 25.876 395.976C26.524 395.976 27.076 395.952 27.532 395.904L27.22 397.008C26.752 397.008 26.332 396.996 25.948 396.984C24.352 396.972 23.26 396.828 22.672 396.54C22.252 396.324 21.868 395.94 21.532 395.388C21.256 396.048 20.896 396.66 20.452 397.224L19.6 396.492C20.464 395.412 20.944 394.224 21.04 392.904L22.048 393.024C22.024 393.456 21.964 393.864 21.88 394.26C22.24 394.956 22.648 395.412 23.116 395.604L23.224 395.64V392.508H20.296V391.488ZM33.34 397.092H31.792L31.552 395.988C32.032 396.024 32.5 396.048 32.944 396.048C33.28 396.048 33.448 395.892 33.448 395.58V390.876H28.852V389.748H39.148V390.876H34.612V395.868C34.612 396.684 34.18 397.092 33.34 397.092ZM30.58 392.04L31.708 392.292C31.216 393.948 30.52 395.376 29.632 396.576L28.636 395.964C29.548 394.74 30.196 393.432 30.58 392.04ZM37.216 391.896C38.032 393.192 38.728 394.56 39.316 396.012L38.272 396.48C37.636 394.884 36.94 393.468 36.184 392.244L37.216 391.896ZM29.956 386.724H38.08V387.828H29.956V386.724ZM49.696 397.188H48.376L48.088 396.096L49.456 396.12C49.816 396.12 49.996 395.916 49.996 395.532V387.648H44.392V386.568H51.124V395.856C51.124 396.744 50.644 397.188 49.696 397.188ZM44.668 388.8H49.372V389.892H44.668V388.8ZM45.028 390.96H48.964V394.896H45.028V390.96ZM47.896 393.9V391.956H46.12V393.9H47.896ZM42.076 386.256C42.856 386.844 43.516 387.432 44.056 388.032L43.276 388.824C42.796 388.26 42.136 387.66 41.284 387.036L42.076 386.256ZM40.48 389.736H43.228V394.728C43.528 394.44 43.84 394.116 44.164 393.78L44.464 395.004C43.768 395.7 43.036 396.324 42.268 396.876L41.836 395.856C42.028 395.688 42.136 395.472 42.136 395.232V390.828H40.48V389.736Z" fill="#B1B1B1"/>
<path d="M16 417C16 412.582 19.5817 409 24 409H340C344.418 409 348 412.582 348 417V529H16V417Z" fill="#131313"/>
<path d="M36.596 422.562H37.562V423.472H41.034V424.298H37.562V425.236H40.53V426.048H37.562V427H41.384V427.84H32.816V427H36.596V426.048H33.768V425.236H36.596V424.298H33.208V423.472H36.596V422.562ZM34.846 431.368V432.39H39.368V431.368H34.846ZM39.368 430.584V429.548H34.846V430.584H39.368ZM34.846 433.174V435.4H33.88V428.722H40.334V434.182C40.334 434.938 39.928 435.316 39.144 435.316H37.968L37.73 434.42L38.85 434.462C39.186 434.462 39.368 434.294 39.368 433.972V433.174H34.846ZM30.282 422.716C31.22 423.416 32.004 424.13 32.648 424.844L31.962 425.544C31.374 424.872 30.576 424.158 29.568 423.402L30.282 422.716ZM28.588 426.846H31.556V432.992C31.976 432.6 32.41 432.166 32.886 431.676L33.152 432.74C32.368 433.552 31.528 434.28 30.66 434.91L30.268 434.014C30.478 433.818 30.59 433.608 30.59 433.37V427.812H28.588V426.846ZM45.206 426.454H46.144V428.54H47.432V429.45H46.144V431.34C46.62 431.228 47.054 431.116 47.474 431.004V431.956L46.144 432.292V435.4H45.206V432.502C44.408 432.656 43.582 432.796 42.728 432.922L42.602 431.942C43.526 431.83 44.394 431.69 45.206 431.536V429.45H43.022L42.812 428.61C43.204 427.77 43.554 426.72 43.876 425.474H42.714V424.522H44.1C44.24 423.878 44.366 423.22 44.492 422.52L45.416 422.73C45.29 423.36 45.164 423.962 45.038 424.522H47.502V425.474H44.8C44.492 426.622 44.17 427.644 43.82 428.54H45.206V426.454ZM49.336 425.74C48.804 426.23 48.272 426.692 47.726 427.112L47.18 426.272C48.608 425.222 49.896 423.99 51.03 422.59H51.758C52.976 424.102 54.222 425.292 55.496 426.188L54.964 426.986C53.648 426.034 52.458 424.872 51.394 423.5C50.722 424.312 50.05 425.054 49.35 425.726H53.354V426.566H49.336V425.74ZM50.316 435.302H49.644L49.42 434.476L50.036 434.504C50.344 434.504 50.498 434.35 50.498 434.042V432.782H48.93V435.4H48.048V427.686H51.352V434.224C51.352 434.938 51.002 435.302 50.316 435.302ZM48.93 431.998H50.498V430.668H48.93V431.998ZM48.93 429.884H50.498V428.498H48.93V429.884ZM52.192 428.078H52.976V433.104H52.192V428.078ZM53.718 435.33H52.528L52.318 434.448C52.696 434.476 53.06 434.504 53.41 434.504C53.704 434.504 53.858 434.294 53.858 433.902V427.448H54.74V434.126C54.74 434.924 54.39 435.33 53.718 435.33ZM62.384 425.81C61.74 424.634 60.97 423.738 60.074 423.094L60.914 422.562C62.16 423.43 63.21 425.012 64.078 427.28C65.394 430.626 67.144 432.992 69.356 434.378L68.726 435.19C66.458 433.818 64.61 431.27 63.168 427.574C63.084 427.35 63.014 427.154 62.944 426.986C62.02 430.556 60.088 433.3 57.148 435.204L56.546 434.35C59.542 432.39 61.488 429.534 62.384 425.81ZM73.458 429.632V429.87C73.444 430.374 73.416 430.85 73.36 431.298H76.748V429.632H73.458ZM73.206 432.194C72.926 433.454 72.422 434.546 71.694 435.456L70.924 434.756C71.932 433.496 72.436 431.886 72.464 429.94V426.608C72.086 426.888 71.708 427.14 71.316 427.392L70.672 426.622C72.464 425.558 73.92 424.172 75.04 422.464L76.048 422.688C75.824 423.038 75.586 423.374 75.362 423.696H80.584V424.438C79.954 425.054 79.324 425.586 78.694 426.034H82.306V434.084C82.306 434.91 81.844 435.33 80.934 435.33H79.142L78.89 434.392C79.52 434.42 80.108 434.448 80.64 434.448C81.088 434.448 81.326 434.21 81.326 433.734V432.194H77.742V435.148H76.748V432.194H73.206ZM81.326 431.298V429.632H77.742V431.298H81.326ZM81.326 428.736V426.944H77.742V428.736H81.326ZM73.164 426.034H77.224C77.882 425.614 78.54 425.138 79.198 424.578H74.648C74.172 425.11 73.682 425.586 73.164 426.034ZM76.748 426.944H73.458V428.736H76.748V426.944ZM90.748 427.49H87.402V430.024H90.748V427.49ZM91.77 430.024H95.06V427.49H91.77V430.024ZM88.494 424.788C87.906 425.432 87.262 426.02 86.576 426.552H91.406C91.966 426.048 92.512 425.46 93.058 424.788H88.494ZM86.38 426.692C86.016 426.972 85.652 427.224 85.288 427.462L84.616 426.65C86.408 425.586 87.892 424.2 89.054 422.478L90.062 422.702C89.81 423.108 89.544 423.5 89.264 423.864H94.36V424.634C93.828 425.39 93.296 426.02 92.764 426.552H96.082V430.976H87.402V433.552C87.402 433.972 87.64 434.196 88.088 434.196H94.85C95.326 434.182 95.648 434.028 95.83 433.734C95.97 433.496 96.082 432.894 96.18 431.942L97.174 432.25C97.076 433.174 96.95 433.832 96.782 434.224C96.502 434.84 95.97 435.148 95.158 435.176H87.696C86.814 435.176 86.38 434.756 86.38 433.916V426.692ZM100.674 429.59C100.142 430.15 99.54 430.71 98.896 431.27L98.588 430.22C100.464 428.61 101.724 427.042 102.354 425.502H98.91V424.536H101.094C100.856 423.906 100.576 423.304 100.254 422.716L101.22 422.436C101.556 423.136 101.822 423.794 102.018 424.382L101.612 424.536H103.362V425.39C102.998 426.412 102.438 427.42 101.682 428.414C102.452 428.89 103.152 429.436 103.768 430.038L103.194 430.906C102.69 430.346 102.172 429.87 101.668 429.478V435.4H100.674V429.59ZM110.348 423.122V430.864H109.326V424.088H105.392V430.864H104.398V423.122H110.348ZM110.054 435.176H108.71C107.94 435.176 107.562 434.77 107.562 433.958V430.836H108.542V433.748C108.542 434.084 108.696 434.252 109.004 434.252H109.872C110.082 434.252 110.222 434.168 110.306 434.028C110.418 433.846 110.502 433.314 110.544 432.446L111.482 432.74C111.398 433.888 111.244 434.602 111.02 434.854C110.81 435.064 110.488 435.176 110.054 435.176ZM106.848 425.082H107.828V427.756C107.772 429.856 107.408 431.522 106.736 432.768C106.064 433.93 104.986 434.84 103.474 435.484L102.928 434.602C104.398 433.958 105.42 433.118 105.994 432.054C106.526 430.962 106.82 429.52 106.848 427.756V425.082ZM115.472 422.562H116.452V424.214H118.356V425.166H116.452V426.79H118.524V427.77H112.616V426.79H113.428V423.696H114.394V426.79H115.472V422.562ZM117.782 428.946L118.664 429.142C118.048 432.264 116.256 434.322 113.288 435.302L112.714 434.392C115.528 433.524 117.222 431.704 117.782 428.946ZM113.778 429.002L114.66 429.352C114.324 430.668 113.904 431.676 113.372 432.376L112.63 431.732C113.134 431.046 113.526 430.136 113.778 429.002ZM115.444 428.316H116.41V431.97H115.444V428.316ZM118.748 423.122H125.328V424.074H122.528C122.486 424.606 122.43 425.11 122.36 425.614H124.824V432.264H123.844V426.552H120.218V432.264H119.252V425.614H121.31C121.394 425.11 121.45 424.606 121.492 424.074H118.748V423.122ZM123.06 432.334C124.012 433.132 124.824 433.916 125.482 434.7L124.74 435.442C124.166 434.672 123.382 433.846 122.388 432.978L123.06 432.334ZM121.506 427.392H122.486V429.87C122.458 431.368 122.136 432.558 121.548 433.454C120.974 434.28 120.036 434.924 118.72 435.386L118.16 434.518C119.406 434.07 120.274 433.496 120.764 432.796C121.226 432.04 121.478 431.074 121.506 429.87V427.392ZM131.656 424.984V434.532H130.676V433.734H128.128V434.938H127.148V424.984H128.45C128.73 424.2 128.926 423.388 129.052 422.548L130.06 422.688C129.892 423.514 129.682 424.284 129.402 424.984H131.656ZM128.128 432.796H130.676V429.73H128.128V432.796ZM128.128 428.82H130.676V425.936H128.128V428.82ZM134.092 428.232C135.1 429.394 135.856 430.416 136.388 431.284L135.59 431.844C135.016 430.92 134.246 429.884 133.28 428.736L134.092 428.232ZM138.894 424.998C138.894 429.646 138.824 432.53 138.684 433.622C138.544 434.686 137.9 435.232 136.724 435.232C136.444 435.232 135.968 435.204 135.296 435.176L135.058 434.252C135.646 434.28 136.15 434.294 136.584 434.294C137.242 434.294 137.62 433.93 137.732 433.216C137.816 432.432 137.872 430.01 137.9 425.978H134.05C133.658 426.86 133.196 427.658 132.65 428.372L132.048 427.574C133.028 426.202 133.686 424.522 134.05 422.534L135.044 422.66C134.876 423.486 134.68 424.27 134.428 424.998H138.894ZM144.648 429.408V431.284H146.566V429.408H144.648ZM147.49 431.284H149.408V429.408H147.49V431.284ZM149.408 428.512V426.664H147.49V428.512H149.408ZM146.566 426.664H144.648V428.512H146.566V426.664ZM140.812 423.346H153.188V424.326H140.812V423.346ZM151.732 426.776H152.712V435.372H151.732V434.63H141.316V426.818H142.296V433.65H151.732V426.776ZM143.682 425.74H150.374V432.208H143.682V425.74ZM154.77 423.122H167.23V424.102H161.616C161.504 424.718 161.322 425.32 161.098 425.894H166.474V435.442H165.508V434.742H156.534V435.442H155.568V425.894H160.076C160.3 425.306 160.482 424.718 160.594 424.102H154.77V423.122ZM156.534 433.818H158.466V426.804H156.534V433.818ZM159.404 433.818H162.596V432.026H159.404V433.818ZM163.534 433.818H165.508V426.804H163.534V433.818ZM159.404 431.144H162.596V429.436H159.404V431.144ZM159.404 428.54H162.596V426.804H159.404V428.54ZM180.824 427.322V435.372H179.844V434.784H174.818V435.372H173.838V427.322H180.824ZM174.818 433.846H176.876V431.536H174.818V433.846ZM177.8 433.846H179.844V431.536H177.8V433.846ZM174.818 430.626H176.876V428.26H174.818V430.626ZM177.8 428.26V430.626H179.844V428.26H177.8ZM170.324 435.218H169.036L168.826 434.252C169.218 434.294 169.61 434.322 169.974 434.322C170.324 434.322 170.506 434.126 170.506 433.762V430.318C169.918 430.542 169.316 430.752 168.728 430.948L168.476 429.94C169.162 429.758 169.834 429.548 170.506 429.296V426.09H168.742V425.11H170.506V422.548H171.514V425.11H172.872V426.09H171.514V428.89C172.046 428.652 172.564 428.386 173.068 428.106V429.114C172.55 429.394 172.032 429.646 171.514 429.884V434.014C171.514 434.812 171.108 435.218 170.324 435.218ZM175.14 422.59H176.092V424.186H178.528V422.59H179.48V424.186H181.328V425.124H179.48V426.692H178.528V425.124H176.092V426.678H175.14V425.124H173.292V424.186H175.14V422.59ZM192.234 427.014C193.536 428.75 194.53 430.248 195.216 431.536L194.39 432.124C193.676 430.724 192.71 429.184 191.492 427.49L192.234 427.014ZM183.708 422.786C184.66 423.514 185.472 424.228 186.13 424.956L185.416 425.67C184.828 424.984 184.03 424.242 183.008 423.444L183.708 422.786ZM191.954 435.148C191.198 435.148 190.372 435.134 189.49 435.12C188.594 435.106 187.866 435.022 187.306 434.868C186.746 434.7 186.256 434.35 185.836 433.846C185.64 433.608 185.458 433.496 185.29 433.496C184.954 433.496 184.408 434.14 183.638 435.428L182.882 434.742C183.624 433.566 184.282 432.852 184.856 432.6V428.344H182.854V427.42H185.794V432.656C185.906 432.74 186.018 432.852 186.13 432.978C186.466 433.384 186.816 433.678 187.208 433.86C187.642 434.056 188.272 434.168 189.084 434.196C189.812 434.21 190.722 434.224 191.814 434.224C192.458 434.224 193.13 434.21 193.816 434.196C194.488 434.182 195.006 434.168 195.37 434.14L195.132 435.148H191.954ZM189.77 426.16H186.606V425.222H190.386V422.646H191.366V425.222H195.132V426.16H191.366V433.524H190.386V426.944C189.49 429.03 188.398 430.78 187.082 432.208L186.41 431.424C187.768 430.052 188.888 428.302 189.77 426.16ZM193.34 422.576C193.788 423.178 194.18 423.822 194.516 424.508L193.718 424.872C193.354 424.102 192.948 423.43 192.514 422.842L193.34 422.576Z" fill="#959595"/>
<path d="M16 529H348V557C348 561.418 344.418 565 340 565H24C19.5817 565 16 561.418 16 557V529Z" fill="#131313"/>
<g clip-path="url(#clip8_2565_70512)">
<path d="M280.395 542.5H283.446C283.888 542.5 284.108 542.726 284.108 543.18V543.32C284.108 543.773 283.888 544 283.446 544H280.395C279.954 544 279.734 543.773 279.734 543.32V543.18C279.734 542.727 279.953 542.5 280.395 542.5ZM273.416 542H277.304C277.951 542 278.276 542.333 278.276 543C278.276 543.666 277.951 544 277.304 544H273.416C272.768 544 272.444 543.666 272.444 543C272.444 542.333 272.768 542 273.416 542ZM271.195 545.5H272.891C273.354 545.5 273.586 545.739 273.586 546.215V546.285C273.586 546.762 273.354 547 272.891 547H271.195C270.732 547 270.5 546.762 270.5 546.285V546.214C270.5 545.738 270.732 545.5 271.195 545.5ZM281.192 551.5H283.136C283.459 551.5 283.622 551.667 283.622 552C283.622 552.334 283.459 552.5 283.136 552.5H281.192C280.867 552.5 280.706 552.333 280.706 552C280.706 551.667 280.869 551.5 281.192 551.5ZM278.251 540.5H281.702C282.01 540.5 282.163 540.659 282.163 540.975V541.025C282.163 541.342 282.01 541.5 281.702 541.5H278.251C277.944 541.5 277.79 541.342 277.79 541.025V540.975C277.79 540.659 277.944 540.5 278.251 540.5ZM273.902 551.5H278.276C278.924 551.5 279.248 551.833 279.248 552.5C279.248 553.166 278.923 553.5 278.276 553.5H273.902C273.254 553.5 272.93 553.166 272.93 552.5C272.93 551.833 273.254 551.5 273.902 551.5ZM278.761 548.5H284.108C284.755 548.5 285.079 548.834 285.079 549.5C285.079 550.166 284.755 550.5 284.108 550.5H278.761C278.114 550.5 277.79 550.166 277.79 549.5C277.79 548.833 278.114 548.5 278.761 548.5ZM275.909 547.565C275.785 547.568 275.662 547.544 275.547 547.496C275.433 547.448 275.329 547.376 275.243 547.285C274.996 547.03 275.005 546.715 275.005 546.285C275.005 545.855 275.005 545.53 275.243 545.285C275.417 545.099 275.658 544.995 275.91 545.001C276.13 544.989 276.347 545.064 276.515 545.21C276.684 545.357 276.792 545.564 276.818 545.79H276.332C276.317 545.688 276.267 545.596 276.191 545.53C276.115 545.464 276.018 545.429 275.919 545.43C275.86 545.427 275.802 545.438 275.748 545.461C275.694 545.485 275.646 545.52 275.607 545.565C275.516 545.67 275.485 545.79 275.485 546.28C275.485 546.77 275.516 546.885 275.607 546.99C275.646 547.035 275.694 547.07 275.748 547.094C275.802 547.117 275.86 547.128 275.919 547.125C276.124 547.128 276.3 546.974 276.332 546.765H276.818C276.795 546.993 276.688 547.203 276.518 547.352C276.349 547.5 276.131 547.577 275.909 547.565ZM277.144 547.545V545H277.63V547.1H278.761V547.545H277.144ZM280.443 547.285C280.263 547.459 280.025 547.557 279.778 547.557C279.53 547.557 279.292 547.459 279.112 547.285C278.864 547.03 278.869 546.715 278.869 546.285C278.869 545.855 278.869 545.53 279.112 545.285C279.293 545.111 279.531 545.014 279.778 545.014C280.025 545.014 280.263 545.111 280.443 545.285C280.691 545.54 280.686 545.855 280.686 546.285C280.686 546.715 280.706 547.029 280.443 547.285ZM280.088 545.565C280.048 545.522 280 545.488 279.946 545.464C279.893 545.441 279.836 545.429 279.778 545.429C279.72 545.429 279.662 545.441 279.609 545.464C279.555 545.488 279.507 545.522 279.467 545.565C279.374 545.675 279.35 545.79 279.35 546.28C279.35 546.77 279.374 546.88 279.467 546.99C279.507 547.033 279.555 547.067 279.609 547.09C279.662 547.114 279.72 547.126 279.778 547.126C279.836 547.126 279.893 547.114 279.946 547.09C280 547.067 280.048 547.033 280.088 546.99C280.181 546.88 280.21 546.764 280.21 546.279C280.21 545.795 280.181 545.675 280.088 545.565ZM281.959 547.565C281.842 547.573 281.725 547.555 281.614 547.513C281.504 547.472 281.403 547.407 281.318 547.324C281.233 547.24 281.166 547.139 281.121 547.027C281.076 546.916 281.054 546.796 281.056 546.675V545H281.542V546.65C281.536 546.711 281.543 546.772 281.561 546.831C281.58 546.889 281.611 546.943 281.651 546.988C281.691 547.033 281.74 547.07 281.794 547.095C281.849 547.119 281.908 547.132 281.967 547.132C282.027 547.132 282.086 547.119 282.14 547.095C282.195 547.07 282.244 547.033 282.284 546.988C282.324 546.943 282.354 546.889 282.373 546.831C282.392 546.772 282.398 546.711 282.393 546.65V545H282.878V546.666C282.882 546.789 282.861 546.911 282.815 547.025C282.77 547.139 282.702 547.242 282.615 547.327C282.528 547.412 282.425 547.477 282.312 547.518C282.2 547.56 282.08 547.576 281.96 547.566L281.959 547.565ZM284.852 547.3C284.766 547.384 284.664 547.448 284.553 547.49C284.442 547.532 284.324 547.551 284.205 547.545H283.316V545H284.205C284.444 544.988 284.676 545.077 284.851 545.245C285.071 545.526 285.162 545.89 285.104 546.245C285.17 546.618 285.078 547.002 284.852 547.3ZM284.516 545.61C284.473 545.556 284.419 545.514 284.357 545.487C284.295 545.461 284.228 545.449 284.161 545.455H283.797V547.1H284.161C284.228 547.106 284.295 547.095 284.357 547.068C284.419 547.041 284.473 546.998 284.516 546.945C284.608 546.83 284.623 546.65 284.623 546.265C284.623 545.881 284.594 545.725 284.516 545.61ZM272.327 550.32C272.263 550.383 272.186 550.432 272.103 550.463C272.019 550.493 271.93 550.506 271.841 550.5H271.199V548.635H271.85C271.939 548.629 272.028 548.641 272.112 548.672C272.195 548.703 272.272 548.752 272.336 548.815C272.499 549.025 272.566 549.296 272.521 549.56C272.542 549.693 272.535 549.83 272.502 549.961C272.468 550.092 272.41 550.214 272.327 550.32ZM272.084 549.075C272.051 549.036 272.01 549.005 271.963 548.985C271.917 548.965 271.867 548.957 271.817 548.96H271.55V550.175H271.817C271.867 550.178 271.917 550.17 271.964 550.15C272.01 550.13 272.051 550.099 272.084 550.06C272.148 549.975 272.157 549.845 272.157 549.56C272.157 549.275 272.147 549.16 272.084 549.075ZM273.902 550.5L273.795 550.17H273.124L273.017 550.5H272.648L273.309 548.635H273.586L274.247 550.5H273.902ZM273.479 549.185L273.25 549.865H273.703L273.479 549.185ZM275.005 548.959V550.5H274.656V548.96H274.169V548.634H275.472V548.96L275.005 548.959ZM276.643 550.5L276.536 550.17H275.894L275.788 550.5H275.418L276.075 548.635H276.332L277.012 550.5H276.643ZM276.221 549.185L275.992 549.865H276.443L276.221 549.185Z" fill="#E9E9E7"/>
</g>
<g clip-path="url(#clip9_2565_70512)">
<g clip-path="url(#clip10_2565_70512)">
<path d="M310 546.766L310 549.233C310 552.399 308.733 553.666 305.566 553.666L301.766 553.666C298.6 553.666 297.333 552.399 297.333 549.233L297.333 545.433C297.333 542.266 298.6 540.999 301.766 540.999L304.233 540.999" stroke="#E9E9E7" stroke-width="1.5" stroke-linecap="round" stroke-linejoin="round"/>
<path d="M300.223 546.06C302.323 545.014 304.789 545.014 306.889 546.06" stroke="#E9E9E7" stroke-width="1.5" stroke-linecap="round" stroke-linejoin="round"/>
<path d="M303.556 551V545.42" stroke="#E9E9E7" stroke-width="1.5" stroke-linecap="round" stroke-linejoin="round"/>
<path d="M307.539 541.136L308.445 538.889L309.219 541.184L311.466 542.09L309.171 542.865L308.265 545.111L307.49 542.816L305.244 541.91L307.539 541.136Z" fill="#E9E9E7"/>
</g>
</g>
<g clip-path="url(#clip11_2565_70512)">
<g clip-path="url(#clip12_2565_70512)">
<path d="M332 553.667C335.333 553.667 336.666 552.334 336.666 549.001V545.001C336.666 541.667 335.333 540.334 332 540.334H328C324.666 540.334 323.333 541.667 323.333 545.001V549.001C323.333 552.334 324.666 553.667 328 553.667H332Z" stroke="#E9E9E7" stroke-width="1.5" stroke-linecap="round" stroke-linejoin="round"/>
<path d="M334 543L326 551" stroke="#E9E9E7" stroke-width="1.5" stroke-linecap="round" stroke-linejoin="round"/>
<path d="M334 545.667V543H331.333" stroke="#E9E9E7" stroke-width="1.5" stroke-linecap="round" stroke-linejoin="round"/>
<path d="M326 548.334V551.001H328.667" stroke="#E9E9E7" stroke-width="1.5" stroke-linecap="round" stroke-linejoin="round"/>
</g>
</g>
<rect x="16" y="577" width="332" height="40" rx="8" fill="#131313"/>
<path d="M32.886 591.724H34.93V590.604H35.868V591.724H38.122V590.604H39.074V591.724H41.244V592.62H39.074V593.67H38.122V592.62H35.868V593.67H34.93V592.62H32.886V591.724ZM36.82 600.516C36.652 600.866 36.442 601.188 36.218 601.468C35.574 602.28 34.454 602.91 32.844 603.372L32.48 602.532C33.88 602.154 34.874 601.608 35.49 600.894C35.63 600.712 35.77 600.53 35.882 600.334H32.62V599.41H36.302C36.414 599.074 36.498 598.71 36.568 598.346H33.628V594.104H40.334V598.346H37.464C37.408 598.738 37.324 599.088 37.24 599.41H41.272V600.334H37.73C38.542 601.286 39.774 602.056 41.426 602.644L40.754 603.442C38.934 602.658 37.632 601.692 36.82 600.516ZM31.528 596.232V603.358H30.576V596.386C30.142 597.702 29.596 598.906 28.924 599.984L28.49 598.892C29.456 597.548 30.156 596.036 30.576 594.328V594.244H28.952V593.334H30.576V590.618H31.528V593.334H32.998V594.244H31.528V595.168C32.13 595.896 32.746 596.736 33.39 597.674L32.858 598.472C32.34 597.548 31.892 596.806 31.528 596.232ZM39.424 597.562V596.61H34.538V597.562H39.424ZM34.538 595.854H39.424V594.916H34.538V595.854ZM43.302 591.192H49.882V592.088H48.468V594.188H50.19V595.112H48.468V598.192H47.488V595.112H45.654C45.5 596.554 44.968 597.632 44.044 598.36L43.288 597.702C44.072 597.114 44.534 596.26 44.674 595.112H42.938V594.188H44.73V592.088H43.302V591.192ZM45.696 592.088V594.188H47.488V592.088H45.696ZM51.016 591.514H51.982V596.33H51.016V591.514ZM43.638 599.564H48.552V598.346H49.56V599.564H54.376V600.488H49.56V602.126H55.146V603.05H42.854V602.126H48.552V600.488H43.638V599.564ZM53.396 598.318H51.52L51.31 597.366C51.926 597.408 52.5 597.436 53.06 597.436C53.382 597.436 53.55 597.212 53.55 596.792V590.744H54.516V597.03C54.516 597.884 54.138 598.318 53.396 598.318Z" fill="#B1B1B1"/>
<rect x="64" y="590" width="1" height="14" fill="#343434"/>
<path d="M90.1437 594.289C90.1637 594.692 90.0783 595.079 89.9763 595.464C89.9647 595.508 89.9786 595.576 90.0078 595.61C90.5324 596.226 90.8607 596.93 90.9659 597.727C91.2206 599.657 90.0293 601.573 88.0428 602.13C87.8257 602.19 87.7209 602.283 87.6355 602.484C87.103 603.74 86.1605 604.542 84.8224 604.881C84.2955 605.014 83.7635 605.033 83.2213 604.951C82.4853 604.839 81.8364 604.551 81.2613 604.094C81.1239 603.984 81.006 603.851 80.8711 603.738C80.8278 603.702 80.7537 603.67 80.702 603.68C80.0073 603.806 79.321 603.771 78.6563 603.541C77.3271 603.082 76.4551 602.175 76.0214 600.856C75.8629 600.375 75.8231 599.877 75.8637 599.378C75.8869 599.094 75.9741 598.815 76.0268 598.533C76.035 598.49 76.0273 598.428 76.0003 598.396C75.5265 597.842 75.2093 597.213 75.0719 596.5C74.7622 594.894 75.4705 593.267 76.8503 592.36C77.2419 592.103 77.6712 591.921 78.1337 591.822C78.2208 591.803 78.2671 591.756 78.2991 591.671C78.7271 590.53 79.5134 589.725 80.6589 589.276C81.2501 589.045 81.8663 588.96 82.508 589.017C83.3466 589.091 84.0858 589.386 84.7369 589.903C84.8746 590.012 84.9917 590.147 85.1264 590.26C85.1699 590.296 85.2442 590.327 85.297 590.318C86.3699 590.135 87.3691 590.319 88.2837 590.906C89.1247 591.445 89.683 592.199 89.9778 593.142C90.0944 593.515 90.1628 593.897 90.1439 594.289H90.1437ZM78.0532 592.95C78.0126 592.958 77.9834 592.959 77.9581 592.969C77.4407 593.181 77.0067 593.503 76.6742 593.948C76.2175 594.56 76.0055 595.247 76.082 596.008C76.1828 597.011 76.6698 597.785 77.5397 598.314C77.9495 598.563 78.3726 598.791 78.7892 599.029C79.4446 599.404 80.0999 599.778 80.7542 600.154C80.8325 600.199 80.8981 600.202 80.9803 600.154C81.2729 599.981 81.5705 599.815 81.8656 599.646C81.9906 599.575 82.1142 599.501 82.2488 599.422C82.2134 599.399 82.1971 599.387 82.1793 599.377C80.9253 598.662 79.6736 597.943 78.4154 597.235C78.1607 597.091 78.0478 596.906 78.05 596.616C78.0584 595.469 78.0535 594.322 78.0535 593.175V592.95H78.0532ZM87.9455 601.058C88.0044 601.037 88.0477 601.026 88.0878 601.007C89.2007 600.499 89.832 599.646 89.9201 598.438C89.9912 597.466 89.6409 596.637 88.8912 596.002C88.5884 595.746 88.2277 595.552 87.8809 595.351C87.001 594.841 86.1139 594.342 85.2309 593.838C85.1633 593.799 85.1088 593.795 85.0377 593.837C84.759 594.002 84.4762 594.161 84.1948 594.321C84.0509 594.403 83.9068 594.485 83.7521 594.573C83.785 594.596 83.8006 594.609 83.8182 594.619C84.2564 594.869 84.6946 595.119 85.1331 595.369C85.9671 595.844 86.8 596.321 87.636 596.793C87.8564 596.917 87.9507 597.093 87.9482 597.342C87.9415 597.997 87.9457 598.652 87.9457 599.307C87.9457 599.884 87.9457 600.462 87.9457 601.058H87.9455ZM89.0365 594.796C89.1249 594.4 89.1017 594.021 89.0148 593.648C88.7102 592.344 87.6578 591.45 86.3353 591.31C85.7295 591.246 85.1442 591.358 84.6109 591.658C83.5167 592.272 82.4286 592.898 81.3365 593.516C81.2578 593.561 81.2321 593.616 81.2328 593.703C81.2363 594.142 81.2345 594.581 81.235 595.021C81.235 595.059 81.2397 595.097 81.2429 595.147C81.2749 595.132 81.2934 595.125 81.3103 595.116C81.8129 594.83 82.3154 594.544 82.8178 594.258C83.5949 593.816 84.3725 593.374 85.1482 592.93C85.3467 592.816 85.5344 592.804 85.7391 592.922C86.6745 593.459 87.6132 593.991 88.5508 594.524C88.7097 594.614 88.8699 594.703 89.0365 594.796V594.796ZM84.7654 598.842C84.524 598.978 84.3067 599.099 84.0903 599.222C83.0034 599.841 81.9168 600.461 80.8305 601.081C80.6436 601.188 80.4601 601.19 80.272 601.082C79.2992 600.527 78.3258 599.973 77.3523 599.419C77.2256 599.347 77.0976 599.277 76.9622 599.202C76.8782 599.62 76.9074 600.016 77.0028 600.41C77.4241 602.154 79.3272 603.152 81.0177 602.5C81.3709 602.364 81.7007 602.164 82.0322 601.978C82.9151 601.482 83.7937 600.977 84.6721 600.473C84.7122 600.45 84.7607 600.398 84.7612 600.359C84.7671 599.863 84.7652 599.368 84.7652 598.842L84.7654 598.842ZM85.4955 596.421C85.4955 596.496 85.4955 596.539 85.4955 596.582C85.4955 598.01 85.4935 599.437 85.4967 600.865C85.4972 601.099 85.4059 601.269 85.2002 601.386C84.2158 601.945 83.2322 602.505 82.2488 603.065C82.1397 603.127 82.032 603.192 81.9206 603.258C82.2629 603.589 83.023 603.904 83.5033 603.936C83.9432 603.966 84.372 603.935 84.7954 603.804C85.9553 603.446 86.8539 602.32 86.8757 601.124C86.899 599.847 86.8832 598.57 86.8802 597.293C86.8802 597.252 86.843 597.196 86.8062 597.172C86.6861 597.094 86.5583 597.027 86.4336 596.956C86.1313 596.784 85.829 596.611 85.4953 596.421L85.4955 596.421ZM84.0918 590.739C83.6221 590.355 83.1047 590.136 82.5288 590.07C81.8339 589.99 81.1714 590.109 80.5755 590.484C79.6837 591.044 79.1564 591.843 79.1287 592.893C79.095 594.162 79.1175 595.432 79.1212 596.701C79.1212 596.747 79.1683 596.811 79.2116 596.836C79.5973 597.063 79.9868 597.282 80.3757 597.503C80.4118 597.524 80.4505 597.541 80.5067 597.568C80.5067 597.499 80.5067 597.454 80.5067 597.411C80.5067 595.987 80.5089 594.563 80.5047 593.139C80.5039 592.893 80.6037 592.724 80.8186 592.603C81.6401 592.14 82.4583 591.671 83.2775 591.204C83.5436 591.052 83.8098 590.9 84.092 590.739L84.0918 590.739ZM84.7659 597.005C84.7659 596.704 84.7637 596.403 84.7676 596.103C84.7686 596.033 84.7466 595.992 84.6852 595.957C84.1529 595.657 83.6214 595.355 83.0918 595.051C83.027 595.014 82.9802 595.01 82.9131 595.049C82.38 595.356 81.8438 595.657 81.3113 595.964C81.2744 595.985 81.2385 596.044 81.2382 596.086C81.2335 596.696 81.2338 597.306 81.2377 597.916C81.2377 597.954 81.2684 598.008 81.3014 598.027C81.8411 598.339 82.3825 598.648 82.9267 598.952C82.9661 598.974 83.0401 598.972 83.0797 598.95C83.6167 598.65 84.1495 598.343 84.6854 598.041C84.7483 598.005 84.7686 597.965 84.7679 597.896C84.7647 597.599 84.7667 597.302 84.7662 597.006L84.7659 597.005Z" fill="white"/>
<path d="M105.508 591.808C106.684 591.808 107.608 592.046 108.266 592.536C108.966 593.054 109.372 593.866 109.47 594.958H107.846C107.706 594.342 107.44 593.894 107.076 593.628C106.712 593.348 106.152 593.222 105.424 593.222C104.794 593.222 104.318 593.306 103.982 593.488C103.562 593.698 103.366 594.048 103.366 594.524C103.366 594.944 103.59 595.294 104.066 595.546C104.276 595.658 104.85 595.868 105.774 596.162C107.132 596.582 108 596.918 108.392 597.142C109.26 597.66 109.694 598.374 109.694 599.298C109.694 600.194 109.344 600.908 108.644 601.426C107.944 601.93 106.95 602.196 105.676 602.196C104.444 602.196 103.478 601.958 102.792 601.482C101.952 600.894 101.49 599.97 101.42 598.696H103.044C103.156 599.452 103.422 599.998 103.856 600.32C104.248 600.6 104.85 600.754 105.676 600.754C106.404 600.754 106.992 600.628 107.412 600.39C107.832 600.138 108.056 599.816 108.056 599.396C108.056 598.864 107.734 598.444 107.118 598.136C106.922 598.038 106.278 597.814 105.172 597.478C103.94 597.086 103.17 596.806 102.876 596.638C102.106 596.176 101.728 595.504 101.728 594.622C101.728 593.74 102.092 593.04 102.848 592.536C103.548 592.046 104.43 591.808 105.508 591.808ZM114.319 594.566C115.411 594.566 116.293 594.916 116.965 595.644C117.623 596.358 117.959 597.268 117.959 598.388C117.959 599.494 117.623 600.404 116.979 601.104C116.307 601.832 115.411 602.196 114.319 602.196C113.213 602.196 112.331 601.832 111.659 601.104C111.001 600.404 110.679 599.494 110.679 598.388C110.679 597.268 111.001 596.358 111.673 595.644C112.331 594.916 113.213 594.566 114.319 594.566ZM114.319 595.868C113.647 595.868 113.143 596.12 112.779 596.652C112.471 597.1 112.317 597.688 112.317 598.388C112.317 599.088 112.471 599.662 112.779 600.11C113.143 600.628 113.647 600.894 114.319 600.894C114.977 600.894 115.495 600.628 115.859 600.11C116.167 599.648 116.335 599.074 116.335 598.388C116.335 597.688 116.167 597.1 115.859 596.652C115.495 596.12 114.977 595.868 114.319 595.868ZM122.77 594.566C123.12 594.566 123.428 594.622 123.68 594.748V596.344C123.316 596.232 122.98 596.19 122.644 596.19C122.224 596.19 121.846 596.344 121.51 596.68C121.118 597.058 120.936 597.548 120.936 598.164V602H119.354V594.762H120.936V595.798C121.132 595.434 121.356 595.154 121.622 594.958C121.944 594.692 122.322 594.566 122.77 594.566ZM127.88 594.566C128.944 594.566 129.742 594.832 130.246 595.364C130.694 595.826 130.918 596.498 130.918 597.38V602H129.434V601.048C129.154 601.412 128.804 601.678 128.398 601.874C127.936 602.084 127.39 602.196 126.76 602.196C126.004 602.196 125.416 602 124.982 601.622C124.534 601.23 124.31 600.74 124.31 600.138C124.31 599.326 124.618 598.696 125.262 598.262C125.85 597.842 126.676 597.618 127.74 597.59L129.322 597.548V597.268C129.322 596.316 128.804 595.854 127.768 595.854C127.32 595.854 126.97 595.924 126.704 596.092C126.396 596.274 126.186 596.554 126.102 596.932L124.52 596.806C124.674 596.008 125.066 595.42 125.696 595.056C126.228 594.72 126.956 594.566 127.88 594.566ZM129.322 598.696L127.852 598.738C126.578 598.766 125.948 599.214 125.948 600.082C125.948 600.334 126.046 600.544 126.27 600.712C126.494 600.88 126.774 600.978 127.124 600.978C127.74 600.978 128.258 600.796 128.678 600.446C129.098 600.082 129.322 599.62 129.322 599.06V598.696ZM136.116 591.808C137.082 591.808 137.88 592.088 138.51 592.648C139.126 593.208 139.434 593.922 139.434 594.818C139.434 595.686 139.098 596.47 138.454 597.184C138.062 597.604 137.362 598.136 136.382 598.794C135.36 599.466 134.744 600.054 134.52 600.558H139.448V602H132.476C132.476 600.978 132.798 600.096 133.47 599.34C133.834 598.92 134.604 598.304 135.766 597.506C136.41 597.058 136.858 596.68 137.138 596.386C137.572 595.896 137.796 595.364 137.796 594.804C137.796 594.258 137.642 593.852 137.362 593.586C137.068 593.32 136.634 593.194 136.06 593.194C135.444 593.194 134.982 593.404 134.674 593.824C134.366 594.216 134.198 594.818 134.17 595.602H132.532C132.546 594.482 132.868 593.586 133.512 592.9C134.17 592.172 135.038 591.808 136.116 591.808Z" fill="#F6F6F6"/>
<g clip-path="url(#clip13_2565_70512)">
<path d="M323.5 595L327.205 598.675C327.642 599.108 328.358 599.108 328.795 598.675L332.5 595" stroke="#E9E9E7" stroke-linecap="round" stroke-linejoin="round"/>
</g>
<rect x="16" y="629" width="332" height="40" rx="8" fill="#131313"/>
<path d="M31.766 642.478L32.704 642.912C32.34 644.004 31.892 645.026 31.346 645.992V655.428H30.338V647.532C29.876 648.148 29.372 648.75 28.826 649.324L28.504 648.246C29.988 646.566 31.08 644.648 31.766 642.478ZM32.634 644.816H36.4C36.204 644.074 35.966 643.388 35.714 642.772L36.778 642.59C37.002 643.234 37.212 643.976 37.408 644.816H41.062V645.782H32.634V644.816ZM32.396 653.748H37.212C37.926 651.872 38.542 649.52 39.074 646.692L40.04 646.944C39.55 649.506 38.948 651.774 38.248 653.748H41.426V654.742H32.396V653.748ZM34.356 646.846C34.902 648.652 35.392 650.724 35.826 653.048L34.888 653.3C34.51 651.172 34.02 649.114 33.432 647.126L34.356 646.846ZM42.994 646.524H48.44L48.524 645.712H43.932V643.094H54.068V645.712H49.532L49.448 646.524H55.02V647.294H49.336C49.28 647.574 49.238 647.84 49.182 648.092H53.242V654.266H55.272V655.078H42.742V654.266H44.772V648.092H48.174C48.23 647.826 48.272 647.56 48.328 647.294H42.994V646.524ZM45.752 654.266H52.248V653.342H45.752V654.266ZM45.752 652.712H52.248V651.83H45.752V652.712ZM45.752 651.186H52.248V650.304H45.752V651.186ZM45.752 649.674H52.248V648.792H45.752V649.674ZM53.116 644.998V643.836H51.03V644.998H53.116ZM50.106 644.998V643.836H47.894V644.998H50.106ZM46.984 644.998V643.836H44.898V644.998H46.984Z" fill="#B1B1B1"/>
<rect x="64" y="642" width="1" height="14" fill="#343434"/>
<path d="M75.436 644.914H73.77V643.934H78.096V644.914H76.472V651.242C77.074 651.032 77.648 650.822 78.194 650.598V651.606C76.962 652.124 75.534 652.6 73.91 653.034L73.616 652.04C74.246 651.886 74.848 651.732 75.436 651.564V644.914ZM78.628 643.164H86.384V644.144H83.038C82.954 644.676 82.856 645.166 82.744 645.642H85.712V652.222H84.732V646.566H80.238V652.222H79.272V645.642H81.736C81.876 645.166 81.974 644.662 82.044 644.144H78.628V643.164ZM83.626 652.25C84.774 653.09 85.754 653.93 86.538 654.77L85.81 655.498C85.11 654.686 84.158 653.818 82.954 652.894L83.626 652.25ZM81.918 647.462H82.926V649.87C82.87 651.382 82.478 652.586 81.722 653.496C80.98 654.322 79.776 654.98 78.096 655.456L77.55 654.588C79.174 654.154 80.322 653.566 80.966 652.838C81.554 652.082 81.876 651.088 81.918 649.87V647.462ZM98.704 643.248V655.386H97.696V654.476H90.332V655.414H89.31V643.248H98.704ZM90.332 653.496H97.696V650.864H90.332V653.496ZM90.332 649.94H97.696V647.476H90.332V649.94ZM90.332 646.552H97.696V644.228H90.332V646.552ZM105.97 654.532V655.358H104.962V650.416C104.094 650.696 103.184 650.948 102.204 651.186L101.672 650.22C104.094 649.716 106.11 649.072 107.72 648.26C107.104 647.742 106.264 647.182 105.2 646.58L106.068 646.034C107.132 646.692 107.972 647.28 108.574 647.798C110.002 646.944 111.038 645.95 111.696 644.802H106.516C105.564 645.684 104.36 646.468 102.876 647.168L102.204 646.3C104.598 645.278 106.208 644.018 107.048 642.534L108.154 642.66C107.93 643.08 107.678 643.472 107.398 643.85H112.858V644.746C111.85 646.664 110.044 648.232 107.412 649.45H113.25V655.358H112.228V654.532H105.97ZM112.228 653.552V650.388H105.97V653.552H112.228ZM115.812 646.398H117.856V644.396C117.268 644.48 116.68 644.564 116.064 644.62L115.868 643.668C117.604 643.514 119.13 643.234 120.474 642.814L120.824 643.766C120.208 643.934 119.536 644.102 118.822 644.242V646.398H120.544V647.364H118.822V648.134C119.522 648.75 120.208 649.422 120.908 650.178L120.348 651.018C119.76 650.178 119.242 649.52 118.822 649.03V655.358H117.856V649.002C117.38 650.374 116.722 651.62 115.91 652.74L115.476 651.62C116.54 650.374 117.296 648.96 117.744 647.364H115.812V646.398ZM123.764 655.33H122.42L122.21 654.364C122.63 654.406 123.036 654.434 123.414 654.434C123.75 654.434 123.932 654.224 123.932 653.818V646.664H124.968V654.07C124.968 654.91 124.562 655.33 123.764 655.33ZM122 648.68L122.938 648.862C122.532 650.724 121.958 652.334 121.216 653.692L120.348 653.146C121.104 651.802 121.65 650.304 122 648.68ZM126.788 648.582C127.418 650.094 127.964 651.704 128.426 653.426L127.502 653.832C127.012 651.97 126.466 650.318 125.878 648.876L126.788 648.582ZM122.952 645.474C122.56 646.356 122.07 647.154 121.496 647.854L120.88 647.056C121.832 645.824 122.49 644.312 122.826 642.52L123.82 642.646C123.694 643.29 123.526 643.906 123.33 644.494H127.964V645.152C127.796 646.104 127.586 647.042 127.306 647.966L126.326 647.672C126.578 647.014 126.788 646.286 126.956 645.474H122.952ZM133.97 654.532V655.358H132.962V650.416C132.094 650.696 131.184 650.948 130.204 651.186L129.672 650.22C132.094 649.716 134.11 649.072 135.72 648.26C135.104 647.742 134.264 647.182 133.2 646.58L134.068 646.034C135.132 646.692 135.972 647.28 136.574 647.798C138.002 646.944 139.038 645.95 139.696 644.802H134.516C133.564 645.684 132.36 646.468 130.876 647.168L130.204 646.3C132.598 645.278 134.208 644.018 135.048 642.534L136.154 642.66C135.93 643.08 135.678 643.472 135.398 643.85H140.858V644.746C139.85 646.664 138.044 648.232 135.412 649.45H141.25V655.358H140.228V654.532H133.97ZM140.228 653.552V650.388H133.97V653.552H140.228Z" fill="#E9E9E7"/>
<g clip-path="url(#clip14_2565_70512)">
<path d="M326 653.5L329.675 649.795C330.108 649.358 330.108 648.642 329.675 648.205L326 644.5" stroke="#E9E9E7" stroke-linecap="round" stroke-linejoin="round"/>
</g>
<rect x="16" y="681" width="332" height="40" rx="8" fill="#131313"/>
<path d="M32.97 706.532V707.358H31.962V702.416C31.094 702.696 30.184 702.948 29.204 703.186L28.672 702.22C31.094 701.716 33.11 701.072 34.72 700.26C34.104 699.742 33.264 699.182 32.2 698.58L33.068 698.034C34.132 698.692 34.972 699.28 35.574 699.798C37.002 698.944 38.038 697.95 38.696 696.802H33.516C32.564 697.684 31.36 698.468 29.876 699.168L29.204 698.3C31.598 697.278 33.208 696.018 34.048 694.534L35.154 694.66C34.93 695.08 34.678 695.472 34.398 695.85H39.858V696.746C38.85 698.664 37.044 700.232 34.412 701.45H40.25V707.358H39.228V706.532H32.97ZM39.228 705.552V702.388H32.97V705.552H39.228ZM42.812 698.398H44.856V696.396C44.268 696.48 43.68 696.564 43.064 696.62L42.868 695.668C44.604 695.514 46.13 695.234 47.474 694.814L47.824 695.766C47.208 695.934 46.536 696.102 45.822 696.242V698.398H47.544V699.364H45.822V700.134C46.522 700.75 47.208 701.422 47.908 702.178L47.348 703.018C46.76 702.178 46.242 701.52 45.822 701.03V707.358H44.856V701.002C44.38 702.374 43.722 703.62 42.91 704.74L42.476 703.62C43.54 702.374 44.296 700.96 44.744 699.364H42.812V698.398ZM50.764 707.33H49.42L49.21 706.364C49.63 706.406 50.036 706.434 50.414 706.434C50.75 706.434 50.932 706.224 50.932 705.818V698.664H51.968V706.07C51.968 706.91 51.562 707.33 50.764 707.33ZM49 700.68L49.938 700.862C49.532 702.724 48.958 704.334 48.216 705.692L47.348 705.146C48.104 703.802 48.65 702.304 49 700.68ZM53.788 700.582C54.418 702.094 54.964 703.704 55.426 705.426L54.502 705.832C54.012 703.97 53.466 702.318 52.878 700.876L53.788 700.582ZM49.952 697.474C49.56 698.356 49.07 699.154 48.496 699.854L47.88 699.056C48.832 697.824 49.49 696.312 49.826 694.52L50.82 694.646C50.694 695.29 50.526 695.906 50.33 696.494H54.964V697.152C54.796 698.104 54.586 699.042 54.306 699.966L53.326 699.672C53.578 699.014 53.788 698.286 53.956 697.474H49.952Z" fill="#B1B1B1"/>
<rect x="64" y="694" width="1" height="14" fill="#343434"/>
<path d="M81.596 694.562H82.562V695.472H86.034V696.298H82.562V697.236H85.53V698.048H82.562V699H86.384V699.84H77.816V699H81.596V698.048H78.768V697.236H81.596V696.298H78.208V695.472H81.596V694.562ZM79.846 703.368V704.39H84.368V703.368H79.846ZM84.368 702.584V701.548H79.846V702.584H84.368ZM79.846 705.174V707.4H78.88V700.722H85.334V706.182C85.334 706.938 84.928 707.316 84.144 707.316H82.968L82.73 706.42L83.85 706.462C84.186 706.462 84.368 706.294 84.368 705.972V705.174H79.846ZM75.282 694.716C76.22 695.416 77.004 696.13 77.648 696.844L76.962 697.544C76.374 696.872 75.576 696.158 74.568 695.402L75.282 694.716ZM73.588 698.846H76.556V704.992C76.976 704.6 77.41 704.166 77.886 703.676L78.152 704.74C77.368 705.552 76.528 706.28 75.66 706.91L75.268 706.014C75.478 705.818 75.59 705.608 75.59 705.37V699.812H73.588V698.846ZM90.206 698.454H91.144V700.54H92.432V701.45H91.144V703.34C91.62 703.228 92.054 703.116 92.474 703.004V703.956L91.144 704.292V707.4H90.206V704.502C89.408 704.656 88.582 704.796 87.728 704.922L87.602 703.942C88.526 703.83 89.394 703.69 90.206 703.536V701.45H88.022L87.812 700.61C88.204 699.77 88.554 698.72 88.876 697.474H87.714V696.522H89.1C89.24 695.878 89.366 695.22 89.492 694.52L90.416 694.73C90.29 695.36 90.164 695.962 90.038 696.522H92.502V697.474H89.8C89.492 698.622 89.17 699.644 88.82 700.54H90.206V698.454ZM94.336 697.74C93.804 698.23 93.272 698.692 92.726 699.112L92.18 698.272C93.608 697.222 94.896 695.99 96.03 694.59H96.758C97.976 696.102 99.222 697.292 100.496 698.188L99.964 698.986C98.648 698.034 97.458 696.872 96.394 695.5C95.722 696.312 95.05 697.054 94.35 697.726H98.354V698.566H94.336V697.74ZM95.316 707.302H94.644L94.42 706.476L95.036 706.504C95.344 706.504 95.498 706.35 95.498 706.042V704.782H93.93V707.4H93.048V699.686H96.352V706.224C96.352 706.938 96.002 707.302 95.316 707.302ZM93.93 703.998H95.498V702.668H93.93V703.998ZM93.93 701.884H95.498V700.498H93.93V701.884ZM97.192 700.078H97.976V705.104H97.192V700.078ZM98.718 707.33H97.528L97.318 706.448C97.696 706.476 98.06 706.504 98.41 706.504C98.704 706.504 98.858 706.294 98.858 705.902V699.448H99.74V706.126C99.74 706.924 99.39 707.33 98.718 707.33ZM107.384 697.81C106.74 696.634 105.97 695.738 105.074 695.094L105.914 694.562C107.16 695.43 108.21 697.012 109.078 699.28C110.394 702.626 112.144 704.992 114.356 706.378L113.726 707.19C111.458 705.818 109.61 703.27 108.168 699.574C108.084 699.35 108.014 699.154 107.944 698.986C107.02 702.556 105.088 705.3 102.148 707.204L101.546 706.35C104.542 704.39 106.488 701.534 107.384 697.81ZM126.9 694.422H127.88C127.32 695.346 126.872 696.312 126.55 697.32C126.13 698.552 125.934 699.756 125.934 700.96C125.934 702.15 126.13 703.368 126.55 704.6C126.872 705.594 127.32 706.56 127.88 707.498H126.9C126.284 706.588 125.808 705.622 125.458 704.614C125.038 703.41 124.842 702.192 124.842 700.974C124.842 699.728 125.038 698.51 125.458 697.306C125.808 696.284 126.284 695.318 126.9 694.422ZM133.844 694.576H134.88V707.4H133.844V704.096H129.574V703.13H133.844V700.904H130.218V699.924H133.844V697.754H129.896V696.788H133.844V694.576ZM137.12 694.576H138.156V696.788H142.09V697.754H138.156V699.924H141.782V700.904H138.156V703.13H142.314V704.096H138.156V707.4H137.12V694.576ZM148.39 694.618C149.496 695.486 150.42 696.368 151.176 697.236L150.476 697.936C149.804 697.11 148.88 696.214 147.704 695.262L148.39 694.618ZM152.912 695.024L153.836 695.43C152.576 699.7 150.728 702.92 148.292 705.104V705.286C148.292 705.706 148.53 705.916 149.006 705.916H151.428C151.834 705.916 152.114 705.776 152.282 705.51C152.506 705.188 152.646 704.222 152.73 702.626L153.682 702.948C153.57 704.81 153.346 705.944 153.01 706.364C152.716 706.7 152.254 706.882 151.61 706.882H148.684C147.9 706.882 147.438 706.546 147.326 705.902C146.542 706.476 145.73 706.952 144.876 707.344L144.288 706.504C145.38 706 146.388 705.37 147.284 704.614V697.488H148.292V703.69C150.364 701.576 151.904 698.692 152.912 695.024ZM145.24 698.79L146.206 698.986C145.786 701.212 145.198 703.13 144.442 704.74L143.574 704.208C144.33 702.57 144.89 700.764 145.24 698.79ZM154.214 698.986C155.082 700.638 155.852 702.416 156.496 704.306L155.586 704.712C154.886 702.668 154.102 700.862 153.262 699.294L154.214 698.986ZM162.11 695.598H165.666C165.694 695.234 165.736 694.87 165.764 694.506L166.744 694.646C166.716 694.982 166.674 695.29 166.646 695.598H169.992V696.48H166.534C166.478 696.788 166.436 697.096 166.394 697.39H169.194V703.858H170.482V704.754H161.62V703.858H162.922V697.39H165.428C165.484 697.082 165.526 696.774 165.568 696.48H162.11V695.598ZM163.874 703.858H168.242V702.948H163.874V703.858ZM163.874 702.22H168.242V701.366H163.874V702.22ZM163.874 700.638H168.242V699.784H163.874V700.638ZM163.874 699.07H168.242V698.188H163.874V699.07ZM167.612 704.95C168.578 705.454 169.474 706.056 170.314 706.756L169.698 707.456C168.858 706.714 167.948 706.07 166.982 705.524L167.612 704.95ZM164.518 704.936L165.19 705.538C164.378 706.266 163.37 706.91 162.166 707.456L161.564 706.7C162.74 706.196 163.72 705.608 164.518 704.936ZM157.7 697.992H159.268V694.618H160.234V697.992H161.676V698.944H160.234V703.312C160.71 703.144 161.186 702.962 161.648 702.766V703.76C160.472 704.236 159.198 704.628 157.84 704.95L157.588 703.984C158.148 703.872 158.708 703.746 159.268 703.606V698.944H157.7V697.992ZM173.604 704.334C173.912 704.334 174.178 704.46 174.374 704.726C174.556 704.978 174.654 705.3 174.654 705.706C174.654 706.322 174.472 706.868 174.108 707.344C173.744 707.792 173.254 708.1 172.666 708.254V707.568C173.03 707.442 173.324 707.232 173.548 706.952C173.758 706.658 173.856 706.35 173.856 706.014C173.8 706.042 173.688 706.07 173.548 706.07C173.31 706.07 173.114 705.986 172.946 705.818C172.778 705.65 172.694 705.44 172.694 705.202C172.694 704.936 172.778 704.726 172.946 704.572C173.114 704.404 173.324 704.334 173.604 704.334ZM186.05 695.29H197.95V696.284H193.386C193.134 696.858 192.84 697.418 192.518 697.95V707.428H191.482V699.434C190.166 701.072 188.444 702.528 186.316 703.802L185.658 702.92C188.822 701.1 191.034 698.888 192.266 696.284H186.05V695.29ZM194.282 699.056C195.892 700.33 197.236 701.604 198.328 702.878L197.558 703.662C196.578 702.43 195.248 701.128 193.554 699.742L194.282 699.056ZM204.11 695.598H207.666C207.694 695.234 207.736 694.87 207.764 694.506L208.744 694.646C208.716 694.982 208.674 695.29 208.646 695.598H211.992V696.48H208.534C208.478 696.788 208.436 697.096 208.394 697.39H211.194V703.858H212.482V704.754H203.62V703.858H204.922V697.39H207.428C207.484 697.082 207.526 696.774 207.568 696.48H204.11V695.598ZM205.874 703.858H210.242V702.948H205.874V703.858ZM205.874 702.22H210.242V701.366H205.874V702.22ZM205.874 700.638H210.242V699.784H205.874V700.638ZM205.874 699.07H210.242V698.188H205.874V699.07ZM209.612 704.95C210.578 705.454 211.474 706.056 212.314 706.756L211.698 707.456C210.858 706.714 209.948 706.07 208.982 705.524L209.612 704.95ZM206.518 704.936L207.19 705.538C206.378 706.266 205.37 706.91 204.166 707.456L203.564 706.7C204.74 706.196 205.72 705.608 206.518 704.936ZM199.7 697.992H201.268V694.618H202.234V697.992H203.676V698.944H202.234V703.312C202.71 703.144 203.186 702.962 203.648 702.766V703.76C202.472 704.236 201.198 704.628 199.84 704.95L199.588 703.984C200.148 703.872 200.708 703.746 201.268 703.606V698.944H199.7V697.992ZM219.482 707.358H217.914L217.69 706.364C218.194 706.406 218.67 706.434 219.132 706.434C219.468 706.434 219.65 706.252 219.65 705.916V702.486C218.306 702.57 216.85 702.654 215.268 702.724L214.988 701.828C215.31 701.8 215.604 701.73 215.87 701.646C217.018 701.142 218.306 700.358 219.734 699.294C218.516 699.392 217.2 699.476 215.8 699.56L215.59 698.664C215.842 698.636 216.066 698.566 216.276 698.482C216.976 698.132 217.802 697.446 218.754 696.41C217.564 696.466 216.304 696.494 214.96 696.494L214.666 695.612C218.684 695.612 222.03 695.318 224.69 694.73L225.18 695.584C223.724 695.92 222.016 696.172 220.028 696.326C219.16 697.334 218.278 698.118 217.382 698.706C218.502 698.65 219.636 698.566 220.784 698.468C221.414 697.964 222.058 697.404 222.73 696.802L223.654 697.264C221.288 699.35 219.23 700.848 217.466 701.772C219.748 701.646 221.708 701.492 223.332 701.296C222.982 700.848 222.618 700.386 222.24 699.938L222.996 699.476C224.144 700.82 225.026 701.982 225.642 702.976L224.83 703.55C224.564 703.074 224.256 702.598 223.92 702.108C222.954 702.22 221.876 702.318 220.672 702.416V706.168C220.672 706.952 220.266 707.358 219.482 707.358ZM222.59 703.27C224.004 704.292 225.18 705.314 226.132 706.35L225.418 707.064C224.564 706.084 223.402 705.034 221.918 703.914L222.59 703.27ZM217.256 703.368L217.97 703.998C217.018 705.146 215.842 706.14 214.442 706.994L213.812 706.182C215.184 705.37 216.332 704.432 217.256 703.368ZM232.348 704.208V705.174C231.06 705.818 229.604 706.35 227.98 706.742L227.854 705.734C229.562 705.356 231.06 704.852 232.348 704.208ZM230.108 694.534L231.074 694.926C230.374 696.718 229.66 698.146 228.932 699.21C229.548 699.126 230.164 699.014 230.78 698.902C231.032 698.426 231.284 697.936 231.55 697.404L232.46 697.754C231.228 700.078 230.206 701.744 229.394 702.752C230.374 702.5 231.354 702.164 232.348 701.73V702.668C230.878 703.284 229.464 703.69 228.12 703.914L227.84 702.99C228.022 702.906 228.176 702.794 228.302 702.682C228.834 702.122 229.492 701.184 230.262 699.84C229.506 699.98 228.736 700.12 227.966 700.232L227.7 699.308C227.868 699.238 228.008 699.112 228.148 698.916C228.904 697.642 229.548 696.186 230.108 694.534ZM232.824 700.68L232.6 699.784C232.684 699.756 232.74 699.728 232.796 699.714C233.272 699.364 233.874 698.468 234.63 697.012H232.236V696.046H235.806C235.61 695.514 235.4 695.038 235.176 694.604L236.198 694.436C236.408 694.912 236.618 695.458 236.814 696.046H239.964V697.012H235.68C235.064 698.23 234.518 699.112 234.042 699.672C235.344 699.56 236.646 699.406 237.934 699.196C237.626 698.748 237.29 698.286 236.94 697.838L237.71 697.362C238.662 698.58 239.404 699.644 239.922 700.568L239.138 701.114C238.942 700.75 238.732 700.4 238.494 700.036C236.758 700.316 234.868 700.526 232.824 700.68ZM233.958 701.254H234.938C234.868 703.018 234.644 704.32 234.28 705.146C233.874 706.014 233.202 706.756 232.25 707.372L231.606 706.574C232.432 706.042 233.02 705.426 233.37 704.712C233.706 703.984 233.902 702.836 233.958 701.254ZM238.942 707.148H237.962C237.122 707.148 236.702 706.742 236.702 705.93V701.128H237.668V705.762C237.668 706.056 237.766 706.21 237.99 706.238H238.9C239.208 706.21 239.39 706.042 239.446 705.734C239.502 705.342 239.544 704.74 239.544 703.914L240.412 704.222C240.412 705.538 240.314 706.364 240.132 706.672C239.95 706.952 239.558 707.12 238.942 707.148ZM248.238 702.976V703.774C246.824 703.914 244.71 704.04 241.91 704.138L241.798 703.284C242.792 703.27 243.716 703.242 244.556 703.214V702.01H242.036V701.198H244.556V700.05H241.966V695.08H248.112V700.05H245.452V701.198H248V702.01H245.452V703.172C246.516 703.116 247.44 703.06 248.238 702.976ZM242.232 704.656L243.072 704.754C242.988 705.776 242.806 706.686 242.498 707.47L241.658 707.204C241.966 706.462 242.148 705.608 242.232 704.656ZM244.514 704.754C244.654 705.342 244.752 706.168 244.808 707.204L243.954 707.302C243.926 706.238 243.842 705.426 243.73 704.838L244.514 704.754ZM247.622 704.474C247.944 705.23 248.196 705.93 248.378 706.574C249.624 704.474 250.338 702.052 250.534 699.322H248.77V698.356H250.576C250.604 696.718 250.618 695.472 250.618 694.604H251.584C251.584 695.64 251.57 696.9 251.556 698.356H254.02V699.322H251.612C252.046 702.5 252.998 704.95 254.468 706.672L253.782 707.428C252.536 705.846 251.682 703.858 251.234 701.464C250.786 703.816 250.016 705.818 248.924 707.442L248.28 706.728C248.294 706.7 248.308 706.672 248.322 706.658L247.65 706.91C247.454 706.14 247.202 705.398 246.908 704.67L247.622 704.474ZM246.068 704.6C246.32 705.272 246.53 706.028 246.726 706.896L245.914 707.106C245.76 706.322 245.564 705.566 245.34 704.838L246.068 704.6ZM252.76 695.066C253.376 695.85 253.838 696.55 254.16 697.138L253.46 697.642C253.124 696.998 252.662 696.27 252.074 695.486L252.76 695.066ZM247.3 699.266V695.864H245.382V699.266H247.3ZM244.654 699.266V695.864H242.778V699.266H244.654ZM246.264 696.592L246.796 696.718C246.712 697.39 246.558 698.048 246.334 698.692L245.802 698.51C246.026 697.908 246.18 697.264 246.264 696.592ZM243.702 696.648C243.912 697.208 244.094 697.838 244.262 698.552L243.744 698.692C243.59 698.048 243.394 697.418 243.17 696.816L243.702 696.648ZM263.778 694.632H264.814C264.814 695.808 264.772 696.914 264.688 697.922C265.43 701.506 266.718 704.362 268.552 706.462L267.824 707.302C266.326 705.398 265.192 703.046 264.408 700.274C264.338 700.666 264.268 701.03 264.198 701.394C263.666 703.802 262.476 705.79 260.614 707.33L259.928 706.504C261.552 705.132 262.644 703.41 263.176 701.324C263.568 699.574 263.778 697.348 263.778 694.632ZM257.268 694.702C258.22 695.416 259.018 696.13 259.662 696.858L258.976 697.558C258.388 696.872 257.576 696.144 256.568 695.388L257.268 694.702ZM255.63 698.846H258.654V704.964C259.158 704.544 259.704 704.068 260.278 703.522L260.53 704.558C259.662 705.384 258.738 706.126 257.758 706.77L257.366 705.874C257.576 705.706 257.688 705.496 257.688 705.272V699.812H255.63V698.846ZM272.374 698.146C271.814 699.42 271.1 700.484 270.232 701.352L269.588 700.526C270.904 699.154 271.8 697.292 272.262 694.954L273.284 695.136C273.13 695.864 272.948 696.536 272.738 697.166H275.734V694.674H276.756V697.166H281.362V698.146H276.756V701.38H281.082V702.36H276.756V705.916H282.258V706.924H269.924V705.916H275.734V702.36H271.618V701.38H275.734V698.146H272.374ZM293.416 694.52C294.088 695.024 294.662 695.542 295.138 696.06L294.494 696.704H296.202V697.67H291.89C291.988 699.406 292.17 700.778 292.422 701.786C292.506 702.136 292.604 702.458 292.702 702.766C293.402 701.646 293.962 700.33 294.396 698.832L295.306 699.224C294.746 701.072 294.018 702.64 293.122 703.9C293.318 704.348 293.528 704.74 293.752 705.062C294.214 705.734 294.592 706.07 294.872 706.07C295.124 706.056 295.362 705.328 295.572 703.886L296.482 704.39C296.146 706.252 295.67 707.19 295.04 707.19C294.452 707.19 293.822 706.77 293.15 705.93C292.898 705.594 292.66 705.202 292.45 704.768C291.47 705.916 290.322 706.77 289.006 707.358L288.446 706.518C289.846 705.888 291.036 704.964 292.002 703.746C291.806 703.228 291.624 702.668 291.47 702.066C291.162 700.89 290.966 699.42 290.854 697.67H286.052V699.994H289.482C289.454 702.36 289.342 703.886 289.16 704.572C288.978 705.174 288.544 705.482 287.844 705.51C287.508 705.51 287.102 705.482 286.654 705.454L286.346 704.544C286.892 704.572 287.354 704.586 287.732 704.586C288.04 704.572 288.236 704.362 288.32 703.97C288.404 703.494 288.446 702.486 288.474 700.946H286.052V701.366C285.996 703.872 285.436 705.888 284.4 707.4L283.63 706.714C284.526 705.426 284.988 703.648 285.03 701.366V696.704H290.812C290.784 696.004 290.77 695.29 290.77 694.534H291.806C291.806 695.318 291.82 696.032 291.848 696.704H294.466C294.046 696.2 293.486 695.682 292.772 695.136L293.416 694.52ZM298.12 694.422H299.1C299.702 695.318 300.178 696.284 300.542 697.306C300.948 698.51 301.158 699.728 301.158 700.974C301.158 702.192 300.948 703.41 300.542 704.614C300.178 705.622 299.702 706.588 299.1 707.498H298.12C298.68 706.56 299.114 705.594 299.45 704.6C299.856 703.368 300.066 702.15 300.066 700.96C300.066 699.756 299.856 698.552 299.45 697.32C299.114 696.312 298.68 695.346 298.12 694.422Z" fill="#959595"/>
<rect width="332" height="206" transform="translate(16 737)" fill="#090909"/>
<rect x="16" y="891" width="332" height="44" rx="8" fill="#E94140"/>
<path d="M33.81 912.134H31.206V917.468C31.206 917.804 31.388 917.986 31.766 917.986H34.202C34.622 917.986 34.888 917.874 34.986 917.664C35.098 917.44 35.182 916.964 35.238 916.25L36.484 916.67C36.372 917.888 36.204 918.63 35.952 918.882C35.728 919.106 35.266 919.218 34.594 919.218H31.192C30.31 919.218 29.876 918.798 29.876 917.958V911.308L29.204 911.98L28.42 910.902C29.75 909.684 30.968 908.242 32.074 906.59H33.054C34.286 907.878 35.462 909.222 36.554 910.622L35.686 911.532C34.482 909.936 33.488 908.704 32.676 907.85C31.948 908.928 31.136 909.964 30.212 910.958H35.112V914.822C35.098 915.592 34.678 915.998 33.838 916.054C33.292 916.054 32.774 916.04 32.284 916.012L31.962 914.766C32.48 914.822 32.928 914.85 33.32 914.85C33.642 914.85 33.81 914.682 33.81 914.374V912.134ZM37.184 907.752H38.486V916.39H37.184V907.752ZM39.606 919.316H37.492L37.184 918.042C37.87 918.098 38.528 918.126 39.144 918.126C39.48 918.126 39.648 917.916 39.648 917.51V906.562H40.978V917.846C40.978 918.826 40.516 919.316 39.606 919.316ZM43.904 906.576C44.828 907.346 45.626 908.116 46.27 908.872L45.332 909.796C44.772 909.068 44.002 908.284 42.994 907.444L43.904 906.576ZM51.912 919.204C51.156 919.204 50.316 919.19 49.42 919.176C48.51 919.162 47.768 919.078 47.194 918.938C46.634 918.77 46.144 918.434 45.724 917.958C45.528 917.72 45.346 917.608 45.192 917.608C44.884 917.608 44.38 918.238 43.666 919.512L42.686 918.602C43.386 917.454 44.03 916.74 44.59 916.46V912.498H42.714V911.266H45.836V916.572C45.892 916.628 45.962 916.684 46.032 916.768C46.368 917.146 46.704 917.426 47.04 917.608C47.46 917.804 48.076 917.93 48.916 917.958C49.7 917.972 50.638 917.986 51.73 917.986C52.416 917.986 53.116 917.972 53.83 917.958C54.53 917.944 55.076 917.916 55.468 917.888L55.146 919.204H51.912ZM48.608 909.334C48.384 909.81 48.132 910.244 47.866 910.65L46.774 909.964C47.446 909.012 47.922 907.976 48.202 906.856L49.42 907.108C49.322 907.458 49.224 907.794 49.112 908.102H50.512V906.534H51.786V908.102H54.544V909.334H51.786V910.832H55.272V912.05H46.62V910.832H50.512V909.334H48.608ZM47.754 912.932H54.25V917.062H47.754V912.932ZM52.976 915.844V914.15H49.028V915.844H52.976Z" fill="#E9E9E7"/>
<path d="M325.24 919.277C325.093 919.199 324.916 919.199 324.768 919.277L321.696 920.92C321.33 921.115 320.899 920.805 320.968 920.395L321.558 916.893C321.586 916.733 321.533 916.569 321.417 916.455L318.91 913.969C318.617 913.679 318.781 913.179 319.189 913.119L322.64 912.609C322.803 912.585 322.944 912.481 323.017 912.332L324.554 909.165C324.736 908.789 325.271 908.789 325.453 909.165L326.991 912.332C327.063 912.481 327.204 912.584 327.367 912.609L330.819 913.119C331.226 913.179 331.39 913.678 331.098 913.968L328.59 916.455C328.474 916.569 328.422 916.733 328.449 916.893L329.04 920.395C329.109 920.805 328.677 921.115 328.311 920.919L325.24 919.277ZM331.201 909.273C331.054 909.194 330.877 909.194 330.73 909.273L330.111 909.603C329.745 909.799 329.314 909.489 329.383 909.079L329.505 908.355C329.532 908.195 329.479 908.031 329.364 907.917L328.84 907.398C328.548 907.108 328.712 906.608 329.119 906.548L329.828 906.444C329.991 906.419 330.132 906.316 330.205 906.167L330.515 905.527C330.698 905.151 331.233 905.151 331.415 905.527L331.726 906.167C331.798 906.316 331.939 906.419 332.103 906.444L332.811 906.548C333.219 906.608 333.383 907.108 333.09 907.398L332.567 907.916C332.452 908.031 332.399 908.194 332.426 908.354L332.548 909.079C332.617 909.489 332.186 909.799 331.82 909.603L331.201 909.273ZM320.831 908.541C320.831 908.541 320.831 908.541 320.831 908.541L320.414 908.764C320.155 908.902 319.85 908.683 319.899 908.393L319.94 908.154C319.965 908.002 319.915 907.848 319.806 907.74L319.797 907.731C319.522 907.458 319.679 906.988 320.062 906.931C320.214 906.909 320.346 906.812 320.413 906.674C320.582 906.325 321.08 906.325 321.249 906.674C321.316 906.812 321.448 906.909 321.6 906.931C321.983 906.988 322.139 907.458 321.864 907.731L321.855 907.739C321.746 907.847 321.696 908.002 321.721 908.153L321.834 908.824C321.853 908.937 321.734 909.023 321.633 908.969L320.831 908.54C320.831 908.54 320.831 908.541 320.831 908.541Z" fill="#F6F6F6"/>
<defs>
<clipPath id="clip0_2565_70512">
<rect width="16" height="16" fill="white" transform="translate(132 44) rotate(-90)"/>
</clipPath>
<clipPath id="clip1_2565_70512">
<rect width="16" height="16" fill="white" transform="translate(292.5 44) rotate(-90)"/>
</clipPath>
<clipPath id="clip2_2565_70512">
<rect width="16" height="16" fill="white" transform="translate(46.5 128) rotate(-90)"/>
</clipPath>
<clipPath id="clip3_2565_70512">
<rect width="16" height="16" fill="white" transform="translate(46.5 112)"/>
</clipPath>
<clipPath id="clip4_2565_70512">
<rect width="16" height="16" fill="white" transform="translate(28 239) rotate(-90)"/>
</clipPath>
<clipPath id="clip5_2565_70512">
<rect width="16" height="16" fill="white" transform="translate(28 223)"/>
</clipPath>
<clipPath id="clip6_2565_70512">
<rect width="16" height="20" fill="white" transform="translate(320 221)"/>
</clipPath>
<clipPath id="clip7_2565_70512">
<rect width="16" height="16" fill="white" transform="translate(320 239) rotate(-90)"/>
</clipPath>
<clipPath id="clip8_2565_70512">
<rect width="16" height="16" fill="white" transform="translate(270 555) rotate(-90)"/>
</clipPath>
<clipPath id="clip9_2565_70512">
<rect width="16" height="16" fill="white" transform="translate(296 555) rotate(-90)"/>
</clipPath>
<clipPath id="clip10_2565_70512">
<rect width="16" height="16" fill="white" transform="translate(296 539)"/>
</clipPath>
<clipPath id="clip11_2565_70512">
<rect width="16" height="16" fill="white" transform="translate(322 555) rotate(-90)"/>
</clipPath>
<clipPath id="clip12_2565_70512">
<rect width="16" height="16" fill="white" transform="translate(322 539)"/>
</clipPath>
<clipPath id="clip13_2565_70512">
<rect width="16" height="16" fill="white" transform="translate(320 605) rotate(-90)"/>
</clipPath>
<clipPath id="clip14_2565_70512">
<rect width="16" height="16" fill="white" transform="translate(320 657) rotate(-90)"/>
</clipPath>
</defs>
</svg>
