<svg width="180" height="153" viewBox="0 0 180 153" fill="none" xmlns="http://www.w3.org/2000/svg">
<path d="M28.672 0C22.3728 35.5548 49.3517 43.261 87.2591 37.0507C61.5804 45.1662 44.9321 54.984 35.0983 65.0109C30.7844 69.4098 27.7819 73.8462 25.8989 78.1998C25.1276 79.9904 24.5423 81.7675 24.1351 83.5233L24.1208 83.5897C24.0192 83.9876 23.926 84.3904 23.8388 84.7946C19.4248 105.258 32.4313 125.436 52.8914 129.865C59.8552 131.372 66.7841 130.861 73.0694 128.723C77.5957 126.896 81.8647 124.433 85.7373 121.451C92.9693 115.89 98.8237 108.535 102.412 100.155C102.756 99.3491 103.085 98.5395 103.39 97.715C108.624 83.4279 107.495 67.7063 109.462 52.6171C111.429 37.5279 118.071 21.2216 132.174 15.5194C143.103 11.1001 155.933 14.7079 164.91 22.5142C166.676 24.0457 168.289 25.7431 169.712 27.5731C177.602 37.7237 180.355 51.0119 179.964 63.9322C179.926 65.1931 179.859 66.4543 179.762 67.7088C177.493 97.1932 159.544 124.647 134.339 139.843C134.318 139.854 134.296 139.868 134.274 139.882C121.835 147.587 107.286 152.283 91.5942 152.925C75.1378 153.599 59.565 149.723 46.0864 142.417C34.6601 136.865 24.5998 129.02 17.4 119.006C17.3389 118.921 17.3798 118.961 17.2846 118.842C5.98833 104.72 0.88492 88.1074 0.076357 68.616C-1.01523 42.3729 9.65004 17.3393 28.672 0Z" fill="url(#paint0_linear_2449_49851)"/>
<path d="M50.6376 76.8429C60.0184 72.5565 71.0917 76.6998 75.3706 86.0973C79.6494 95.4948 75.5134 106.588 66.1326 110.874C56.7518 115.161 45.6785 111.017 41.3997 101.62C37.1208 92.2224 41.2568 81.1294 50.6376 76.8429Z" fill="url(#paint1_linear_2449_49851)"/>
<defs>
<linearGradient id="paint0_linear_2449_49851" x1="109.142" y1="111.256" x2="121.632" y2="165.571" gradientUnits="userSpaceOnUse">
<stop stop-color="#FF3402"/>
<stop offset="1" stop-color="#FFF06B"/>
</linearGradient>
<linearGradient id="paint1_linear_2449_49851" x1="109.142" y1="111.256" x2="121.632" y2="165.571" gradientUnits="userSpaceOnUse">
<stop stop-color="#FF3402"/>
<stop offset="1" stop-color="#FFF06B"/>
</linearGradient>
</defs>
</svg>
